<svg width="179" height="48" viewBox="0 0 179 48" fill="none" xmlns="http://www.w3.org/2000/svg">
<path d="M36.0001 17C36.6701 17 37.3501 17.09 38.0001 17.26C39.7801 15.26 43.0301 14.42 44.4201 15C45.8201 15.58 44.0001 22 44.0001 22C44.5701 23.07 45.0001 24.24 45.0001 25.44C45.0001 29.9 40.9701 33 36.0001 33C31.0301 33 27.0001 30 27.0001 25.44C27.0001 24.19 27.5001 23.04 28.0001 22C28.0001 22 26.1101 15.58 27.5001 15C28.8901 14.42 32.2201 15.23 34.0001 17.23C34.6561 17.0791 35.3269 17.002 36.0001 17Z" stroke="#C5ABF8" stroke-width="2" stroke-linecap="round" stroke-linejoin="round"/>
<path d="M32 26V26.5" stroke="#C5ABF8" stroke-width="2" stroke-linecap="round" stroke-linejoin="round"/>
<path d="M40 26V26.5" stroke="#C5ABF8" stroke-width="2" stroke-linecap="round" stroke-linejoin="round"/>
<path d="M35.25 28.25H36.75L36 29L35.25 28.25Z" stroke="#C5ABF8" stroke-width="2" stroke-linecap="round" stroke-linejoin="round"/>
<path d="M53.4347 31V16.4545H56.0696V28.7912H62.4759V31H53.4347ZM66.7884 31.2202C66.0971 31.2202 65.4744 31.0971 64.9205 30.8509C64.3712 30.5999 63.9356 30.2306 63.6136 29.7429C63.2964 29.2552 63.1378 28.6539 63.1378 27.9389C63.1378 27.3234 63.2514 26.8144 63.4787 26.4119C63.706 26.0095 64.0161 25.6875 64.4091 25.446C64.8021 25.2045 65.2448 25.0223 65.7372 24.8991C66.2344 24.7713 66.7481 24.679 67.2784 24.6222C67.9176 24.5559 68.4361 24.4967 68.8338 24.4446C69.2315 24.3878 69.5204 24.3026 69.7003 24.1889C69.8849 24.0705 69.9773 23.8883 69.9773 23.642V23.5994C69.9773 23.0644 69.8187 22.6501 69.5014 22.3565C69.1842 22.063 68.7273 21.9162 68.1307 21.9162C67.5009 21.9162 67.0014 22.0535 66.6321 22.3281C66.2675 22.6027 66.0213 22.9271 65.8935 23.3011L63.4929 22.9602C63.6823 22.2973 63.9948 21.7434 64.4304 21.2983C64.866 20.8485 65.3987 20.5123 66.0284 20.2898C66.6581 20.0625 67.3542 19.9489 68.1165 19.9489C68.642 19.9489 69.1652 20.0104 69.6861 20.1335C70.2069 20.2566 70.6828 20.4602 71.1136 20.7443C71.5445 21.0237 71.8902 21.4048 72.1506 21.8878C72.4157 22.3707 72.5483 22.9744 72.5483 23.6989V31H70.0767V29.5014H69.9915C69.8352 29.8045 69.6151 30.0885 69.331 30.3537C69.0516 30.6141 68.6989 30.8248 68.2727 30.9858C67.8513 31.142 67.3565 31.2202 66.7884 31.2202ZM67.456 29.331C67.9721 29.331 68.4195 29.2292 68.7983 29.0256C69.1771 28.8172 69.4683 28.5426 69.6719 28.2017C69.8802 27.8608 69.9844 27.4891 69.9844 27.0866V25.8011C69.9039 25.8674 69.7666 25.929 69.5724 25.9858C69.383 26.0426 69.17 26.0923 68.9332 26.1349C68.6965 26.1776 68.4621 26.2154 68.2301 26.2486C67.9981 26.2817 67.7969 26.3101 67.6264 26.3338C67.2429 26.3859 66.8996 26.4711 66.5966 26.5895C66.2936 26.7079 66.0545 26.8736 65.8793 27.0866C65.7041 27.295 65.6165 27.5649 65.6165 27.8963C65.6165 28.3698 65.7893 28.7273 66.1349 28.9688C66.4806 29.2102 66.9209 29.331 67.456 29.331ZM76.7045 24.608V31H74.1335V20.0909H76.5909V21.9446H76.7188C76.9697 21.3338 77.3698 20.8485 77.919 20.4886C78.473 20.1288 79.1572 19.9489 79.9716 19.9489C80.7244 19.9489 81.3802 20.1098 81.9389 20.4318C82.5024 20.7538 82.938 21.2202 83.2457 21.831C83.5582 22.4418 83.7121 23.1828 83.7074 24.054V31H81.1364V24.4517C81.1364 23.7225 80.947 23.152 80.5682 22.7401C80.1941 22.3281 79.6757 22.1222 79.0128 22.1222C78.563 22.1222 78.1629 22.2216 77.8125 22.4205C77.4669 22.6146 77.1946 22.8963 76.9957 23.2656C76.8016 23.6349 76.7045 24.0824 76.7045 24.608ZM89.3693 31.1918C88.5123 31.1918 87.7453 30.9716 87.0682 30.5312C86.3911 30.0909 85.8561 29.4517 85.4631 28.6136C85.0701 27.7756 84.8736 26.7576 84.8736 25.5597C84.8736 24.3475 85.0724 23.3248 85.4702 22.4915C85.8726 21.6534 86.4148 21.0213 87.0966 20.5952C87.7784 20.1643 88.5384 19.9489 89.3764 19.9489C90.0156 19.9489 90.5412 20.0578 90.9531 20.2756C91.3651 20.4886 91.6918 20.7467 91.9332 21.0497C92.1747 21.348 92.3617 21.6297 92.4943 21.8949H92.6009V16.4545H95.179V31H92.6506V29.2812H92.4943C92.3617 29.5464 92.17 29.8281 91.919 30.1264C91.6681 30.42 91.3366 30.6709 90.9247 30.8793C90.5128 31.0876 89.9943 31.1918 89.3693 31.1918ZM90.0866 29.0824C90.6312 29.0824 91.0952 28.9356 91.4787 28.642C91.8622 28.3437 92.1534 27.9295 92.3523 27.3991C92.5511 26.8688 92.6506 26.2509 92.6506 25.5455C92.6506 24.84 92.5511 24.2268 92.3523 23.706C92.1581 23.1851 91.8693 22.7803 91.4858 22.4915C91.107 22.2027 90.6406 22.0582 90.0866 22.0582C89.5137 22.0582 89.0355 22.2074 88.652 22.5057C88.2685 22.804 87.9796 23.2159 87.7855 23.7415C87.5914 24.267 87.4943 24.8684 87.4943 25.5455C87.4943 26.2273 87.5914 26.8357 87.7855 27.3707C87.9844 27.901 88.2756 28.3201 88.6591 28.6278C89.0473 28.9309 89.5232 29.0824 90.0866 29.0824ZM96.9187 31V20.0909H99.4897V31H96.9187ZM98.2113 18.5426C97.8041 18.5426 97.4537 18.4077 97.1602 18.1378C96.8666 17.8632 96.7198 17.5341 96.7198 17.1506C96.7198 16.7623 96.8666 16.4332 97.1602 16.1634C97.4537 15.8887 97.8041 15.7514 98.2113 15.7514C98.6232 15.7514 98.9736 15.8887 99.2624 16.1634C99.556 16.4332 99.7028 16.7623 99.7028 17.1506C99.7028 17.5341 99.556 17.8632 99.2624 18.1378C98.9736 18.4077 98.6232 18.5426 98.2113 18.5426ZM103.705 24.608V31H101.134V20.0909H103.591V21.9446H103.719C103.97 21.3338 104.37 20.8485 104.919 20.4886C105.473 20.1288 106.157 19.9489 106.972 19.9489C107.724 19.9489 108.38 20.1098 108.939 20.4318C109.502 20.7538 109.938 21.2202 110.246 21.831C110.558 22.4418 110.712 23.1828 110.707 24.054V31H108.136V24.4517C108.136 23.7225 107.947 23.152 107.568 22.7401C107.194 22.3281 106.676 22.1222 106.013 22.1222C105.563 22.1222 105.163 22.2216 104.812 22.4205C104.467 22.6146 104.195 22.8963 103.996 23.2656C103.802 23.6349 103.705 24.0824 103.705 24.608ZM117.065 35.3182C116.142 35.3182 115.349 35.1927 114.686 34.9418C114.023 34.6955 113.491 34.3641 113.088 33.9474C112.686 33.5308 112.406 33.0691 112.25 32.5625L114.565 32.0014C114.67 32.2145 114.821 32.4252 115.02 32.6335C115.219 32.8466 115.486 33.0218 115.822 33.1591C116.163 33.3011 116.592 33.3722 117.108 33.3722C117.837 33.3722 118.441 33.1946 118.919 32.8395C119.397 32.4891 119.636 31.9115 119.636 31.1065V29.0398H119.509C119.376 29.3049 119.182 29.5772 118.926 29.8565C118.675 30.1359 118.341 30.3703 117.925 30.5597C117.513 30.7491 116.994 30.8438 116.369 30.8438C115.531 30.8438 114.771 30.6473 114.089 30.2543C113.412 29.8565 112.873 29.2647 112.47 28.4787C112.072 27.688 111.874 26.6984 111.874 25.5099C111.874 24.312 112.072 23.3011 112.47 22.4773C112.873 21.6487 113.415 21.0213 114.097 20.5952C114.778 20.1643 115.538 19.9489 116.376 19.9489C117.016 19.9489 117.541 20.0578 117.953 20.2756C118.37 20.4886 118.701 20.7467 118.947 21.0497C119.194 21.348 119.381 21.6297 119.509 21.8949H119.651V20.0909H122.186V31.1776C122.186 32.1103 121.964 32.8821 121.518 33.4929C121.073 34.1037 120.465 34.5606 119.693 34.8636C118.921 35.1667 118.045 35.3182 117.065 35.3182ZM117.087 28.8267C117.631 28.8267 118.095 28.6941 118.479 28.429C118.862 28.1638 119.153 27.7827 119.352 27.2855C119.551 26.7884 119.651 26.1918 119.651 25.4957C119.651 24.8092 119.551 24.2079 119.352 23.6918C119.158 23.1757 118.869 22.7756 118.486 22.4915C118.107 22.2027 117.641 22.0582 117.087 22.0582C116.514 22.0582 116.036 22.2074 115.652 22.5057C115.268 22.804 114.98 23.2135 114.786 23.7344C114.591 24.2505 114.494 24.8376 114.494 25.4957C114.494 26.1634 114.591 26.7481 114.786 27.25C114.984 27.7472 115.276 28.1354 115.659 28.4148C116.047 28.6894 116.523 28.8267 117.087 28.8267ZM136.385 21.3622H133.729C133.653 20.9266 133.513 20.5407 133.31 20.2045C133.106 19.8636 132.853 19.5748 132.55 19.3381C132.247 19.1013 131.901 18.9238 131.513 18.8054C131.129 18.6823 130.715 18.6207 130.27 18.6207C129.479 18.6207 128.778 18.8196 128.168 19.2173C127.557 19.6103 127.079 20.188 126.733 20.9503C126.387 21.7079 126.214 22.6335 126.214 23.7273C126.214 24.84 126.387 25.7775 126.733 26.5398C127.083 27.2973 127.562 27.8703 128.168 28.2585C128.778 28.642 129.477 28.8338 130.263 28.8338C130.698 28.8338 131.106 28.777 131.484 28.6634C131.868 28.545 132.211 28.3722 132.514 28.1449C132.822 27.9176 133.08 27.6383 133.288 27.3068C133.501 26.9754 133.648 26.5966 133.729 26.1705L136.385 26.1847C136.286 26.8759 136.07 27.5246 135.739 28.1307C135.412 28.7367 134.983 29.2718 134.453 29.7358C133.923 30.1951 133.303 30.5549 132.592 30.8153C131.882 31.071 131.094 31.1989 130.227 31.1989C128.949 31.1989 127.808 30.9029 126.804 30.3111C125.8 29.7192 125.009 28.8646 124.432 27.7472C123.854 26.6297 123.565 25.2898 123.565 23.7273C123.565 22.16 123.857 20.8201 124.439 19.7074C125.021 18.59 125.814 17.7353 126.818 17.1435C127.822 16.5516 128.958 16.2557 130.227 16.2557C131.037 16.2557 131.79 16.3693 132.486 16.5966C133.182 16.8239 133.802 17.1577 134.347 17.598C134.891 18.0336 135.339 18.5687 135.689 19.2031C136.044 19.8329 136.276 20.5526 136.385 21.3622ZM140.824 31.2202C140.132 31.2202 139.51 31.0971 138.956 30.8509C138.406 30.5999 137.971 30.2306 137.649 29.7429C137.332 29.2552 137.173 28.6539 137.173 27.9389C137.173 27.3234 137.287 26.8144 137.514 26.4119C137.741 26.0095 138.051 25.6875 138.444 25.446C138.837 25.2045 139.28 25.0223 139.772 24.8991C140.27 24.7713 140.783 24.679 141.314 24.6222C141.953 24.5559 142.471 24.4967 142.869 24.4446C143.267 24.3878 143.556 24.3026 143.735 24.1889C143.92 24.0705 144.012 23.8883 144.012 23.642V23.5994C144.012 23.0644 143.854 22.6501 143.537 22.3565C143.219 22.063 142.762 21.9162 142.166 21.9162C141.536 21.9162 141.037 22.0535 140.667 22.3281C140.303 22.6027 140.056 22.9271 139.929 23.3011L137.528 22.9602C137.717 22.2973 138.03 21.7434 138.466 21.2983C138.901 20.8485 139.434 20.5123 140.064 20.2898C140.693 20.0625 141.389 19.9489 142.152 19.9489C142.677 19.9489 143.2 20.0104 143.721 20.1335C144.242 20.2566 144.718 20.4602 145.149 20.7443C145.58 21.0237 145.925 21.4048 146.186 21.8878C146.451 22.3707 146.583 22.9744 146.583 23.6989V31H144.112V29.5014H144.027C143.87 29.8045 143.65 30.0885 143.366 30.3537C143.087 30.6141 142.734 30.8248 142.308 30.9858C141.886 31.142 141.392 31.2202 140.824 31.2202ZM141.491 29.331C142.007 29.331 142.455 29.2292 142.833 29.0256C143.212 28.8172 143.503 28.5426 143.707 28.2017C143.915 27.8608 144.02 27.4891 144.02 27.0866V25.8011C143.939 25.8674 143.802 25.929 143.608 25.9858C143.418 26.0426 143.205 26.0923 142.968 26.1349C142.732 26.1776 142.497 26.2154 142.265 26.2486C142.033 26.2817 141.832 26.3101 141.662 26.3338C141.278 26.3859 140.935 26.4711 140.632 26.5895C140.329 26.7079 140.09 26.8736 139.914 27.0866C139.739 27.295 139.652 27.5649 139.652 27.8963C139.652 28.3698 139.824 28.7273 140.17 28.9688C140.516 29.2102 140.956 29.331 141.491 29.331ZM153.616 20.0909V22.0795H147.345V20.0909H153.616ZM148.893 17.4773H151.464V27.7188C151.464 28.0644 151.516 28.3295 151.62 28.5142C151.729 28.6941 151.871 28.8172 152.047 28.8835C152.222 28.9498 152.416 28.983 152.629 28.983C152.79 28.983 152.937 28.9711 153.069 28.9474C153.207 28.9238 153.311 28.9025 153.382 28.8835L153.815 30.8935C153.678 30.9408 153.481 30.9929 153.225 31.0497C152.975 31.1065 152.667 31.1397 152.302 31.1491C151.658 31.1681 151.078 31.071 150.562 30.858C150.046 30.6402 149.636 30.304 149.333 29.8494C149.035 29.3949 148.888 28.8267 148.893 28.1449V17.4773Z" fill="#C5ABF8"/>
</svg>
