<svg width="138" height="48" viewBox="0 0 138 48" fill="none" xmlns="http://www.w3.org/2000/svg">
<path fill-rule="evenodd" clip-rule="evenodd" d="M28.2658 28.3374C25.9104 28.3374 24.002 26.3952 24.002 23.999C24.002 21.6038 25.9104 19.6606 28.2647 19.6606C30.6201 19.6606 32.5295 21.6027 32.5295 23.999C32.5295 26.3952 30.6201 28.3374 28.2658 28.3374ZM24 18.6778C24 17.5385 24.2199 16.4104 24.6494 15.356C25.0759 14.3067 25.7038 13.3504 26.4975 12.5425C27.286 11.7386 28.2269 11.0984 29.2639 10.6607C30.2979 10.225 31.4076 10 32.5274 10V18.6778H24ZM24 38V29.3212H32.5274C32.5274 30.4605 32.3075 31.5886 31.878 32.643C31.4515 33.6923 30.8236 34.6485 30.0299 35.4575C29.2414 36.2614 28.3005 36.9016 27.2625 37.3393C26.2295 37.775 25.1209 38 24 38ZM33.4939 10C35.8656 10.0419 38.1258 11.0278 39.7713 12.7368C41.4343 14.4631 42.3619 16.7704 42.3588 19.1677C42.3619 21.5649 41.4343 23.8722 39.7713 25.5995C38.1258 27.3085 35.8656 28.2944 33.4939 28.3363V10Z" fill="#C5ABF8"/>
<path fill-rule="evenodd" clip-rule="evenodd" d="M68.3994 18.4763C70.6115 20.1648 70.3814 23.9765 70.3784 24.7773H62.5597C62.5597 26.4678 63.7542 27.3617 65.0398 27.3617C66.2803 27.3617 66.5524 26.7491 66.7774 26.162H70.2577C69.6052 28.4836 68.1652 30.1813 65.1073 30.1813C61.2711 30.1813 58.9474 27.5499 58.9474 23.7883C58.9474 20.1208 61.2271 17.3943 64.9038 17.3943C66.3202 17.3943 67.4861 17.7819 68.3994 18.4763ZM62.5587 22.4956H67.2509C67.2509 20.8265 66.2803 19.9797 64.9048 19.9797C63.5292 19.9797 62.5587 20.8265 62.5587 22.4956ZM72.3696 13.0007C74.2463 13.0007 75.1626 14.1563 75.1596 15.4583V29.807H71.5514V13.0007H72.3696ZM82.1897 17.3943C85.4389 17.3943 87.243 18.7115 87.243 22.4956V29.8162H83.7279C83.7279 29.2374 83.7453 29.3846 83.7453 28.5378H83.7003C82.9558 29.4296 81.6017 30.1824 80.0676 30.1824C77.6294 30.1824 76.2764 28.7485 76.2764 26.7266C76.2764 24.3293 77.971 23.2238 80.6771 22.6603C82.1672 22.3555 83.6328 22.1192 83.6328 21.1088C83.6328 20.4031 83.1593 19.9807 82.1672 19.9807C80.8592 19.9807 80.2261 20.4972 80.1136 21.6488H76.7284C76.843 19.3456 78.422 17.3943 82.1897 17.3943ZM83.6348 25.4103V23.954C83.1828 24.1422 82.6183 24.3068 81.7837 24.495C80.3621 24.8243 79.8886 25.4359 79.8886 26.1876C79.8886 27.1735 80.4532 27.5969 81.3327 27.5969C82.8893 27.5969 83.6348 26.5619 83.6348 25.4103ZM107.453 17.3943C111.288 17.3943 113.998 20.0503 113.998 23.7873C113.998 27.5253 111.286 30.1813 107.453 30.1813C103.595 30.1813 101.272 27.5253 101.272 23.7883C101.272 20.0503 103.595 17.3943 107.453 17.3943ZM107.453 27.3617C109.033 27.3617 110.003 26.115 110.003 23.7883C110.003 21.4616 109.032 20.216 107.453 20.216C105.851 20.216 104.881 21.4606 104.881 23.7883C104.881 26.116 105.851 27.3617 107.453 27.3617ZM52.4491 17.3943C56.2638 17.3943 58.0659 19.8979 58.0659 23.4876C58.0659 27.0774 56.1104 30.1824 53.0586 30.1824C51.3108 30.1824 50.2625 29.2118 49.7972 28.5573H49.7512V32.4303C49.7532 33.2178 49.4515 33.9766 48.9095 34.5473C48.3695 35.1098 47.6382 35.4248 46.8763 35.4248H46.0254V23.8517C46.0254 20.2814 47.0041 19.2403 47.54 18.7146C48.6118 17.6632 49.3871 17.3943 52.4491 17.3943ZM52.0809 27.0027C53.5219 27.0027 54.2307 25.7601 54.2307 23.6543C54.2307 21.5496 53.5209 20.307 52.0809 20.307C50.6409 20.307 49.9312 21.5496 49.9312 23.6543C49.9312 25.7591 50.6409 27.0027 52.0809 27.0027ZM100.224 23.8517V28.4754C100.224 33.2331 97.1992 35.4238 94.2026 35.4238C90.0677 35.4238 88.1839 33.1441 88.1839 31.0302H91.5558V31.021C91.5906 31.249 92.3075 31.9107 94.2057 31.9107C95.4125 31.9107 96.8545 31.2634 96.8545 28.4744V28.3435C96.0824 29.4347 94.9379 30.1813 93.1901 30.1813C90.1383 30.1813 88.1829 27.0784 88.1829 23.4866C88.1829 19.8938 89.9859 17.3953 93.7996 17.3953C96.8627 17.3953 97.6389 17.6632 98.7107 18.7146C99.2467 19.2403 100.224 20.2824 100.224 23.8517ZM94.1678 27.0027C95.6099 27.0027 96.3176 25.7601 96.3176 23.6543C96.3176 21.5496 95.6088 20.307 94.1678 20.307C92.7278 20.307 92.0191 21.5496 92.0191 23.6543C92.0191 25.7591 92.7278 27.0027 94.1678 27.0027Z" fill="#C5ABF8"/>
</svg>
