<svg width="174" height="48" viewBox="0 0 174 48" fill="none" xmlns="http://www.w3.org/2000/svg">
<path d="M30.0517 29.1487C29.9791 29.1868 29.9083 29.2339 29.8395 29.2887H24.009V35.2863L27.6939 39H40.0974L43.7103 35.3912V24.1847L39.9664 20.5667H35.2876C35.2719 20.2235 35.3439 19.9205 35.3439 19.9205C35.8441 19.6743 36.3549 20.2949 36.3549 20.2949C36.5938 20.2747 36.8957 20.4474 36.8957 20.4474C37.2506 20.3308 38.3153 20.6059 38.3637 20.528C38.4043 19.8923 38.145 19.5046 37.9323 19.2971H43.7115V13.2118L39.5946 9H28.2937L24 13.2642V24.2344L27.7294 27.9638H31.1216C31.0438 28.163 30.9631 28.3277 30.9631 28.3277L30.0517 29.1487ZM36.3123 18.2874C36.1899 18.231 36.0282 18.2298 36.0282 18.2298L35.8043 17.988C35.8043 17.4853 35.257 17.622 35.257 17.622L35.3028 17.3485C35.4527 17.3485 35.8686 17.4078 36.3138 17.4696V18.2872L36.3123 18.2874ZM35.8912 29.9227L36.6448 29.9528V31.7704H34.8534L34.8521 31.4627L34.8717 29.8126C34.9024 29.4145 35.199 29.6515 35.199 29.6515C35.4502 29.9044 35.8912 29.9227 35.8912 29.9227ZM36.3123 16.5063C36.2908 16.4986 36.2691 16.4874 36.2476 16.4782H36.3123V16.5063ZM27.9303 27.478L24.4925 24.0404V13.4853L28.4883 9.50709H39.3817L43.2638 13.4879V18.8089H37.3284C37.2858 18.7403 37.2577 18.6865 37.2577 18.6865C37.1529 18.496 36.9688 18.4252 36.8026 18.4012V17.5362C37.2721 17.5977 37.6772 17.641 37.7252 17.5926C37.9452 17.3713 37.3781 17.0158 36.8026 16.7328V15.9956H35.1964C34.797 15.727 34.7349 15.4954 34.7349 15.4954C34.5981 14.6279 35.556 14.9821 35.556 14.9821C36.0626 15.0208 36.1674 14.7326 36.1674 14.7326C35.9717 14.1662 35.2566 13.9842 35.1426 13.9356C35.0072 13.8793 34.9856 13.8281 35.0379 13.7242C35.0738 13.6528 35.459 13.827 35.5839 13.704C35.8693 13.4171 34.8755 12.7827 34.8755 12.7827C35.5224 12.7468 34.8087 12.0855 34.8087 12.0855C34.3786 11.7451 34.5285 11.4458 34.5285 11.4458C34.9829 11.4916 34.9816 11.0157 34.9108 10.9978C34.2416 10.8447 34.3556 10.5834 34.3556 10.5834C34.3556 10.3555 34.2442 10.1193 34.2442 10.1193C34.3351 9.70945 34.15 9.79139 34.15 9.79139C33.8768 9.79139 34.0347 10.0357 34.0347 10.0357C33.936 10.4482 33.6517 10.7335 33.6517 10.7335C33.0343 10.7217 33.3564 11.3013 33.3564 11.3013L33.7401 11.2666L33.6504 11.6417C32.7599 12.0307 33.0035 12.6716 33.511 12.7305C33.5562 12.8458 33.4842 12.9492 33.4842 12.9492C32.9558 12.972 33.0612 13.1746 32.6147 13.392C32.2689 13.5634 32.2769 13.7401 32.3038 13.8653C32.3547 14.1148 32.6887 13.8771 32.6887 13.8771L32.3601 14.3236C31.2608 14.8126 32.2304 15.1322 32.2304 15.1322C33.0954 14.615 33.4332 14.8126 33.4332 14.8126C33.57 15.356 33.2988 15.741 32.9827 15.993H31.2823C31.2823 16.1483 31.2823 16.418 31.2823 16.7571C30.7498 17.1257 30.5556 17.6192 30.5556 17.6192C30.1909 17.9852 30.3728 18.1668 30.3728 18.1668C30.5541 18.2577 30.9384 18.1104 31.281 17.9407C31.281 18.2818 31.281 18.6373 31.281 18.9805C31.2528 18.9936 31.2339 19.0033 31.2339 19.0033C31.0059 19.459 30.1386 19.825 30.1386 19.825C29.0898 20.2792 29.5913 20.8751 29.5913 20.8751C29.7588 20.9033 30.6304 20.7231 31.2812 20.5824C31.2812 20.7919 31.2812 20.9609 31.2812 21.0721C31.4874 21.0721 32.0616 21.0721 32.8166 21.0721C32.6235 21.4 32.2844 21.7411 32.2844 21.7411C32.1461 22.1968 31.6001 22.3809 31.6001 22.3809C30.1399 22.745 30.2298 23.2465 30.2298 23.2465L31.3251 23.1555C31.6446 22.8824 31.8737 23.1555 31.8737 23.1555L32.2384 23.2465C32.4225 23.5202 32.1513 24.3308 32.1513 24.3308H31.4218C31.376 24.6058 30.8745 24.6032 30.8745 24.6032C30.6466 24.5142 30.3717 24.7877 30.3717 24.7877C30.2808 24.9699 29.8702 25.1531 29.8702 25.1531C29.5055 25.2421 29.7793 25.4256 29.7793 25.4256C30.0995 25.1976 30.0995 25.698 30.0995 25.698C30.0085 25.9271 29.2659 25.9167 29.2778 26.1092C29.3008 26.4496 31.7881 25.423 31.7881 25.423C32.1068 25.1533 32.3347 25.2894 32.3347 25.2894C32.5631 25.6535 31.879 26.1092 31.879 26.1092C31.6055 26.4286 31.1601 26.6043 31.1601 26.6043C30.1066 26.7746 29.9881 27.3847 29.9775 27.475C28.7842 27.478 27.9303 27.478 27.9303 27.478ZM31.925 17.5771C32.4278 17.0741 32.7926 17.5771 32.7926 17.5771C33.6601 17.8971 33.0676 18.2147 33.0676 18.2147C32.9536 18.2147 32.2833 18.5166 31.7857 18.7459V17.6642C31.8726 17.613 31.925 17.5771 31.925 17.5771ZM31.7855 16.504V16.4784H31.8588C31.8332 16.4863 31.8096 16.496 31.7855 16.504ZM32.0106 20.4179C32.8323 20.1003 32.8782 20.5573 32.8782 20.5573C32.8807 20.5601 32.8822 20.5613 32.8848 20.5652H31.7855V20.4714C31.925 20.4394 32.0106 20.4179 32.0106 20.4179ZM33.5448 29.8913C33.6934 30.1975 33.7216 31.033 33.7216 31.033V31.2033L33.7052 31.773H32.0605V30.2775C32.4227 30.0143 32.6661 29.5193 32.6661 29.5193C33.1304 29.3257 33.3953 29.5849 33.5448 29.8913ZM30.0354 27.478L31.1537 27.2488C31.2433 27.2608 31.2661 27.3511 31.2558 27.478C30.8264 27.478 30.4152 27.478 30.0354 27.478ZM31.147 30.6545C31.2838 30.4229 31.5117 30.4268 31.5117 30.4268C31.5281 30.4294 31.5425 30.4281 31.5575 30.4307C31.5575 31.0279 31.5575 31.8868 31.5575 32.281C31.8803 32.281 32.7577 32.281 33.728 32.281L33.6893 33.144C33.6788 33.5317 33.6534 34.359 33.6218 34.5947C33.5295 35.2953 33.3698 35.3936 33.2708 35.4579C33.1315 35.5456 32.9265 35.5822 32.6259 35.7106C31.8866 36.0222 31.9502 36.8013 31.5934 37.028C31.1573 37.3056 31.2771 37.2166 30.8896 37.3028C30.5006 37.3893 30.2911 37.82 30.2911 37.82H38.2146C38.1839 37.5751 38.2374 37.3538 37.3093 37.046C36.4043 36.7461 36.8613 36.5839 35.6953 35.9908C35.2755 35.7785 35.0543 35.0244 34.939 34.4599C34.8519 34.0304 34.9035 33.8341 34.9035 33.8341L34.8583 32.5336L34.857 32.281C35.8706 32.281 36.7998 32.281 37.1336 32.281C37.1336 31.9182 37.1349 30.9584 37.1349 29.9788C37.677 30.072 38.5832 30.7896 38.5832 30.7896C39.5417 31.3384 39.3598 30.7423 39.3598 30.7423C39.086 28.7834 37.9447 28.6002 37.9447 28.6002C37.2611 28.4165 37.7168 28.0053 37.7168 28.0053C38.5391 27.3677 37.5682 27.1922 37.5682 27.1922C36.9299 27.28 36.2527 26.8492 36.2527 26.8492C35.1115 25.9811 35.5287 25.4245 35.5287 25.4245C35.6196 24.8312 36.9757 25.7112 36.9757 25.7112C37.3405 26.0307 37.7052 25.7544 37.7052 25.7544C37.7503 25.5725 38.1759 25.2411 38.1759 25.2411C38.9518 24.6477 37.0798 24.5129 37.0798 24.5129C36.1893 23.9563 35.6426 23.7677 35.3781 23.0699C35.3035 22.874 35.2996 22.7437 35.2996 22.7437C35.2996 22.7437 36.702 22.874 36.78 22.8916C36.8585 22.9086 37.3641 22.965 37.351 22.7882C37.342 22.6585 37.0951 22.2762 36.5222 22.0183C36.0207 21.7942 35.5917 21.3538 35.419 21.0689C37.5738 21.0689 39.7488 21.0689 39.7488 21.0689L43.2649 24.4432V35.1325L39.8295 38.5699H27.9488L24.5002 35.082V29.7969H29.3662C28.8057 30.5683 28.4705 31.6485 28.4705 31.6485C28.4247 32.196 29.1894 31.7403 29.1894 31.7403C29.1894 31.7403 29.2659 31.6027 29.2909 31.5569C29.5621 31.0997 30.2967 31.0552 30.2967 31.0552C30.6599 31.1431 31.147 30.6545 31.147 30.6545Z" fill="#C5ABF8"/>
<path d="M34.5673 10.5544C34.5954 10.5785 34.6896 10.6512 34.9752 10.7155C35.1337 10.7514 35.2365 10.8989 35.2391 11.0736C35.2391 11.0991 35.2365 11.1273 35.2339 11.1542C35.2045 11.331 35.0703 11.6021 34.8385 11.6688C34.8535 11.6793 34.9589 11.7613 34.9589 11.7613C35.355 12.0697 35.6778 12.6503 35.3464 12.7604C35.7956 13.0675 35.9449 13.3851 35.95 13.5088C35.9632 13.7877 35.7982 13.8531 35.7688 13.8937C36.0307 14.0208 36.3189 14.2729 36.4451 14.6402L36.4784 14.7397L36.4429 14.8372C36.3776 15.0212 36.1111 15.3232 35.5329 15.2799L35.4982 15.2748L35.4642 15.2655C35.2901 15.2107 35.112 15.189 35.0406 15.252C35.0223 15.2696 34.9995 15.2965 34.9995 15.3554C34.9995 15.3782 35.0251 15.4131 35.0277 15.4384C35.0367 15.4563 35.0584 15.4896 35.0946 15.5335H37.3029V16.6627C37.7029 16.8945 38.0029 17.1453 38.0565 17.3896C38.0629 17.419 38.0677 17.4498 38.0689 17.4806C38.0689 17.5984 38.0231 17.7124 37.9335 17.8027C37.8352 17.9016 37.7279 17.935 37.3029 17.8965V18.3012C37.3208 18.3162 37.3363 18.3307 37.3541 18.3483H42.7689V13.7305L39.179 10.0389H34.5262C34.5234 10.0521 34.521 10.0639 34.5195 10.0736C34.5688 10.1484 34.64 10.5452 34.5673 10.5544Z" fill="#C5ABF8"/>
<path d="M31.6528 25.9221L31.6797 25.892L31.7117 25.8683C31.7909 25.8161 31.8603 25.7546 31.9225 25.6931C31.91 25.6982 31.8982 25.7023 31.8982 25.7023C29.5554 26.6649 29.2601 26.4787 29.149 26.4094C29.0487 26.3505 28.9898 26.2483 28.9814 26.1344C28.9814 26.1253 28.9801 26.1174 28.9801 26.1096C28.9776 25.7901 29.3318 25.6972 29.5687 25.637C29.4724 25.5598 29.3881 25.4393 29.3853 25.2965C29.384 25.2742 29.3866 25.2507 29.3892 25.2271C29.4096 25.1118 29.4939 24.96 29.7606 24.8815C29.9098 24.8135 30.0664 24.7284 30.0984 24.6787C30.1025 24.6722 30.1391 24.6185 30.1391 24.6185L30.1685 24.5881C30.2098 24.5464 30.5627 24.1731 30.9098 24.3159C31.0081 24.3159 31.0898 24.2856 31.1337 24.2557C31.1423 24.2112 31.1702 24.0383 31.1702 24.0383H31.9291C31.9801 23.8404 32.0098 23.6434 32.0083 23.5183C32.0083 23.5092 32.0057 23.5064 32.0044 23.4955C31.9035 23.4699 31.8014 23.4462 31.8014 23.4462L31.7117 23.4148L31.6528 23.3546C31.6326 23.3348 31.607 23.3067 31.5173 23.3828L31.4453 23.4449L29.9885 23.5667L29.9408 23.3034C29.9087 23.1226 29.9257 22.5032 31.5068 22.1039C31.622 22.0619 31.9266 21.9075 32.0012 21.6587L32.0175 21.6024H30.7879V20.9921C30.2223 21.1073 29.7055 21.1931 29.5451 21.1676L29.4378 21.1486L29.3677 21.0654C29.3447 21.0392 29.1797 20.8362 29.1771 20.5456C29.1771 20.4867 29.1829 20.4233 29.1989 20.3577C29.2754 20.0291 29.553 19.7613 30.0264 19.5545C30.2406 19.4635 30.5717 19.2826 30.7879 19.0923V18.4525C30.579 18.5022 30.3872 18.5063 30.2418 18.4336L30.2006 18.4121L30.1657 18.3788C30.156 18.3736 30.0356 18.2491 30.0328 18.0396C30.0315 17.8898 30.0969 17.6951 30.3038 17.47C30.353 17.3637 30.4995 17.0784 30.7876 16.7911V15.5332H33.0347C33.1209 15.41 33.176 15.2653 33.1728 15.099C33.1728 15.0939 33.1728 15.0879 33.1715 15.0812C33.0332 15.0937 32.7837 15.1513 32.3805 15.3922L32.2745 15.4571L32.1541 15.4257C32.0132 15.3898 31.5466 15.2371 31.5158 14.8562C31.5145 14.8457 31.5132 14.8345 31.5132 14.8242C31.5106 14.5171 31.8012 14.2677 32.0737 14.1322C32.0737 14.1322 32.0711 14.1309 32.0711 14.1294C32.0278 14.0784 31.9625 13.8655 31.9702 13.8315C31.9827 13.4614 32.4304 13.1799 32.8285 12.8756C32.8463 12.8586 32.8644 12.8382 32.8822 12.8206C32.8298 12.786 32.7827 12.744 32.7493 12.6823C32.7173 12.6234 32.7016 12.5657 32.7016 12.5055C32.6982 12.2763 32.676 11.941 33.1919 11.5909C33.1676 11.5576 33.1113 11.4769 33.1113 11.4769C33.0818 11.4344 32.9678 11.1554 32.9665 10.9537C32.9653 10.8791 32.9816 10.8025 33.0203 10.726C33.0831 10.6043 33.1356 10.4619 33.4629 10.4535C33.4603 10.4535 33.5461 10.4535 33.5461 10.4535C33.5551 10.4522 33.6652 10.2163 33.7444 10.0632C33.7418 10.0552 33.7418 10.0475 33.7392 10.0408H28.6907L24.9927 13.7324V23.8705L28.1393 27.0199H29.7447C29.873 26.7776 30.2057 26.4096 31.064 26.2655C31.0745 26.2627 31.4479 26.1645 31.6528 25.9221Z" fill="#C5ABF8"/>
<path d="M29.5466 31.7128L29.4098 31.9562L29.341 31.9969C29.1604 32.1055 28.7053 32.336 28.3969 32.1435C28.3124 32.0885 28.1776 31.9642 28.1728 31.7063C28.1728 31.6814 28.1741 31.6564 28.1761 31.6291L28.1786 31.5988L28.1879 31.5674C28.2212 31.4575 28.3999 30.9128 28.6986 30.3313H24.998V34.9134L28.1507 38.1151H29.8242L30.0253 37.6974C30.0535 37.6424 30.3107 37.137 30.8227 37.0243L31.0494 36.9811C31.1554 36.9641 31.1554 36.9641 31.433 36.7873C31.5175 36.7351 31.6059 36.5897 31.6786 36.4116C31.822 36.062 31.9706 35.6742 32.5074 35.4467C32.6749 35.376 32.7255 35.3443 32.8661 35.3078C32.9564 35.2843 33.0743 35.236 33.1089 35.2162C33.1483 35.1914 33.251 35.1271 33.3263 34.5641C33.3452 34.4173 33.3734 34.0704 33.3814 33.6474C33.3814 33.6474 33.3904 33.142 33.3904 33.1366C33.3904 33.1366 33.3917 33.1093 33.3917 33.1078C33.3891 33.1106 33.3635 33.1446 33.3635 33.1446L33.3732 32.8173H31.0642V31.1109C30.8618 31.2537 30.5844 31.3926 30.3068 31.3584C30.139 31.3657 29.6978 31.4534 29.5466 31.7128Z" fill="#C5ABF8"/>
<path d="M38.5015 37.7323L38.546 38.1146H39.6262L42.7696 34.9641V24.6847L39.5394 21.6063H36.3684C36.4555 21.6626 36.5439 21.7161 36.6409 21.7587C37.2641 22.0364 37.6237 22.4895 37.6433 22.7757C37.6433 22.7822 37.6433 22.7888 37.6433 22.7966C37.6446 22.9151 37.5869 23.0611 37.4153 23.1415C37.2975 23.1979 36.8601 23.2686 36.6388 23.1736C36.4364 23.152 36.088 23.1172 35.711 23.0839C35.8977 23.4604 36.2087 23.6574 36.7422 23.9725C36.7422 23.9725 37.0775 24.1742 37.1729 24.2316C37.7884 24.2841 38.5138 24.4333 38.6381 24.8512C38.6486 24.889 38.657 24.9335 38.657 24.978C38.6596 25.1195 38.5936 25.2976 38.3553 25.4798C38.1901 25.6118 38.0136 25.7849 37.9854 25.8477C37.9781 25.8686 37.9559 25.9393 37.9559 25.9393L37.882 25.9972C37.6927 26.1385 37.2329 26.3062 36.8095 25.9617C36.431 25.7144 35.982 25.5191 35.8091 25.518C35.805 25.5363 35.7992 25.5572 35.7992 25.5572L35.771 25.5991C35.7553 25.6266 35.7461 25.6647 35.7461 25.7116C35.7487 25.8896 35.8908 26.204 36.4218 26.6124C36.482 26.6464 37.0347 26.9754 37.5263 26.9058L37.5721 26.898L37.6192 26.907C37.7207 26.9253 38.2276 27.0367 38.3256 27.4335C38.3884 27.6939 38.2491 27.9638 37.9151 28.2281C37.9033 28.2414 37.8908 28.2543 37.8818 28.27C37.9073 28.2832 37.9497 28.2989 38.0159 28.3186C38.2065 28.3591 39.366 28.6894 39.6501 30.7005C39.6908 30.8629 39.6744 31.0829 39.5015 31.2216C39.2187 31.4483 38.7839 31.2506 38.4383 31.0515L38.4194 31.041L38.4011 31.0253C38.1661 30.8382 37.8871 30.6522 37.6338 30.5068V32.8141H35.1631L35.199 33.8435V33.859C35.199 33.8631 35.1519 34.0229 35.2285 34.4065C35.3667 35.0796 35.5867 35.6112 35.8308 35.7357C36.4687 36.0592 36.6689 36.2215 36.828 36.4086C36.9557 36.5594 37.031 36.6497 37.4048 36.7716C38.2764 37.062 38.459 37.3252 38.5015 37.7323Z" fill="#C5ABF8"/>
<path d="M35.7622 25.6092L35.7699 25.5989V25.5963L35.7622 25.6092Z" fill="#C5ABF8"/>
<path d="M76.5355 27.44C74.3134 28.2572 74.0547 29.9477 74.0547 30.9023C74.0547 31.7141 74.3224 34.3633 77.8116 34.3633C79.4301 34.3633 80.4653 33.6246 81.0329 33.0341C81.2699 33.8513 81.9808 34.3358 83.0036 34.3358C84.1846 34.3358 84.8474 33.7427 85.5446 32.9031L85.6855 32.7212L85.2618 32.238L85.0543 32.416C84.9496 32.5051 84.8218 32.5444 84.6332 32.5444C83.8784 32.5444 83.733 31.8401 83.733 30.9298C83.733 30.5683 83.7468 29.9752 83.7625 29.2918C83.7853 28.2991 83.8122 27.063 83.8122 25.9563C83.8122 24.6955 83.7709 23.4899 83.23 22.6185C82.5047 21.5192 81.3372 21.0078 79.5426 21.0078C76.7789 21.0078 75.5185 22.7095 75.2022 23.7112L75.1381 23.9095L75.7831 24.2959L75.9224 24.0327C75.9276 24.0194 76.642 22.6925 78.3817 22.6925C79.5643 22.6925 80.437 23.2635 80.7428 24.1729C80.8948 24.6482 80.8948 24.8314 80.8948 25.5989V26.0075C79.3189 26.4998 78.8286 26.5968 76.5355 27.44ZM80.8976 31.955C80.2081 32.4487 79.4198 32.5496 78.8686 32.5496C77.1964 32.5496 76.9469 31.3801 76.9469 30.6849C76.9469 29.7944 77.3346 29.0363 78.0712 28.6617C78.6021 28.3961 79.1836 28.1092 80.8978 27.5946V31.955H80.8976Z" fill="#C5ABF8"/>
<path d="M52.2571 33.7203C53.5627 34.1446 54.8328 34.3276 56.5037 34.3276C58.3723 34.3276 62.7185 33.8248 62.7185 29.1606C62.7185 26.4066 61.1548 25.3619 59.4938 24.254L57.5441 22.963C55.845 21.8409 55.0685 21.3261 55.0685 19.811C55.0685 18.7085 55.4009 17.2373 58.2583 17.2373C59.4736 17.2373 60.6226 17.4829 61.1417 18.002C61.5183 18.3824 61.718 18.8749 61.7649 19.5583L61.7806 19.811H62.4342L62.4139 19.4084C62.3922 18.8682 62.4021 18.3437 62.4021 17.7414C62.4021 16.9799 62.4204 16.2773 62.4204 16.2709L62.429 16.0412L62.1965 15.9999C62.1258 15.9909 60.4202 15.6995 58.2045 15.6995C52.8102 15.6995 52.393 19.3229 52.393 20.4306C52.393 22.6979 53.4818 23.8353 55.6209 25.2494L57.1603 26.2774L57.3932 26.4372C58.8512 27.4191 59.9073 28.1315 59.9073 29.8367C59.9073 31.8321 58.7654 32.7594 56.3115 32.7594C55.142 32.7594 53.8818 32.39 53.3343 31.7706C52.9773 31.3687 52.7842 30.7977 52.7509 30.2175L52.7377 29.9479L51.9775 29.9464L52.015 30.5906C52.0418 30.9887 52.0687 31.4758 52.0687 32.7237V33.6575L52.2571 33.7203Z" fill="#C5ABF8"/>
<path d="M72.7969 22.9753V21.3822H68.4159V18.4869H67.8542L67.5647 18.9794C67.5497 19.0018 66.694 20.6228 65.4564 21.5819C65.1067 21.8525 64.805 22.0751 64.0147 22.4024L63.8472 22.471V22.9753H65.5476L65.537 23.8729C65.5153 25.7849 65.497 27.4346 65.497 29.4907C65.497 30.2371 65.497 31.4781 65.7007 32.1119C66.1871 33.7018 67.2923 34.4104 69.2821 34.4104C71.6208 34.4104 72.6128 33.1164 72.6587 33.0654L72.77 32.9411L72.5449 32.416L72.2791 32.5523C72.2739 32.5601 71.5916 32.9031 70.7038 32.9031C68.7912 32.9031 68.4161 31.7534 68.4161 29.7317V22.9768H72.7971V22.9753H72.7969Z" fill="#C5ABF8"/>
<path d="M96.6628 30.9206C96.6324 31.7758 96.6077 32.7644 96.1914 33.1833C95.9688 33.4046 95.623 33.5448 95.1241 33.6233L94.8925 33.6521V34.2481L95.1897 34.2205C96.338 34.1106 97.1604 34.1106 98.1111 34.1106C98.944 34.1106 99.7401 34.1551 100.666 34.2022L101.304 34.2349V33.6339L101.05 33.6154C100.68 33.5919 100.255 33.4401 100.054 33.2541C99.655 32.8823 99.5726 32.2851 99.5726 30.161V26.4056C99.5726 25.777 99.5294 24.5908 99.4051 24.1037C98.9741 22.1362 97.4604 21.0538 95.1387 21.0538C93.3656 21.0538 92.059 21.8061 91.4093 22.2887V21.27L91.1564 21.1207L91.0084 21.1867C90.8514 21.2616 90.4115 21.5246 89.6545 21.6437C88.6644 21.8368 87.7261 21.8878 87.3293 21.8878C87.2474 21.8878 87.1846 21.8878 87.1334 21.8813L86.8427 21.8596V22.5942L87.0848 22.6211C87.1169 22.6224 87.1534 22.6276 87.1909 22.6291C87.5018 22.6506 88.0837 22.6906 88.3465 23.0704C88.5775 23.4134 88.6012 24.0931 88.6012 25.6748V29.3518C88.6012 31.5451 88.5777 32.6414 88.179 33.0866C87.7984 33.5145 87.2537 33.5999 87.0384 33.6182L86.7915 33.6364V34.2493L87.0797 34.2205C88.2326 34.1132 89.1042 34.1132 90.0364 34.1132C90.8431 34.1132 91.6181 34.1551 92.5086 34.1997L93.1949 34.2362V33.6352L92.942 33.6169C92.5688 33.5919 92.1497 33.4401 91.9469 33.2541C91.5499 32.8846 91.4637 32.2864 91.4637 30.1623V23.4054C92.0046 23.1265 92.7245 22.8639 93.8731 22.8639C95.5441 22.8639 96.4109 23.6385 96.6045 25.3015C96.7092 26.2849 96.7092 27.2828 96.7092 28.2441C96.7092 28.9836 96.7092 29.9948 96.6868 30.4752C96.6733 30.6324 96.6653 30.7791 96.6628 30.9206Z" fill="#C5ABF8"/>
<path d="M108.163 15.8683C108.503 15.5251 109.056 15.4047 109.459 15.4047C110.429 15.4047 111.138 15.8309 111.628 16.9225L111.696 17.0836L112.003 17.0795L113.279 15.3053L113.241 15.0328L113.141 14.9528C112.446 14.3892 111.256 13.972 110.001 13.972C107.082 13.972 105.346 15.3188 104.837 17.9749C104.682 18.7738 104.648 20.2463 104.645 21.3861C104.315 21.6448 103.865 21.8837 103.137 22.1835L102.969 22.2562V22.9764H104.645V29.3541C104.645 31.5474 104.627 32.6317 104.228 33.0771C103.848 33.5065 103.304 33.5917 103.085 33.6048L102.834 33.6272V34.2517L103.132 34.2229C104.283 34.1154 105.368 34.1154 106.322 34.1154C107.084 34.1154 108.136 34.1493 109.553 34.2229L109.839 34.2399V33.5523H109.566C109.244 33.5523 108.148 33.513 107.792 32.9711C107.565 32.6384 107.51 31.8134 107.51 30.1139V22.9777H110.378V21.3848H107.511V18.8975C107.511 17.2534 107.605 16.4221 108.163 15.8683Z" fill="#C5ABF8"/>
<path d="M117.631 34.4639C122.462 34.4639 124.176 30.7528 124.176 27.5683C124.176 23.4742 121.83 21.0269 117.902 21.0269C113.07 21.0269 111.36 24.74 111.36 27.9234C111.36 32.0192 113.707 34.4639 117.631 34.4639ZM115.972 23.0985C116.42 22.7108 117.034 22.5151 117.793 22.5151C120.959 22.5151 121.118 26.8402 121.118 27.7072C121.118 29.9517 120.597 31.5309 119.565 32.3951C119.11 32.7829 118.494 32.9792 117.742 32.9792C114.572 32.9792 114.414 28.6528 114.414 27.7885C114.417 25.5438 114.938 23.9632 115.972 23.0985Z" fill="#C5ABF8"/>
<path d="M131.5 23.2174C132.668 23.2174 133.272 23.7798 133.572 24.2514L133.653 24.3757H134.174L135.258 22.3931V21.9878L135.17 21.9045C134.64 21.4306 133.912 21.1891 133.015 21.1891C131.636 21.1891 130.657 21.8058 130.04 22.3865V21.2695L129.814 21.1497L129.664 21.217C129.447 21.3205 128.911 21.4809 128.287 21.5843C127.297 21.7787 126.36 21.8286 125.961 21.8286C125.88 21.8286 125.797 21.8273 125.751 21.822L125.474 21.8147V22.5938L125.726 22.6207C125.752 22.622 125.788 22.6271 125.825 22.6286C126.138 22.6501 126.718 22.6901 126.981 23.0699C127.211 23.4129 127.229 24.0927 127.229 25.6744V29.3513C127.229 31.5446 127.213 32.6014 126.814 33.0468C126.438 33.4764 125.888 33.5627 125.672 33.5773L125.419 33.5969V34.2489L125.718 34.2201C126.867 34.1128 127.949 34.1128 128.908 34.1128C129.664 34.1128 130.721 34.1467 132.137 34.2201L132.422 34.2371V33.5235H132.154C131.828 33.5235 130.741 33.4816 130.377 32.9435C130.155 32.6108 130.099 31.8106 130.099 30.1124V23.6293C130.505 23.3503 130.966 23.2174 131.5 23.2174Z" fill="#C5ABF8"/>
<path d="M149.491 33.1048C149.186 33.0799 148.626 33.0184 148.361 32.6334C148.133 32.3242 148.112 31.3528 148.112 29.784V19.2983C148.112 17.5966 148.123 15.3319 148.209 14.27L148.22 14.1444L148 14.0115L147.871 14.0612C147.609 14.1573 147.107 14.27 146.599 14.352C145.391 14.5909 143.905 14.7154 143.844 14.7154H143.571L143.515 15.2909L143.76 15.3143C143.788 15.3178 143.823 15.3201 143.862 15.3216C144.168 15.3459 144.733 15.3885 144.993 15.7642C145.221 16.1072 145.243 16.9644 145.243 18.5678V21.3007C144.69 21.1822 143.765 21.0564 142.73 21.0564C139.907 21.0564 137.668 22.3934 136.592 24.7282C136.135 25.735 135.89 26.932 135.89 28.1892C135.89 31.9865 138.173 34.4353 141.704 34.4353C143.396 34.4353 144.66 33.6994 145.3 33.228V34.3149L145.644 34.4302L145.761 34.3779C145.989 34.2732 146.447 34.1827 147.073 34.0805C148.162 33.8947 149.283 33.8173 149.571 33.8173H149.841V33.1257L149.597 33.1154C149.568 33.11 149.532 33.1074 149.491 33.1048ZM145.242 32.073C144.505 32.5313 143.655 32.5992 143.202 32.5992H143.084C139.349 32.5992 138.943 29.2717 138.943 27.8406C138.943 24.3129 140.168 22.5955 142.674 22.5955C144.252 22.5955 145.033 23.2501 145.242 23.4591V32.073Z" fill="#C5ABF8"/>
</svg>
