<svg width="163" height="48" viewBox="0 0 163 48" fill="none" xmlns="http://www.w3.org/2000/svg">
<g clip-path="url(#clip0_22425_25054)">
<mask id="mask0_22425_25054" style="mask-type:luminance" maskUnits="userSpaceOnUse" x="24" y="6" width="36" height="36">
<path d="M49.9902 5.99998L24 15.4597L33.4597 41.4499L59.4499 31.9902L49.9902 5.99998Z" fill="white"/>
</mask>
<g mask="url(#mask0_22425_25054)">
<path d="M33.0478 22.2999C33.6125 21.5238 34.1408 20.6224 34.701 19.6661C35.5581 18.202 36.5297 16.5426 37.8481 15.0126C37.9608 14.8826 38.0757 14.7527 38.1929 14.6251L36.8187 10.881C36.2007 11.452 35.6212 12.0496 35.0814 12.6759C33.5495 14.4542 32.4894 16.2626 31.5547 17.8605C31.0423 18.7367 30.5583 19.5637 30.0992 20.1925C28.6403 22.1946 26.3062 23.6285 23.8442 24.0337L25.0999 27.4551C25.6431 27.3366 26.1799 27.1817 26.7058 26.9925C29.2218 26.0912 31.4957 24.4284 33.0478 22.2999Z" fill="#C5ABF8"/>
<path d="M58.6427 21.8513C58.5708 21.6567 55.1462 22.6309 54.799 22.7155C52.7673 23.2131 50.9253 24.2481 49.4862 25.7593C47.9026 27.4215 47.1901 29.618 45.8547 31.4524C45.5312 31.896 45.1945 32.3299 44.8445 32.7554L46.2623 36.6186C47.4431 35.366 48.6171 34.0624 49.5519 32.6142C50.4368 31.2425 51.0425 29.7018 52.0678 28.4186C52.9556 27.3081 54.2343 26.6373 55.5739 26.2066C56.0377 26.0574 59.8138 25.0539 59.9034 25.2606C59.4262 24.1609 59.0583 22.983 58.6427 21.8513Z" fill="#C5ABF8"/>
<path d="M38.2998 26.0525C39.0523 25.0192 39.6877 23.9346 40.3033 22.884C41.0582 21.5954 41.8389 20.2629 42.7758 19.1738C44.2657 17.4454 46.4026 16.0218 49.1266 14.9453C51.1341 14.1506 53.2943 13.6014 55.4393 13.1134L54.1876 9.70679C52.0434 10.2016 49.8754 10.7729 47.773 11.6038C44.4978 12.901 41.8853 14.6624 40.0081 16.8382C38.8565 18.1731 37.9909 19.6504 37.1547 21.0794C36.5846 22.0521 35.9971 23.0568 35.3489 23.945C33.4769 26.5138 30.7618 28.5317 27.7071 29.6283C27.1708 29.8204 26.6256 29.9839 26.075 30.1168L27.3224 33.5165C27.8714 33.3711 28.4145 33.203 28.9485 33.0108C32.6839 31.6712 36.005 29.2 38.2998 26.0525Z" fill="#C5ABF8"/>
<path d="M47.7023 23.337C48.5047 22.4061 49.7936 21.5849 51.5324 20.8975C53.3477 20.1798 55.4408 19.6816 57.6646 19.1859L56.4141 15.7781C54.2086 16.2724 52.118 16.7888 50.18 17.5561C47.8877 18.463 46.1232 19.6219 44.9345 21.0002C44.1632 21.8953 43.4809 23.0611 42.7569 24.2982C42.1375 25.3543 41.4368 26.5519 40.6008 27.6984C37.9774 31.2983 34.1834 34.1232 29.9175 35.6539C29.3835 35.845 28.8425 36.0165 28.2944 36.1676L29.5378 39.5581C30.0838 39.4014 30.6238 39.2286 31.1578 39.0364C36.1021 37.2625 40.5021 33.9843 43.5494 29.8046C44.492 28.5121 45.242 27.2311 45.9046 26.0993C46.5435 25.0126 47.1445 23.9827 47.7023 23.337Z" fill="#C5ABF8"/>
</g>
<path d="M138.285 20.8184L135.496 30.5766H131.868L130.371 23.899H130.297L128.818 30.5766H125.246L122.457 20.8184H125.279L127.143 27.6436H127.216L128.969 20.8184H131.847L133.618 27.6436H133.691L135.554 20.8184H138.285Z" fill="#C5ABF8"/>
<path d="M116.695 20.5969C119.775 20.5969 121.675 22.5707 121.675 25.7066C121.675 28.8426 119.775 30.8163 116.695 30.8163C113.596 30.8163 111.696 28.8426 111.696 25.7066C111.696 22.5707 113.596 20.5969 116.695 20.5969ZM116.695 28.8795C118.133 28.8795 119.037 27.8095 119.037 25.7066C119.037 23.6037 118.133 22.5338 116.695 22.5338C115.237 22.5338 114.334 23.6037 114.334 25.7066C114.334 27.8095 115.237 28.8795 116.695 28.8795Z" fill="#C5ABF8"/>
<path d="M107.855 17.2214H110.545V30.5768H107.855V17.2214Z" fill="#C5ABF8"/>
<path d="M105.445 18.9369C104.781 18.9369 104.301 19.1398 104.301 19.9883V20.8184H106.33V22.5525H104.301V30.5767H101.719V22.5525H100.169V20.8184H101.719V19.6932C101.719 17.5903 103.084 17 104.984 17C105.538 17 106.239 17.0738 106.589 17.1291V19.0107C106.294 18.9738 105.814 18.9369 105.445 18.9369Z" fill="#C5ABF8"/>
<path d="M99.1882 20.8184L95.6283 30.5766C94.4662 33.7864 93.2671 34.2106 91.5885 34.2106C90.9429 34.2106 90.3895 34.1737 90.039 34.1368V32.0154C90.2788 32.0339 90.6108 32.0892 91.1826 32.0892C92.0681 32.0892 92.4186 31.7572 92.806 30.798L92.9351 30.5028L89.0244 20.8184H92.1941L94.1894 27.5145H94.2632L96.0372 20.8184H99.1882Z" fill="#C5ABF8"/>
<path d="M81.1188 22.1095H81.1926C81.8566 21.1688 82.8897 20.5969 84.2732 20.5969C86.1547 20.5969 87.8703 21.6853 87.8703 24.1571V30.5765H85.1402V24.8212C85.1402 23.2532 84.4761 22.6814 83.2955 22.6814C82.2256 22.6814 81.2294 23.5299 81.2294 25.2639V30.5765H78.647V20.8183H81.1188V22.1095Z" fill="#C5ABF8"/>
<path d="M74.803 20.8184H77.4931V30.5766H74.803V20.8184Z" fill="#C5ABF8"/>
<path d="M73.6506 19.7485H69.3895V30.5767H66.6225V19.7485H62.3613V17.4058H73.6506V19.7485Z" fill="#C5ABF8"/>
<path d="M74.803 17.2222H77.4969V19.4529H74.803V17.2222Z" fill="#C5ABF8"/>
</g>
<defs>
<clipPath id="clip0_22425_25054">
<rect width="115" height="35.6646" fill="white" transform="translate(24 6.16772)"/>
</clipPath>
</defs>
</svg>
