<svg width="181" height="48" viewBox="0 0 181 48" fill="none" xmlns="http://www.w3.org/2000/svg">
<path d="M146.141 39.5C147.413 39.5 148.608 38.5583 150.998 33.5429C152.626 29.9792 153.847 26.8226 155.118 23.5899C155.525 22.5458 155.728 22.3423 156.364 22.1643C156.822 22.0369 157 21.8589 157 21.5786C157 21.3238 156.847 21.0946 156.466 21.0946C155.906 21.0946 155.245 21.1714 154.482 21.1714C153.694 21.1714 153.109 21.0946 152.524 21.0946C152.168 21.0946 151.99 21.2988 151.99 21.553C151.99 21.8327 152.168 22.0113 152.575 22.1387C153.694 22.4441 153.796 22.928 153.363 24.2518C152.676 26.3393 151.914 28.35 150.744 31.0232C149.752 28.5536 148.913 26.3387 148.074 23.8446C147.768 22.8768 147.871 22.4696 149.065 22.1387C149.523 22.0113 149.676 21.8589 149.676 21.5792C149.676 21.2988 149.473 21.0946 149.116 21.0946C148.353 21.0946 147.565 21.1714 146.523 21.1714C145.403 21.1714 144.59 21.0946 143.802 21.0946C143.42 21.0946 143.242 21.3238 143.242 21.5786C143.242 21.8839 143.394 22.0369 143.852 22.1643C144.437 22.3167 144.615 22.5202 144.971 23.4369C146.37 26.925 147.616 30.0048 149.244 34.1798C148.15 36.1905 147.336 36.6488 146.243 36.8524C145.353 37.0054 144.768 37.5655 144.768 38.278C144.768 38.8637 145.175 39.5 146.141 39.5ZM138.207 22.1131C139.834 22.1131 140.572 23.5893 140.572 24.175C140.572 24.3786 140.47 24.5321 140.242 24.5827C138.868 24.9387 137.215 25.2696 135.486 25.5756C135.791 23.2589 136.935 22.1131 138.207 22.1131ZM138.385 33.5685C140.597 33.5685 142.123 32.4738 143.039 31.3792C143.445 30.8958 143.191 30.4625 142.784 30.4625C142.682 30.4625 142.581 30.5137 142.479 30.5649C141.411 31.2268 140.572 31.5827 139.427 31.5827C136.91 31.5827 135.41 29.3685 135.41 26.8482V26.797C137.902 26.4411 140.343 25.9571 142.861 25.3714C143.191 25.2952 143.42 25.0405 143.344 24.6589C142.937 22.8256 141.258 20.8149 138.359 20.8149C135.46 20.8149 132.79 23.5131 132.79 27.4083C132.79 31.0738 135.155 33.5685 138.385 33.5685ZM126.509 33.3649C127.348 33.3649 128.238 33.2887 129.255 33.2887C130.273 33.2887 131.214 33.3649 132.053 33.3649C132.434 33.3649 132.612 33.1357 132.612 32.881C132.612 32.6012 132.434 32.3464 132.002 32.2958C130.858 32.1685 130.654 32.0411 130.654 31.5065C130.603 29.0375 130.603 26.7208 130.603 24.4298C130.603 22.3167 130.603 20.0006 130.679 14.8583C130.679 14.5274 130.476 14.4506 130.196 14.5274C129.001 14.827 127.786 15.0396 126.56 15.1637C126.127 15.1893 125.95 15.3929 125.95 15.647C125.95 15.9268 126.127 16.131 126.611 16.2072C127.729 16.4107 127.857 16.5381 127.882 17.1238C127.933 19.6952 127.933 22.1131 127.933 24.4298C127.933 26.7208 127.933 29.0369 127.882 31.5071C127.857 32.0411 127.704 32.1429 126.56 32.2958C126.102 32.3464 125.95 32.6012 125.95 32.8815C125.95 33.1357 126.127 33.3649 126.509 33.3649ZM120.762 22.1131C122.389 22.1131 123.127 23.5893 123.127 24.175C123.127 24.3786 123.025 24.5321 122.796 24.5827C121.423 24.9387 119.77 25.2696 118.041 25.5756C118.346 23.2589 119.49 22.1131 120.762 22.1131ZM120.94 33.5685C123.152 33.5685 124.678 32.4738 125.593 31.3792C126.001 30.8958 125.746 30.4625 125.339 30.4625C125.238 30.4625 125.135 30.5137 125.034 30.5649C123.966 31.2268 123.127 31.5827 121.982 31.5827C119.464 31.5827 117.964 29.3685 117.964 26.8482V26.797C120.456 26.4411 122.898 25.9571 125.416 25.3714C125.746 25.2952 125.975 25.0405 125.898 24.6589C125.492 22.8256 123.814 20.8149 120.914 20.8149C118.015 20.8149 115.345 23.5131 115.345 27.4083C115.345 31.0738 117.71 33.5685 120.94 33.5685ZM102.579 33.3649C103.418 33.3649 104.257 33.2887 105.274 33.2887C106.292 33.2887 107.156 33.3649 107.996 33.3649C108.377 33.3649 108.555 33.1357 108.555 32.881C108.555 32.6012 108.403 32.3976 107.945 32.2958C106.801 32.1173 106.673 32.0411 106.673 31.5065C106.648 30.6923 106.648 29.8774 106.648 29.0881C107.209 28.7296 107.76 28.3563 108.301 27.9685C109.369 29.572 110.462 31.2268 111.53 32.7542C111.861 33.2375 112.039 33.3393 112.573 33.3393C113.336 33.3393 114.277 33.3143 115.37 33.3393C115.752 33.3393 115.956 33.1107 115.956 32.8304C115.956 32.5756 115.853 32.3464 115.319 32.2958C114.608 32.2196 114.226 31.8631 113.616 31.0738C112.548 29.6226 111.429 27.9679 110.386 26.3643C110.386 26.3393 110.411 26.3393 110.437 26.3137C112.395 24.6077 113.692 23.3095 114.658 22.0369C114.785 21.8583 114.862 21.706 114.862 21.553C114.862 21.2476 114.658 21.0441 114.251 21.0696C113.056 21.1708 111.963 21.1708 110.615 21.0946C110.081 21.0696 109.928 21.3238 109.928 21.5786C109.928 21.8077 110.106 22.0625 110.462 22.1387L110.971 22.2661C111.81 22.4696 111.81 23.1571 110.767 24.2518C109.648 25.4482 108.199 26.5935 106.622 27.5863V24.4298C106.622 22.3167 106.622 20.0006 106.698 14.8583C106.698 14.5274 106.495 14.4506 106.216 14.5274C105.02 14.827 103.805 15.0396 102.579 15.1637C102.146 15.1893 101.969 15.3929 101.969 15.647C101.969 15.9268 102.146 16.131 102.63 16.2072C103.748 16.4107 103.876 16.5381 103.901 17.1238C103.952 19.6952 103.952 22.1131 103.952 24.4298C103.952 26.7208 103.952 29.0369 103.901 31.5071C103.876 32.0411 103.774 32.1179 102.63 32.2958C102.172 32.3976 102.019 32.6012 102.019 32.8815C102.019 33.1357 102.198 33.3649 102.579 33.3649ZM93.1443 33.3649C93.9578 33.3649 94.823 33.2887 95.8142 33.2887C96.8061 33.2887 97.9507 33.3649 98.7642 33.3649C99.1204 33.3649 99.2988 33.1357 99.2988 32.881C99.2988 32.6012 99.1459 32.372 98.6375 32.2958C97.3406 32.1429 97.2134 32.0161 97.1878 31.481C97.1367 30.081 97.1367 28.8339 97.1367 27.2048V25.0655C98.4591 23.3095 99.0698 22.9524 99.7311 22.9524C100.519 22.9524 101.18 23.9452 101.511 23.9452C101.689 23.9452 101.791 23.8946 101.918 23.6399C102.172 23.131 102.427 22.622 102.681 22.0875C102.833 21.7566 102.757 21.578 102.452 21.3744C101.841 20.9673 101.206 20.6869 100.57 20.6869C99.451 20.6869 98.4336 21.6292 97.1622 23.7167C97.1622 22.8762 97.1878 21.9601 97.2134 20.9417C97.2134 20.6107 97.01 20.5345 96.7299 20.6107C95.4075 20.9673 94.1617 21.1702 93.0932 21.2476C92.6609 21.2982 92.5087 21.4762 92.5087 21.756C92.5087 22.0363 92.6609 22.2399 93.1443 22.3161C94.2634 22.5196 94.3907 22.647 94.4156 23.2071C94.4668 24.4804 94.4668 25.8292 94.4668 27.2042C94.4668 28.8333 94.4668 30.0804 94.4156 31.4804C94.3907 32.0155 94.314 32.1423 93.1949 32.2952C92.7376 32.397 92.5848 32.6006 92.5848 32.881C92.5848 33.1351 92.7632 33.3643 93.1443 33.3643V33.3649ZM86.9649 22.1131C88.5924 22.1131 89.3298 23.5893 89.3298 24.175C89.3298 24.3786 89.2281 24.5321 88.9991 24.5827C87.6261 24.9387 85.9731 25.2696 84.2439 25.5756C84.5489 23.2589 85.6936 22.1131 86.9649 22.1131ZM87.1427 33.5685C89.3553 33.5685 90.8812 32.4738 91.7969 31.3792C92.2036 30.8958 91.9491 30.4625 91.5424 30.4625C91.4407 30.4625 91.339 30.5137 91.2373 30.5649C90.1694 31.2268 89.3298 31.5827 88.1857 31.5827C85.668 31.5827 84.1678 29.3685 84.1678 26.8482V26.797C86.6599 26.4411 89.1014 25.9571 91.6185 25.3714C91.9491 25.2952 92.178 25.0405 92.1019 24.6589C91.6952 22.8256 90.0166 20.8149 87.1177 20.8149C84.2183 20.8149 81.5484 23.5131 81.5484 27.4083C81.5484 31.0738 83.9133 33.5685 87.1427 33.5685ZM71.6306 31.9649C70.8676 31.7863 70.6137 31.5321 70.5882 30.6155C70.537 28.681 70.537 27.1792 70.537 24.4298V24.3792C74.86 24.2768 77.1238 25.2441 77.1238 28.4012C77.1238 30.2595 75.8013 32.1179 73.1308 32.1179C72.4446 32.1179 72.0123 32.0667 71.6306 31.9649ZM70.5882 17.7857C70.5882 17.2762 70.7148 17.0726 71.0966 16.9202C71.4016 16.8185 71.8595 16.7673 72.5713 16.7673C74.6822 16.7673 75.9791 17.9131 75.9791 20.153C75.9791 21.4006 75.5724 22.4446 74.9111 23.2333C73.6143 23.0042 72.139 22.928 70.537 23.0042C70.537 20.9929 70.537 19.5423 70.5882 17.7857ZM73.5375 33.5179C77.7594 33.5179 80.2771 31.0482 80.2771 28.172C80.2771 25.9066 78.9035 24.4554 76.6403 23.6661C77.9117 22.9024 79.0052 21.5024 79.0052 19.822C79.0052 17.0982 76.742 15.4179 72.7746 15.4179C71.071 15.4179 70.6637 15.5708 69.0618 15.5708C67.4087 15.5708 66.3919 15.4435 65.7306 15.4435C65.3239 15.4435 65.1205 15.6726 65.1205 16.0036C65.1205 16.2833 65.2728 16.5131 65.8067 16.6149C67.1803 16.8185 67.511 17.0982 67.511 17.7857C67.5365 19.9494 67.5615 21.5786 67.5615 24.4298C67.5615 27.281 67.5615 28.9613 67.511 31.125C67.4854 31.8631 67.2315 32.0667 65.8579 32.194C65.3239 32.2702 65.1711 32.525 65.1711 32.8048C65.1711 33.1357 65.3744 33.3649 65.7818 33.3649C66.7736 33.3649 67.7143 33.3143 69.0618 33.3143C70.3337 33.3143 71.5033 33.5179 73.5375 33.5179ZM52.8634 33.6702C55.0249 33.6702 57.0341 33.0595 58.9411 31.8119C59.4751 31.481 59.6279 31.125 59.6279 30.7685C59.6279 30.081 59.6785 29.4446 59.6529 28.8845C59.6279 28.4518 59.4246 28.1976 59.0684 28.1976C58.7889 28.1976 58.5849 28.3756 58.4833 28.7571C57.822 30.972 55.8383 32.1685 53.3213 32.1685C49.6078 32.1685 46.8107 29.0881 46.8107 24.4298C46.8107 19.7202 49.4556 16.6399 53.3718 16.6399C55.9151 16.6399 57.4409 17.5822 58.2799 19.5679C58.4583 19.975 58.6105 20.1786 58.9411 20.1786C59.2973 20.1786 59.4495 19.9238 59.4751 19.5167C59.5007 18.931 59.5007 18.0149 59.5007 17.4548C59.5007 17.0726 59.3734 16.7673 58.8139 16.4619C57.4664 15.7238 55.5844 15.1893 53.5752 15.1893C47.6247 15.1893 43.5556 19.2875 43.5556 24.7101C43.5556 29.9792 47.3702 33.6702 52.8634 33.6702ZM33.5367 33.6702C37.9358 33.6702 40.8352 30.9464 40.8352 26.1351V24.4298C40.8352 21.553 40.8352 19.8732 40.8602 17.5566C40.8857 17.022 41.1397 16.7929 42.5388 16.6655C43.0223 16.5893 43.1751 16.3345 43.1751 16.0548C43.1751 15.7238 42.9711 15.4947 42.5894 15.4947C41.7759 15.4947 40.9874 15.5708 39.9706 15.5708C38.9276 15.5708 38.1136 15.4947 37.2745 15.4947C36.8934 15.4947 36.69 15.7238 36.69 16.0542C36.69 16.3089 36.8423 16.5637 37.3513 16.6399C38.8259 16.7929 39.0804 17.022 39.0804 17.5566C39.131 19.8732 39.131 21.553 39.131 24.4298V25.9316C39.131 29.6994 37.2745 31.6083 34.1718 31.6083C30.9935 31.6083 29.3404 29.6232 29.3404 26.1101V24.4298C29.3404 21.553 29.3404 19.8732 29.3915 17.5566C29.3915 17.022 29.6454 16.7929 31.0446 16.6655C31.553 16.5893 31.7052 16.3345 31.7052 16.0548C31.7052 15.7238 31.5019 15.4947 31.0951 15.4947C30.1289 15.4947 29.1626 15.5708 27.8401 15.5708C26.5177 15.5708 25.5758 15.4947 24.5851 15.4947C24.2034 15.4947 24 15.7238 24 16.0542C24 16.3345 24.1528 16.5893 24.6612 16.6655C26.0598 16.7929 26.3143 17.022 26.3143 17.5566C26.3648 19.8732 26.3648 21.553 26.3648 24.4298V26.4411C26.3648 31.2012 29.1126 33.6702 33.5367 33.6702Z" fill="#C5ABF8"/>
</svg>
