<svg width="148" height="48" viewBox="0 0 148 48" fill="none" xmlns="http://www.w3.org/2000/svg">
<path d="M116.766 22.8578C120.742 22.8578 123.204 26.0321 123.204 29.2658C123.204 32.8554 120.089 35.822 116.559 35.822C112.91 35.822 110.299 32.8554 110.299 29.2658C110.299 25.8245 113.325 22.8578 116.766 22.8578ZM117.419 34.9913C119.763 34.9913 121.216 32.6774 121.216 30.4821C121.216 26.9518 119.199 23.6588 116.173 23.6588C113.77 23.6588 112.316 25.7651 112.316 28.2274C112.287 31.4907 114.156 34.9913 117.419 34.9913ZM104.455 23.1248H101.785C100.628 23.1248 99.7676 23.1248 99.0556 23.0952C98.403 23.0655 98.2546 22.9172 98.1656 22.7689H97.8096C97.7503 22.9172 96.9197 25.1718 96.89 25.2905L97.3053 25.5278C97.7206 24.4302 98.1656 23.8962 100.391 23.8962C100.569 23.8962 101.281 23.8962 102.171 23.9852C102.289 25.5871 102.319 27.1298 102.319 28.7318C102.319 29.7404 102.289 33.4487 102.171 34.2794C102.111 34.665 101.933 34.843 100.895 35.021C100.45 35.0803 100.183 35.11 99.9159 35.1397L100.005 35.644C100.331 35.6143 100.747 35.5847 101.221 35.555C101.726 35.5253 102.319 35.4957 103.239 35.4957C103.595 35.4957 104.129 35.466 104.663 35.4957C105.197 35.5253 105.671 35.5253 106.324 35.555L106.383 35.021C106.265 35.021 106.087 34.9913 105.79 34.9617C105.434 34.9024 104.9 34.8133 104.663 34.576C104.247 34.1014 104.247 30.7491 104.247 29.8591C104.247 29.0878 104.366 25.1422 104.366 24.2522C104.366 23.8665 104.485 23.8665 105.612 23.8665H105.642C106.146 23.8368 106.294 23.8665 106.472 23.8665C108.697 23.8665 108.756 24.4005 109.142 25.4981L109.557 25.2608C109.528 25.1421 109.083 22.8875 109.023 22.7392H108.667C108.578 22.8578 108.43 23.0062 107.778 23.0655C106.917 23.0952 105.909 23.0952 104.9 23.0952L104.455 23.1248ZM83.9258 23.0952C83.4215 23.1248 83.0358 23.1248 82.4129 23.1248C82.0865 23.1248 81.7899 23.1248 81.4932 23.0952C81.1669 23.0655 81.1372 23.0655 80.8405 23.0358V23.5698C82.6502 23.9258 82.7985 24.1928 82.7392 27.8121V30.0371C82.7392 30.8677 82.6799 33.3597 82.5909 34.1014C82.5019 34.9023 82.1459 34.9617 81.7009 35.0803C81.4635 35.1397 81.1669 35.199 80.9889 35.2287V35.7033C81.4635 35.7033 81.9085 35.6737 82.3832 35.644C82.8578 35.6143 83.4808 35.5847 83.9555 35.5847C84.4302 35.5847 84.9345 35.6143 85.3498 35.644C85.7651 35.644 86.0321 35.6737 86.2101 35.7033V35.1693C83.7478 34.7243 83.7478 34.398 83.7775 32.2917V27.0111L83.8072 26.0025C83.8072 26.0025 83.8072 26.0321 92.974 35.733H93.6267C93.5674 34.6947 93.5674 32.0544 93.5674 30.8974C93.5674 29.2361 93.5674 24.9938 93.6267 24.4598C93.7454 23.6588 94.8133 23.5698 95.4067 23.5698V23.0952C94.0717 23.0952 93.33 23.1248 92.7367 23.0655C92.1731 23.0062 91.7577 22.9765 91.4314 22.9765C91.1644 22.9765 90.8381 22.9468 90.6601 22.9765L90.5711 23.4512C92.6477 23.5698 92.618 23.7478 92.618 28.4648C92.618 29.0284 92.5884 31.7874 92.5884 32.2917L83.9258 23.0952ZM72.623 22.8578C76.5983 22.8578 79.0606 26.0321 79.0606 29.2658C79.0606 32.8554 75.9456 35.822 72.4153 35.822C68.7664 35.822 66.1557 32.8554 66.1557 29.2658C66.1854 25.8245 69.2114 22.8578 72.623 22.8578ZM73.3053 34.9913C75.6489 34.9913 77.1026 32.6774 77.1026 30.4821C77.1026 26.9518 75.0853 23.6588 72.0593 23.6588C69.6564 23.6588 68.2027 25.7651 68.2027 28.2274C68.1731 31.4907 70.042 34.9913 73.3053 34.9913ZM52.8653 23.0358C53.2806 23.0655 53.6366 23.0952 54.0519 23.0952C54.4376 23.1248 54.8232 23.1248 55.2089 23.1248C55.4759 23.1248 56.2176 23.0655 56.9295 23.0062C57.6415 22.9468 58.1755 22.9468 58.6205 22.9468C61.2608 22.9468 62.9518 24.3708 62.9518 26.2991C62.9518 28.0494 61.3498 29.1174 60.1038 29.4141C62.6848 33.152 63.1595 33.7157 64.1681 34.6354C64.2868 34.754 65.0581 35.466 66.0371 35.5253L66.0074 36C63.8714 36 62.8035 35.1693 62.2398 34.7243C60.3412 33.241 58.4722 30.2744 58.1162 29.6514C57.5822 29.6514 57.3745 29.6514 56.4549 29.5921V31.4017C56.4549 32.2027 56.4252 34.0124 56.6625 34.5167C56.8109 34.7837 57.7602 35.0803 58.3832 35.2583L58.4129 35.733C57.6712 35.6143 56.4845 35.5253 55.6836 35.5253C55.2386 35.5253 53.3103 35.644 52.9246 35.6737L52.8356 35.288C53.0136 35.2583 54.1409 35.021 54.4376 34.487C54.6452 34.0124 54.6156 31.4017 54.6156 30.5711V27.5748C54.6156 23.7182 54.4376 23.6588 52.8653 23.5698V23.0358ZM56.4549 28.8801C56.8405 28.9394 57.4339 28.9394 57.7899 28.9394C58.2645 28.9394 60.8752 28.9394 60.8752 26.4475C60.8752 25.2905 60.0445 23.5995 57.8195 23.5995C56.5142 23.5995 56.5142 23.7478 56.4846 25.8838L56.4549 28.8801ZM44.2027 22.8578C48.178 22.8578 50.6403 26.0321 50.6403 29.2658C50.6403 32.8554 47.5253 35.822 43.9951 35.822C40.3461 35.822 37.7355 32.8554 37.7355 29.2658C37.7355 25.8245 40.7614 22.8578 44.2027 22.8578ZM44.8554 34.9913C47.199 34.9913 48.6527 32.6774 48.6527 30.4821C48.6527 26.9518 46.6353 23.6588 43.6094 23.6588C41.2064 23.6588 39.7528 25.7651 39.7528 28.2274C39.7231 31.4907 41.5921 34.9913 44.8554 34.9913ZM31.5946 23.1248H28.9246C27.7676 23.1248 26.9073 23.1248 26.1953 23.0952C25.5426 23.0655 25.3943 22.9172 25.3053 22.7689H24.9493C24.89 22.9172 24.0593 25.1718 24 25.2905L24.4153 25.5278C24.8307 24.4302 25.2756 23.8962 27.5006 23.8962C27.6786 23.8962 28.3906 23.8962 29.2806 23.9852C29.3993 25.5871 29.4289 27.1298 29.4289 28.7318C29.4289 29.7404 29.3993 33.4487 29.2806 34.2794C29.2213 34.665 29.0433 34.843 28.0049 35.021C27.56 35.0803 27.293 35.11 27.026 35.1397L27.115 35.644C27.4413 35.6143 27.8566 35.5847 28.3313 35.555C28.8356 35.5253 29.4289 35.4957 30.3486 35.4957C30.7046 35.4957 31.2386 35.466 31.7726 35.4957C32.3066 35.5253 32.7812 35.5253 33.4339 35.555L33.4932 35.021C33.3745 35.021 33.1965 34.9913 32.8999 34.9617C32.5439 34.9024 32.0099 34.8133 31.7726 34.576C31.3572 34.1014 31.3572 30.7491 31.3572 29.8591C31.3572 29.0878 31.4759 25.1422 31.4759 24.2522C31.4759 23.8665 31.5946 23.8665 32.7219 23.8665H32.7515C33.2559 23.8368 33.4042 23.8665 33.5822 23.8665C35.8072 23.8665 35.8665 24.4005 36.2522 25.4981L36.6675 25.2608C36.6378 25.1421 36.1928 22.8875 36.1335 22.7392H35.7775C35.6885 22.8578 35.5402 23.0062 34.8875 23.0655C34.0272 23.0952 33.0185 23.0952 32.0099 23.0952L31.5946 23.1248ZM112.079 12.1483C111.278 12.2373 111.07 12.2373 110.18 12.2373H109.231L108.252 12.2077L107.926 12.2373L107.659 12.267V12.2967V12.5043H107.688C107.926 12.5043 108.163 12.534 108.252 12.6823C108.4 12.89 108.4 13.1273 108.4 15.0853C108.4 16.0049 108.311 17.0433 108.282 17.2213C108.222 17.4289 107.926 17.5179 107.718 17.5476H107.688L107.659 17.8443H107.718C108.282 17.8146 108.875 17.7849 109.023 17.7849H109.498L110.388 17.8146V17.7553V17.4883H110.329C109.676 17.4289 109.468 17.3103 109.409 17.2213C109.35 17.1323 109.32 16.8059 109.32 16.4499C109.32 16.3609 109.32 16.2423 109.32 16.1533C109.32 16.1533 109.35 15.3226 109.35 15.115C109.409 15.115 109.795 15.0853 109.795 15.0853C110.299 15.0853 110.922 15.204 111.07 15.2633C111.159 15.293 111.248 15.471 111.278 15.7083V15.7379H111.545V15.7083C111.604 15.1446 111.575 14.5513 111.575 14.136V14.0766H111.278V14.1063C111.219 14.5216 111.189 14.67 110.091 14.67C109.765 14.67 109.676 14.67 109.35 14.6106C109.35 14.6106 109.35 14.6106 109.32 14.6106C109.32 14.5216 109.32 14.403 109.32 14.2843C109.32 14.1656 109.32 14.0173 109.32 13.8986C109.32 13.8986 109.35 12.7417 109.35 12.5637C109.676 12.534 109.943 12.5043 110.002 12.5043C110.596 12.5043 111.13 12.623 111.367 12.7713C111.545 12.89 111.604 13.1273 111.664 13.3053V13.335L111.96 13.3053V13.246C111.96 13.157 111.96 12.8603 111.99 12.5933L112.02 12L112.079 12.1483ZM103.654 12.089C105.493 12.089 106.591 13.5426 106.591 14.937C106.591 16.5093 105.197 17.8443 103.565 17.8443C101.963 17.8443 100.717 16.5686 100.717 14.937C100.717 13.424 102.082 12.089 103.654 12.089ZM103.921 17.4289C104.93 17.4289 105.582 16.4203 105.582 15.5006C105.582 14.047 104.752 12.5637 103.387 12.5637C102.289 12.5637 101.696 13.5426 101.696 14.5216C101.696 15.9456 102.527 17.4289 103.921 17.4289ZM93.241 12.2077V12.4747H93.3004C93.5674 12.4747 93.953 12.5043 93.953 12.7417C93.953 12.801 93.8344 13.1273 92.796 14.67C92.3511 14.136 91.3424 12.8307 91.3424 12.6823C91.3424 12.623 91.3424 12.5637 91.9654 12.534H92.0247V12.2077H91.4907L90.4821 12.2373H89.3844V12.2967V12.534H89.4438C89.7107 12.534 89.8888 12.5637 90.0074 12.6527C90.3337 12.89 91.5501 14.403 91.5797 14.492C91.5797 14.492 92.0544 15.115 92.1137 15.1743C92.1434 15.5599 92.1731 16.0049 92.1731 16.5389C92.1731 17.3696 92.1731 17.5476 91.4017 17.5773H91.3721L91.3424 17.8443H91.4017C91.5204 17.8443 91.8764 17.8146 92.2324 17.8146L92.8257 17.7849L93.2707 17.8146H93.3597L93.953 17.8443V17.7849V17.5476H93.9234C93.152 17.4883 93.152 17.3696 93.152 17.2213V17.1619C93.1224 16.8059 93.1224 16.4499 93.1224 16.0346C93.1224 15.7083 93.1224 15.382 93.152 15.026C93.1817 14.9963 94.2497 13.3646 94.2497 13.3646C94.6057 12.8307 94.7837 12.534 95.5253 12.534H95.555V12.2077H95.5253C95.4363 12.2077 95.1397 12.2077 94.8727 12.2373L94.5167 12.267L94.1014 12.2373L93.8047 12.2077H93.3894H93.33H93.241ZM88.2868 12.0593H88.1088V12.089C88.0791 12.1187 88.0198 12.2077 87.7528 12.2077H86.6255H85.0532H83.8368C83.5402 12.2077 83.4808 12.1187 83.4808 12.089V12.0593H83.2732V12.089C83.2435 12.1483 82.8579 13.1273 82.8579 13.1867V13.2163L83.1248 13.3646L83.1545 13.3053C83.3325 12.8307 83.5105 12.623 84.4895 12.623C84.7862 12.623 85.0532 12.6527 85.2312 12.6527C85.2905 13.3943 85.2905 14.136 85.2905 14.6996C85.2905 15.2336 85.2608 16.7763 85.2312 17.1323C85.2015 17.2509 85.1718 17.3399 84.6972 17.4289L84.3412 17.4586L84.2225 17.4883L84.2818 17.7849L84.7565 17.7553H84.8752L85.7651 17.7256H85.9135H86.4178H86.8035H87.2188V17.6959L87.2485 17.4289L87.0111 17.3993H86.9518C86.7145 17.3696 86.5365 17.3103 86.4771 17.2509C86.4178 17.1916 86.2991 16.8356 86.2991 15.204L86.3288 14.047L86.3585 12.7417C86.3585 12.623 86.3585 12.623 86.8628 12.623H86.8925H87.1891H87.2485C88.1384 12.623 88.2274 12.801 88.3758 13.2163L88.4351 13.335L88.7021 13.1867L88.6428 12.89C88.5538 12.445 88.4648 12.089 88.4648 12.0297V12L88.2868 12.0593ZM79.0012 12.2077V12.4747H79.0309C79.7726 12.5043 79.8912 12.6527 79.9506 12.801C80.0396 13.0383 80.0692 14.6403 80.0692 15.204V15.293C80.0692 15.7676 80.0692 16.8949 79.9209 17.1619C79.8616 17.2509 79.6836 17.3993 78.9716 17.4586H78.9419V17.7553L79.8319 17.7256H80.6329L81.9679 17.7553V17.6959L81.9382 17.4289H81.9085C81.3152 17.4289 81.1372 17.4289 81.0482 17.1916C81.0185 17.0729 80.9889 16.5389 80.9889 15.6193C80.9889 13.4536 80.9889 12.8603 81.1075 12.6527C81.2559 12.4153 81.7602 12.445 81.9382 12.445H81.9975V12.1187H81.3449L80.4252 12.1483L79.8022 12.1187H79.5352H79.0606H79.0012V12.2077ZM74.047 13.7206C74.047 14.67 74.848 14.9963 75.4413 15.2336L75.5006 15.2633C76.5093 15.6786 76.9839 15.8566 76.9839 16.5686C76.9839 16.9839 76.6873 17.4289 76.0049 17.4289C75.4116 17.4289 74.9666 17.1619 74.6996 16.9543C74.3733 16.6873 74.2843 16.3016 74.2546 16.1533V16.1236H73.9283L73.958 16.1829C74.136 16.8059 74.1953 17.0729 74.1953 17.7553V17.7849L74.4623 17.8146V17.7849C74.4623 17.7553 74.5216 17.6366 74.581 17.6366C74.6403 17.6366 74.848 17.6959 74.9073 17.6959H74.937L75.026 17.7256C75.1743 17.7553 75.3523 17.8146 75.7083 17.8146C77.0729 17.8146 77.8146 16.9839 77.8146 16.2126C77.8146 15.115 76.7466 14.6996 76.0346 14.403C75.3523 14.136 74.848 13.8986 74.848 13.3646C74.848 12.8307 75.2633 12.445 75.8863 12.445C76.4499 12.445 76.8356 12.7713 76.9246 12.8603C77.1619 13.068 77.2213 13.3053 77.2509 13.5426V13.5723H77.2806H77.5179L77.4289 12.8307C77.4289 12.5637 77.4883 12.2967 77.5179 12.178V12.1187L77.2806 12.089C77.2806 12.089 77.1323 12.178 77.1026 12.2077C76.5983 12.0593 76.3313 12.0297 75.9753 12.0297C74.8776 12.1187 74.047 12.7713 74.047 13.7206ZM70.131 12.1483C71.288 12.1483 72.1187 12.7713 72.1187 13.6613C72.1187 14.3733 71.4957 14.8776 70.8727 15.0556C72 16.6279 72.2077 16.8949 72.6527 17.2806C72.6823 17.2806 73.0087 17.6366 73.4536 17.6663H73.513L73.4833 17.9629H73.4536C72.4747 17.9629 72 17.6069 71.733 17.3993C70.8727 16.7466 70.042 15.4413 69.8937 15.1743C69.8344 15.1743 69.3004 15.1446 69.241 15.1446C69.241 15.2336 69.241 15.8863 69.241 15.8863C69.241 15.8863 69.241 16.0939 69.241 16.1533C69.241 16.5389 69.241 17.0729 69.33 17.2509C69.3894 17.3696 69.8344 17.4883 70.0717 17.5476H70.1014L70.131 17.8443H70.0717C69.7454 17.7849 69.2114 17.7553 68.8554 17.7553C68.6774 17.7553 67.8171 17.8146 67.6094 17.8146H67.5797L67.5204 17.5773H67.5797C67.6984 17.5476 68.1434 17.4586 68.262 17.2509C68.351 17.0729 68.3511 16.0939 68.3511 15.6786V15.56V14.2546C68.3511 12.5933 68.2917 12.5637 67.6094 12.534H67.5501L67.5797 12.2077H67.6687L68.1731 12.2373H68.6774C68.796 12.2373 69.1224 12.2077 69.4487 12.178L70.131 12.1483ZM69.241 14.759C69.419 14.7886 69.6564 14.7886 69.8047 14.7886C70.309 14.7886 71.1397 14.6403 71.1397 13.7503C71.1397 13.2756 70.7837 12.5637 69.8344 12.5637C69.3004 12.5637 69.3004 12.5933 69.2707 13.513C69.241 13.4833 69.241 14.67 69.241 14.759ZM65.9481 12.1483C65.2658 12.178 64.1978 12.2077 63.4561 12.2077C63.0111 12.2077 61.9431 12.178 61.5278 12.178H61.4685V12.445H61.4981C61.9728 12.534 62.0025 12.534 62.0321 12.6527C62.0915 12.7713 62.1508 13.2756 62.1508 14.9666C62.1508 15.6786 62.0915 16.8356 62.0321 17.2213C62.0025 17.3993 61.7651 17.4586 61.3795 17.5179H61.3201L61.3498 17.8146H61.3795C62.1211 17.7256 63.0408 17.7256 63.5748 17.7256L65.7998 17.7553L65.8294 17.7256C65.9481 17.5476 66.1261 17.2509 66.2447 16.3609V16.3016L65.9778 16.2719V16.3016C65.7998 16.8059 65.4141 17.3399 64.0494 17.3399C63.5748 17.3399 63.3671 17.2806 63.1001 17.1619C63.0705 17.0136 63.0408 16.7763 63.0408 16.0939C63.0408 16.0939 63.0408 15.2633 63.0408 15.0556C63.3968 14.9963 63.7231 14.9963 63.8714 14.9963C64.9691 14.9963 65.0581 15.0853 65.2064 15.7676V15.7973H65.4734V15.7379C65.4734 14.9963 65.4734 14.8183 65.5031 14.047V13.9876H65.2064V14.0173C65.0878 14.4326 64.9988 14.492 64.8504 14.5216C64.0494 14.6106 63.2781 14.581 63.1001 14.581C63.1001 14.5216 63.0705 13.8393 63.0705 13.8393C63.0705 13.4833 63.1001 12.9197 63.1595 12.534C63.4561 12.4747 63.9901 12.445 64.2274 12.445C64.8504 12.445 65.2064 12.534 65.3548 12.6823C65.5031 12.8307 65.5031 13.0383 65.4734 13.2756V13.3053L65.7998 13.335V13.2756C65.7998 13.2163 65.8294 13.0087 65.8591 12.8307L65.8887 12.623C65.9184 12.3263 65.9184 12.2077 65.9184 12.0593V12L65.9481 12.1483ZM53.8739 12.2373L53.9036 12.4747H53.9333C54.6749 12.5637 54.7046 12.5637 55.3276 13.8096L56.5735 16.3609V16.3906C56.7812 16.8356 57.1075 17.5179 57.2262 17.9036V17.9333H57.4932V17.9036C57.6712 17.3399 57.8195 16.9543 58.2645 16.0939L59.6292 13.4536C59.9555 12.8307 60.0742 12.6823 60.6972 12.534H60.7268V12.2373H60.6675C60.3115 12.2373 59.9852 12.2373 59.6292 12.2373L58.5612 12.2077V12.2373L58.5315 12.534H58.5908C58.8578 12.534 59.2435 12.5637 59.2435 12.8603C59.2435 13.0383 59.1248 13.3053 59.0358 13.4833L59.0062 13.5426C58.7392 14.1656 58.5612 14.492 58.3832 14.8776L57.7602 16.1533C57.7602 16.1533 57.6712 16.3609 57.6119 16.4796C57.0185 15.5006 55.8912 12.89 55.8912 12.712C55.8912 12.6527 55.9209 12.623 56.3659 12.5933L56.5142 12.5637V12.267H55.6539H55.1792C54.8529 12.267 54.2002 12.267 53.8739 12.2373ZM50.1063 12.2077V12.4747H50.1656C50.9073 12.5043 51.026 12.6527 51.0853 12.801C51.1743 13.0383 51.204 14.6403 51.204 15.204V15.293C51.204 15.7676 51.204 16.8949 51.0556 17.1619C50.9963 17.2509 50.8183 17.3993 50.1063 17.4586H50.0766V17.7553L50.9666 17.7256H51.7676L53.1026 17.7553V17.6959L53.0729 17.4289H53.0433C52.4499 17.4289 52.2719 17.4289 52.1829 17.1916C52.1533 17.0729 52.1236 16.5389 52.1236 15.6193C52.1236 13.4536 52.1236 12.8603 52.2423 12.6527C52.3906 12.4153 52.8949 12.445 53.0729 12.445H53.1323V12.1187H52.4796L51.56 12.1483L50.937 12.1187H50.67H50.1953H50.136V12.2077H50.1063ZM46.9023 12.1187H46.8727V12.1483L46.8134 12.4153H46.8727C47.9407 12.4747 47.7923 12.5043 47.822 14.7293C47.822 14.7293 47.822 16.0643 47.822 16.2423C47.733 16.1533 43.9654 12.2077 43.9654 12.2077V12.178H43.3424H42.9271H42.8974L42.5117 12.1483V12.2077V12.4747H42.5414C43.3127 12.623 43.4314 12.712 43.4017 14.2843V15.2633C43.4017 15.6193 43.3721 16.7169 43.3127 17.0433C43.2831 17.3696 43.1644 17.3993 42.9567 17.4289L42.6007 17.5179V17.5476V17.8146L43.9061 17.7553L44.529 17.7849L44.974 17.8146V17.7553V17.4883H44.9444C43.8764 17.3103 43.8764 17.1916 43.9061 16.2719L43.9357 13.958C43.9357 13.958 43.9357 13.7503 43.9357 13.6316C44.1434 13.8393 47.9703 17.8146 47.9407 17.8146V17.8443H48.2967V17.7849C48.267 17.3399 48.267 16.1829 48.267 15.6786C48.267 14.937 48.2967 13.157 48.3263 12.9493C48.3857 12.5637 48.6823 12.4747 49.0087 12.4747H49.068V12.178H49.0087C48.4153 12.178 48.1187 12.2077 47.8517 12.178L47.6737 12.1483L47.2583 12.1187H46.9023ZM36.7862 12.178H36.4598C36.0742 12.178 35.3028 12.178 35.2138 12.2077H35.1842L35.2138 12.5043H35.2435C35.5995 12.5043 35.7182 12.5043 35.8072 12.5637C35.9258 12.623 35.9852 13.2756 35.9852 14.136L35.9258 15.9456C35.9258 17.1916 36.7268 17.8739 38.2398 17.8739C40.6428 17.8739 40.7614 16.5983 40.8208 13.9283V13.1273V13.0977C40.8208 12.712 40.8504 12.534 41.4734 12.5043H41.5031L41.5328 12.178H41.4141L40.4351 12.2077L39.6935 12.178H39.3671V12.2373V12.5043H39.4265C39.6935 12.5043 39.9901 12.534 40.1088 12.6527C40.2868 12.8307 40.3461 13.5723 40.3461 13.958V14.4623C40.3461 16.3016 40.2274 17.4289 38.5068 17.4289C36.9345 17.4289 36.9345 16.1829 36.9345 15.5896V14.5513C36.9345 12.623 36.9938 12.623 37.8541 12.534H37.8838V12.2077H37.8541C37.6168 12.178 37.1422 12.178 36.7862 12.178Z" fill="#C5ABF8"/>
</svg>
