<svg width="184" height="48" viewBox="0 0 184 48" fill="none" xmlns="http://www.w3.org/2000/svg">
<g clip-path="url(#clip0_22425_25405)">
<path d="M48.7022 18.7218C48.7022 18.7218 48.2308 18.318 47.714 18.8261C47.2108 19.3206 47.6097 19.8151 47.6097 19.8151L51.7894 23.9977L47.6097 28.1804C47.6097 28.1804 47.2062 28.6522 47.7185 29.1694C48.2126 29.6729 48.7068 29.2782 48.7068 29.2782L53.979 23.9977L48.7022 18.7218Z" fill="#C5ABF8"/>
<path d="M26.1896 23.9976L30.3693 19.815C30.3693 19.815 30.7728 19.3477 30.2605 18.826C29.7709 18.3224 29.2723 18.7171 29.2723 18.7171L24 23.9976V24.0022L29.2768 29.2781C29.2768 29.2781 29.7483 29.6819 30.2651 29.1693C30.7683 28.6748 30.3739 28.1803 30.3739 28.1803L26.1896 23.9976Z" fill="#C5ABF8"/>
<path d="M44.1506 32.7305C43.6565 32.227 43.1624 32.6262 43.1624 32.6262L38.9826 36.8088L34.8029 32.6262C34.8029 32.6262 34.3314 32.2224 33.8146 32.7305C33.3114 33.225 33.7058 33.7195 33.7058 33.7195L38.9781 39V38.9954L44.2504 33.7149C44.2594 33.7195 44.6629 33.2477 44.1506 32.7305Z" fill="#C5ABF8"/>
<path d="M44.264 14.2805L38.9917 9L33.7149 14.2805C33.7149 14.2805 33.316 14.7478 33.8237 15.2695C34.3133 15.773 34.812 15.3738 34.812 15.3738L38.9917 11.1911L43.1714 15.3738C43.1714 15.3738 43.6429 15.773 44.1597 15.2649C44.6584 14.775 44.264 14.2805 44.264 14.2805Z" fill="#C5ABF8"/>
<path d="M47.9134 25.758C48.3894 25.2408 48.2715 24.71 48.2715 24.71H39.699V33.2931C39.699 33.2931 40.2294 33.4111 40.7462 32.9347C41.2856 32.4357 41.2448 31.846 41.2448 31.846V27.3593L45.6558 31.7734C45.6558 31.7734 46.1272 32.1771 46.644 31.6645C47.1472 31.17 46.7528 30.6755 46.7528 30.6755L42.3419 26.2615H46.8299C46.8254 26.257 47.4147 26.3023 47.9134 25.758Z" fill="#C5ABF8"/>
<path d="M38.2799 24.71H29.7029C29.7029 24.71 29.585 25.2408 30.061 25.758C30.5597 26.2978 31.149 26.257 31.149 26.257H35.6325L31.2215 30.671C31.2215 30.671 30.8181 31.1428 31.3303 31.66C31.8199 32.1635 32.3186 31.7688 32.3186 31.7688L36.7295 27.3548V31.846C36.7295 31.846 36.6887 32.4357 37.2282 32.9347C37.745 33.4111 38.2754 33.2931 38.2754 33.2931L38.2799 24.71Z" fill="#C5ABF8"/>
<path d="M37.2328 15.0653C36.6934 15.5644 36.7342 16.1541 36.7342 16.1541V20.6407L32.3232 16.2267C32.3232 16.2267 31.8563 15.8229 31.335 16.3356C30.8318 16.8301 31.2307 17.3245 31.2307 17.3245L35.6416 21.7386H31.1536C31.1536 21.7386 30.5643 21.6977 30.0656 22.2376C29.5896 22.7547 29.7075 23.2855 29.7075 23.2855H38.28V14.707C38.28 14.707 37.7496 14.5935 37.2328 15.0653Z" fill="#C5ABF8"/>
<path d="M47.9134 22.2376C47.4147 21.6977 46.8254 21.7386 46.8254 21.7386H42.3419L46.7528 17.3245C46.7528 17.3245 47.1563 16.8573 46.644 16.3356C46.1499 15.832 45.6558 16.2312 45.6558 16.2312L41.2448 20.6453V16.1541C41.2448 16.1541 41.2856 15.5644 40.7462 15.0654C40.2294 14.589 39.699 14.707 39.699 14.707V23.2901H48.2715C48.2715 23.2901 48.3894 22.7593 47.9134 22.2376Z" fill="#C5ABF8"/>
<path d="M60.4526 20.7587C58.3446 20.7587 57.0798 19.4204 57.0798 17.2973V11.8716H58.2676V17.1431C58.2676 18.6583 58.9476 19.6699 60.4526 19.6699C61.9305 19.6699 62.674 18.7581 62.674 17.1794V11.8716H63.8617V17.2293C63.8617 19.4295 62.5606 20.7587 60.4526 20.7587Z" fill="#C5ABF8"/>
<path d="M73.2683 20.5908L68.4811 13.8042V20.5908H67.384V11.8716H68.4448L73.0688 18.4042V11.8716H74.1659V20.5908H73.2683Z" fill="#C5ABF8"/>
<path d="M77.9785 20.5908V11.8716H79.1663V20.5908H77.9785Z" fill="#C5ABF8"/>
<path d="M86.4647 20.6316H85.4039L82.0447 12.0394L83.2324 11.7854L85.9479 19.0393L88.6135 11.8716H89.8647L86.4647 20.6316Z" fill="#C5ABF8"/>
<path d="M92.4761 20.5908V11.8716H97.1726V12.9604H93.6593V15.4872H96.3883L96.5651 16.576H93.6593V19.5066H97.295V20.5954H92.4761V20.5908Z" fill="#C5ABF8"/>
<path d="M106.534 20.4139L105.332 20.677L102.667 16.9117H101.769V20.5908H100.582V11.8716H102.957C104.739 11.8716 105.849 12.7563 105.849 14.3486C105.849 15.6642 105.079 16.4445 103.941 16.762L106.534 20.4139ZM102.907 12.9196H101.769V15.9137H102.78C103.932 15.9137 104.662 15.3965 104.662 14.4076C104.662 13.464 104.068 12.9196 102.907 12.9196Z" fill="#C5ABF8"/>
<path d="M111.357 20.6951C110.41 20.6951 109.562 20.4683 108.918 20.1281L109.095 18.9168C109.689 19.3069 110.51 19.6608 111.38 19.6608C112.291 19.6608 112.935 19.1799 112.935 18.3316C112.935 17.5377 112.581 17.2065 111.267 16.6123C109.626 15.8683 109.005 15.3239 109.005 14.0718C109.005 12.67 110.079 11.7718 111.657 11.7718C112.504 11.7718 113.134 11.9759 113.638 12.2663L113.447 13.4548C112.967 13.0874 112.309 12.8107 111.616 12.8107C110.618 12.8107 110.174 13.3414 110.174 13.9856C110.174 14.657 110.505 14.97 111.829 15.5779C113.52 16.3491 114.1 16.9298 114.1 18.2454C114.109 19.747 112.985 20.6951 111.357 20.6951Z" fill="#C5ABF8"/>
<path d="M117.418 20.5908V11.8716H118.606V20.5908H117.418Z" fill="#C5ABF8"/>
<path d="M125.438 12.9604V20.5954H124.25V12.9604H121.471V11.8716H128.113L128.289 12.9604H125.438Z" fill="#C5ABF8"/>
<path d="M134.414 17.1294V20.5908H133.226V17.1294L130.144 12.0349L131.331 11.7809L133.834 16.0407L136.273 11.8716H137.587L134.414 17.1294Z" fill="#C5ABF8"/>
<path d="M148.304 20.7587C145.851 20.7587 144.301 18.9395 144.301 16.2448C144.301 13.5411 145.879 11.7083 148.331 11.7083C150.793 11.7083 152.334 13.5275 152.334 16.2221C152.334 18.9168 150.77 20.7587 148.304 20.7587ZM148.318 12.7925C146.586 12.7925 145.525 14.1308 145.525 16.2312C145.525 18.3271 146.599 19.6699 148.318 19.6699C150.049 19.6699 151.11 18.3316 151.11 16.2312C151.11 14.1354 150.036 12.7925 148.318 12.7925Z" fill="#C5ABF8"/>
<path d="M156.655 12.9604V15.6279H159.284L159.461 16.7166H156.659V20.5954H155.467V11.8716H160V12.9604H156.655Z" fill="#C5ABF8"/>
<path d="M59.2241 36.2282C58.2766 36.2282 57.4289 36.0014 56.7852 35.6611L56.962 34.4454C57.5558 34.8355 58.3764 35.1893 59.2468 35.1893C60.158 35.1893 60.8017 34.7085 60.8017 33.8647C60.8017 33.0663 60.4481 32.7396 59.1334 32.1453C57.4924 31.4013 56.8713 30.857 56.8713 29.6049C56.8713 28.2031 57.9457 27.3049 59.5233 27.3049C60.371 27.3049 61.0012 27.509 61.5044 27.7994L61.314 28.9879C60.8334 28.6205 60.1761 28.3437 59.4825 28.3437C58.4852 28.3437 58.0409 28.8745 58.0409 29.5187C58.0409 30.1901 58.3718 30.5031 59.6956 31.111C61.3865 31.8822 61.9668 32.4629 61.9668 33.7785C61.9804 35.2801 60.8561 36.2282 59.2241 36.2282Z" fill="#C5ABF8"/>
<path d="M70.6524 36.2191L69.6279 33.5154H66.0284L65.0447 36.1329H63.8479L67.257 27.3729H68.4447L71.8039 35.9651L70.6524 36.2191ZM67.8236 28.7838L66.4319 32.4629H69.2244L67.8236 28.7838Z" fill="#C5ABF8"/>
<path d="M80.1135 36.1284L75.3263 29.3417V36.1284H74.2292V27.4092H75.29L79.914 33.9418V27.4092H81.0111V36.1284H80.1135Z" fill="#C5ABF8"/>
<path d="M89.28 28.4934V31.1609H91.9094L92.0862 32.2496H89.28V36.1284H88.0923V27.4092H92.6256V28.4979H89.28V28.4934Z" fill="#C5ABF8"/>
<path d="M101.343 35.9514L100.142 36.2191L97.4762 32.4538H96.5786V36.1329H95.3909V27.4092H97.7663C99.5479 27.4092 100.659 28.2938 100.659 29.8861C100.659 31.2017 99.8879 31.982 98.7501 32.2995L101.343 35.9514ZM97.7165 28.4571H96.5786V31.4512H97.5895C98.741 31.4512 99.4709 30.9341 99.4709 29.9451C99.4709 29.0015 98.877 28.4571 97.7165 28.4571Z" fill="#C5ABF8"/>
<path d="M109.54 36.2191L108.515 33.5154H104.916L103.932 36.1329H102.73L106.14 27.3729H107.327L110.686 35.9651L109.54 36.2191ZM106.706 28.7838L105.319 32.4629H108.112L106.706 28.7838Z" fill="#C5ABF8"/>
<path d="M118.806 36.1284L114.018 29.3417V36.1284H112.921V27.4092H113.982L118.606 33.9418V27.4092H119.703V36.1284H118.806Z" fill="#C5ABF8"/>
<path d="M126.548 36.2917C124.096 36.2917 122.518 34.4725 122.518 31.7779C122.518 29.0741 124.123 27.2413 126.571 27.2413C127.605 27.2413 128.375 27.509 129.046 27.9626L128.87 29.1784C128.239 28.6976 127.491 28.3301 126.558 28.3301C124.79 28.3301 123.742 29.6684 123.742 31.7688C123.742 33.8647 124.803 35.1939 126.558 35.1939C127.491 35.1939 128.312 34.8264 129.006 34.3228L129.182 35.4479C128.516 35.9378 127.546 36.2917 126.548 36.2917Z" fill="#C5ABF8"/>
<path d="M132.179 36.1284V27.4092H133.367V36.1284H132.179Z" fill="#C5ABF8"/>
<path d="M138.798 36.2282C137.85 36.2282 137.002 36.0014 136.359 35.6611L136.535 34.4454C137.129 34.8355 137.95 35.1893 138.82 35.1893C139.731 35.1893 140.375 34.7085 140.375 33.8647C140.375 33.0663 140.022 32.7396 138.707 32.1453C137.066 31.4013 136.445 30.857 136.445 29.6049C136.445 28.2031 137.519 27.3049 139.097 27.3049C139.945 27.3049 140.575 27.509 141.078 27.7994L140.887 28.9879C140.407 28.6205 139.75 28.3437 139.056 28.3437C138.059 28.3437 137.614 28.8745 137.614 29.5187C137.614 30.1901 137.945 30.5031 139.269 31.111C140.96 31.8822 141.54 32.4629 141.54 33.7785C141.549 35.2801 140.425 36.2282 138.798 36.2282Z" fill="#C5ABF8"/>
<path d="M147.651 36.2917C145.203 36.2917 143.621 34.4725 143.621 31.7779C143.621 29.0741 145.226 27.2413 147.674 27.2413C148.712 27.2413 149.478 27.509 150.149 27.9626L149.972 29.1784C149.342 28.6976 148.594 28.3301 147.66 28.3301C145.892 28.3301 144.845 29.6684 144.845 31.7688C144.845 33.8647 145.906 35.1939 147.66 35.1939C148.594 35.1939 149.415 34.8264 150.113 34.3228L150.29 35.4479C149.619 35.9378 148.649 36.2917 147.651 36.2917Z" fill="#C5ABF8"/>
<path d="M155.961 36.2917C153.513 36.2917 151.958 34.4725 151.958 31.7779C151.958 29.0741 153.535 27.2413 155.988 27.2413C158.449 27.2413 159.991 29.0605 159.991 31.7552C159.986 34.4453 158.422 36.2917 155.961 36.2917ZM155.97 28.3301C154.238 28.3301 153.177 29.6684 153.177 31.7688C153.177 33.8647 154.252 35.2075 155.97 35.2075C157.701 35.2075 158.762 33.8692 158.762 31.7688C158.762 29.6729 157.688 28.3301 155.97 28.3301Z" fill="#C5ABF8"/>
</g>
<defs>
<clipPath id="clip0_22425_25405">
<rect width="136" height="30" fill="white" transform="translate(24 9)"/>
</clipPath>
</defs>
</svg>
