<svg width="184" height="48" viewBox="0 0 184 48" fill="none" xmlns="http://www.w3.org/2000/svg">
<g clip-path="url(#clip0_22425_25676)">
<path d="M144.604 31.7624V23.1722C144.604 20.2067 142.743 17.0696 138.715 17.0696C135.516 17.0696 133.818 19.2748 133.818 19.2748V12.8334H131.484V31.7625H133.818V23.0269C133.818 22.0454 135.047 19.1014 138.485 19.1014C140.856 19.1014 142.271 20.6683 142.271 23.2929V31.7626L144.604 31.7624Z" fill="#C5ABF8"/>
<path d="M118.625 19.133V17.0719C114.842 16.8786 113.392 19.609 113.392 19.609V17.3383H111.059V31.7623H113.392V22.9956C113.392 21.7098 114.602 19.133 118.625 19.133Z" fill="#C5ABF8"/>
<path d="M126.469 32.0223C128.305 32.0223 129.419 31.174 129.419 31.174V29.2734C129.419 29.2734 128.073 29.9697 126.999 29.9697C125.889 29.9697 125.302 29.3774 125.302 28.0421V19.2751H129.016V17.3384H125.302V13.6468H122.969V17.3384H120.215V19.2751H122.969V27.9274C122.969 30.9391 124.785 32.0223 126.469 32.0223Z" fill="#C5ABF8"/>
<path d="M64.2414 12H61.9082V31.7624H64.2414V12Z" fill="#C5ABF8"/>
<path d="M69.6418 12H67.3086V31.7624H69.6418V12Z" fill="#C5ABF8"/>
<path d="M43.6332 17.3381L41.6237 17.3395C41.3672 18.1888 40.2513 22.1286 41.075 24.5891C40.655 25.7895 39.1862 29.9702 36.3623 29.9702C34.5804 29.9702 34.2817 27.475 34.5286 25.9721C36.3888 22.2189 36.9751 18.4339 37.0524 17.89H35.0115C34.6137 18.3216 33.2506 19.9679 32.7964 22.6919C32.63 23.6901 32.5167 24.5923 32.4574 25.4074C32.4574 25.4074 30.5298 29.9702 27.9238 29.9702C26.8023 29.9702 26.2177 28.9643 26.2177 27.3931C26.2177 23.4484 30.8963 19.2326 30.8963 19.2326L30.2319 17.3439H24V19.2746H27.9623C26.6385 20.5651 24.1157 24.3447 24.1149 27.4197C24.1142 30.2144 25.5206 32.0224 27.8093 32.0224C30.7425 32.0224 32.6638 28.8814 32.6638 28.8814C32.6638 28.8814 33.1603 32.0224 36.3626 32.0224C38.0779 32.0224 39.7164 31.0194 41.1012 29.1216C43.4894 25.8487 44.6218 20.5984 43.6332 17.3381Z" fill="#C5ABF8"/>
<path d="M101.448 17.072C97.4922 17.072 94.2852 19.7507 94.2852 24.5472C94.2852 29.0839 97.4923 32.0224 101.448 32.0224C105.405 32.0224 108.612 29.2767 108.612 24.5472C108.612 20.1084 105.405 17.072 101.448 17.072ZM101.448 29.9467C98.7902 29.9467 96.6354 27.8191 96.6354 24.5338C96.6354 21.0605 98.7902 19.1212 101.448 19.1212C104.107 19.1212 106.261 21.3199 106.261 24.5338C106.261 27.9584 104.107 29.9467 101.448 29.9467Z" fill="#C5ABF8"/>
<path d="M52.8464 17.0662C48.5998 17.0662 45.5801 19.9677 45.5801 24.3437C45.5801 29.0735 48.6549 32.0273 52.7506 32.0273C58.5467 32.0273 59.4216 27.376 59.4216 27.376L56.975 27.3726C56.975 27.3726 56.1013 29.9861 52.9731 29.9861C48.1216 29.9861 47.9523 25.1515 47.9523 25.1515L59.461 25.156L59.4584 23.3842C59.4588 19.7711 56.7818 17.0662 52.8464 17.0662ZM57.0709 23.2564H47.9526C47.9526 23.2564 48.2705 19.1131 52.7217 19.1131C57.1727 19.1131 57.0709 23.2564 57.0709 23.2564Z" fill="#C5ABF8"/>
<path d="M157.244 17.3384L152.733 26.8752L148.531 17.3384H145.992L151.351 29.1045L147.939 36H150.282L159.851 17.3384H157.244Z" fill="#C5ABF8"/>
<path d="M92.2231 17.3381L90.2136 17.3395C89.9571 18.1888 88.8411 22.1286 89.6648 24.5891C89.2449 25.7895 87.776 29.9702 84.9522 29.9702C83.1703 29.9702 82.8715 27.475 83.1185 25.9721C84.9787 22.2189 85.565 18.4339 85.6422 17.89H83.6014C83.2036 18.3216 81.8404 19.9679 81.3862 22.6919C81.2199 23.6901 81.1066 24.5923 81.0472 25.4074C81.0472 25.4074 79.1196 29.9702 76.5137 29.9702C75.3921 29.9702 74.8075 28.9643 74.8075 27.3931C74.8075 23.4484 79.4862 19.2326 79.4862 19.2326L78.8218 17.3439H72.5898V19.2746H76.5522C75.2284 20.5651 72.7056 24.3447 72.7047 27.4197C72.704 30.2144 74.1105 32.0224 76.3991 32.0224C79.3323 32.0224 81.2537 28.8814 81.2537 28.8814C81.2537 28.8814 81.7501 32.0224 84.9524 32.0224C86.6677 32.0224 88.3063 31.0194 89.6911 29.1216C92.0791 25.8487 93.2115 20.5984 92.2231 17.3381Z" fill="#C5ABF8"/>
</g>
<defs>
<clipPath id="clip0_22425_25676">
<rect width="136" height="24" fill="white" transform="translate(24 12)"/>
</clipPath>
</defs>
</svg>
