<svg width="144" height="48" viewBox="0 0 144 48" fill="none" xmlns="http://www.w3.org/2000/svg">
<g clip-path="url(#clip0_22425_25860)">
<path d="M46.6217 28.8243L46.608 28.7816L55.1165 20.9797V17.2206H41.4661V20.9797H49.6198L49.6331 21.0156L41.2075 28.8243V32.5834H55.2536V28.8247L46.6217 28.8243ZM63.634 16.8629C62.0596 16.8629 60.7763 17.1004 59.7846 17.5764C58.8607 17.991 58.0824 18.6741 57.5508 19.537C57.0422 20.4055 56.7228 21.372 56.6135 22.3729L60.7552 22.9562C60.9052 22.072 61.2049 21.4457 61.6543 21.0765C62.1653 20.6904 62.7949 20.4954 63.4343 20.5251C64.2749 20.5251 64.8846 20.75 65.2636 21.2004C65.6392 21.6505 65.83 22.2739 65.83 23.0957V23.5054H61.8477C59.8205 23.5054 58.3643 23.9554 57.4785 24.856C56.5932 25.7561 56.1512 26.945 56.1527 28.4217C56.1527 29.9341 56.5946 31.0599 57.4789 31.7983C58.3628 32.5363 59.4745 32.9032 60.8137 32.8988C62.4752 32.8988 63.7536 32.3263 64.6479 31.1808C65.1761 30.4773 65.5533 29.6719 65.7559 28.8154H65.9063L66.4772 32.5745H70.2303V23.0549C70.2303 21.0876 69.7127 19.5637 68.6773 18.4836C67.6423 17.4028 65.9608 16.8625 63.634 16.8625V16.8629ZM64.9469 28.5969C64.3512 29.0944 63.5714 29.3419 62.6004 29.3419C61.8002 29.3419 61.2446 29.2017 60.933 28.9212C60.7812 28.7884 60.6604 28.6238 60.5792 28.4391C60.498 28.2544 60.4584 28.054 60.4633 27.8522C60.4544 27.6618 60.4844 27.4716 60.5512 27.2932C60.6181 27.1148 60.7205 26.9519 60.8523 26.8144C60.9946 26.6805 61.1626 26.577 61.346 26.5101C61.5295 26.4431 61.7246 26.4141 61.9195 26.4248H65.8367V26.6837C65.8446 27.0497 65.7685 27.4125 65.6142 27.7443C65.4599 28.076 65.2316 28.3675 64.9469 28.5969ZM92.9242 17.2206H88.4902V32.5856H92.9242V17.2206ZM119.104 17.2206C117.851 17.2206 116.864 17.6632 116.142 18.5489C115.624 19.1849 115.23 20.1251 114.96 21.3689H114.829L114.25 17.2206H110.463V32.5834H114.897V24.705C114.897 23.7117 115.129 22.9499 115.594 22.4204C116.058 21.8906 116.915 21.6256 118.165 21.6256H119.848V17.2206H119.104ZM106.062 17.7226C105.027 17.1059 103.721 16.7983 102.145 16.7998C99.6642 16.7998 97.7223 17.507 96.3201 18.9222C94.9176 20.3374 94.2167 22.2883 94.2167 24.7751C94.1809 26.2784 94.5085 27.768 95.1717 29.1171C95.7787 30.3193 96.724 31.317 97.8908 31.9871C99.0656 32.6669 100.463 33.0075 102.083 33.009C103.483 33.009 104.653 32.793 105.593 32.3608C106.476 31.9726 107.245 31.3641 107.827 30.5935C108.38 29.8371 108.792 28.9858 109.04 28.0815L105.22 27.0103C105.059 27.5982 104.749 28.1347 104.321 28.5679C103.889 28.9998 103.166 29.2161 102.152 29.2161C100.946 29.2161 100.047 28.8703 99.4553 28.1783C99.0255 27.6785 98.7562 26.965 98.6373 26.04H109.099C109.141 25.6077 109.164 25.2452 109.164 24.9528V23.9959C109.189 22.7108 108.924 21.4366 108.389 20.2684C107.887 19.2043 107.076 18.3169 106.062 17.7226ZM102.017 20.462C103.815 20.462 104.834 21.3481 105.076 23.1206H98.7158C98.8167 22.5291 99.0613 21.9716 99.4282 21.4973C100.011 20.8056 100.874 20.4606 102.017 20.462ZM90.7556 11.0282C90.422 11.0168 90.0895 11.0726 89.7779 11.1924C89.4664 11.3123 89.182 11.4936 88.9418 11.7258C88.7053 11.9604 88.5198 12.2415 88.3972 12.5515C88.2746 12.8615 88.2175 13.1936 88.2294 13.5268C88.2174 13.8622 88.2745 14.1965 88.3973 14.5087C88.52 14.821 88.7058 15.1045 88.9429 15.3416C89.1799 15.5789 89.4632 15.7647 89.775 15.8873C90.0869 16.0099 90.4207 16.0668 90.7556 16.0544C91.0883 16.0669 91.4199 16.01 91.7294 15.8871C92.0389 15.7643 92.3195 15.5783 92.5534 15.3409C92.7855 15.1011 92.9667 14.8167 93.086 14.5049C93.2054 14.193 93.2605 13.8602 93.248 13.5264C93.2635 13.1948 93.2096 12.8636 93.09 12.5539C92.9703 12.2443 92.7874 11.9631 92.553 11.7284C92.3187 11.4934 92.038 11.31 91.7289 11.1898C91.4197 11.0696 91.089 11.0154 90.7578 11.0304L90.7556 11.0282ZM81.5954 16.7998C80.085 16.7998 78.8714 17.2748 77.9546 18.2246C77.2755 18.9281 76.7776 19.9789 76.4602 21.3759H76.3186L75.7385 17.2276H71.9518V36.9999H76.3857V28.8559H76.5476C76.6828 29.399 76.8725 29.9269 77.114 30.4317C77.4891 31.254 78.1043 31.943 78.8785 32.4079C79.6808 32.8466 80.5848 33.0649 81.4987 33.0405C83.355 33.0405 84.7683 32.3162 85.7393 30.8684C86.7102 29.4202 87.1959 27.3995 87.1959 24.8063C87.1959 22.3017 86.7258 20.3411 85.7867 18.9244C84.8472 17.5081 83.4502 16.7998 81.5954 16.7998ZM82.0447 27.9331C81.5276 28.6833 80.7189 29.0584 79.6175 29.0584C79.1635 29.0794 78.711 28.9917 78.2976 28.8027C77.8841 28.6136 77.5216 28.3286 77.24 27.9713C76.6658 27.2496 76.3798 26.2611 76.3816 25.0066V24.7142C76.3816 23.4401 76.6676 22.4646 77.24 21.7878C77.8119 21.111 78.6051 20.7763 79.6175 20.7837C80.7385 20.7837 81.5524 21.1399 82.0607 21.8531C82.5686 22.5659 82.8223 23.5599 82.8223 24.8356C82.8256 26.1546 82.5678 27.1873 82.0492 27.9331H82.0447Z" fill="#C5ABF8"/>
<path d="M39.4928 28.8243H24.1523V32.5882H39.4928V28.8243Z" fill="#C5ABF8"/>
</g>
<defs>
<clipPath id="clip0_22425_25860">
<rect width="96" height="26" fill="white" transform="translate(24 11)"/>
</clipPath>
</defs>
</svg>
