<svg width="164" height="48" viewBox="0 0 164 48" fill="none" xmlns="http://www.w3.org/2000/svg">
<g clip-path="url(#clip0_21793_11648)">
<path d="M31.2979 34.4819H26.9571V23.6607H24V20.1376H26.957V17.6306C26.957 14.6598 28.2648 12.5292 32.5939 12.5292C33.5095 12.5292 34.947 12.7137 34.947 12.7137V15.9852H33.4372C31.8988 15.9852 31.2982 16.4531 31.2982 17.7468V20.1376H34.8894L34.5696 23.6607H31.298L31.2979 34.4819ZM41.2581 19.856C41.1949 19.856 41.1298 19.8583 41.0654 19.8599C37.0403 19.8599 35.1987 22.8876 35.1987 27.1855C35.1987 32.5997 37.5875 34.7666 41.0968 34.7666C43.1047 34.7666 44.4238 33.9215 45.2256 32.3444V34.4834H49.3544V20.1391H45.2256V22.345C44.5709 20.9258 43.2149 19.8728 41.2581 19.856ZM42.3079 23.2455C43.9985 23.2455 45.0132 24.4247 45.0132 26.4305L45.0171 28.4791C45.0171 29.8309 44.179 31.4125 42.3079 31.4125C39.4314 31.4125 39.5082 28.3065 39.5082 27.272C39.5082 23.7922 41.0408 23.2455 42.3079 23.2455ZM51.0218 27.312C51.0218 25.5689 50.9384 19.8653 58.3692 19.8653C61.3521 19.8653 62.5976 20.8138 62.5976 20.8138L61.5966 23.9188C61.5966 23.9188 60.3526 23.2338 58.7318 23.2338C56.6557 23.2338 55.3311 24.4373 55.3311 26.5548L55.3334 28.0731C55.3334 30.1078 56.6115 31.466 58.736 31.466C60.2127 31.466 61.5736 30.7746 61.5736 30.7746L62.5722 33.8147C62.5722 33.8147 61.4333 34.7691 58.3901 34.7691C51.3147 34.7691 51.0219 29.6519 51.0219 27.312H51.0218ZM86.8061 19.8599C90.8313 19.8599 92.7019 22.8876 92.7019 27.1855C92.7019 32.5997 90.313 34.7666 86.8037 34.7666C84.7959 34.7666 83.3116 33.9216 82.5098 32.3444V34.4834L78.433 34.4818V12.9653L82.7616 12.5878V22.1507C83.3863 20.4776 85.4393 19.8599 86.8061 19.8599ZM85.5926 23.2455C83.902 23.2455 82.7616 24.4247 82.7616 26.4305L82.7575 28.4791C82.755 29.8309 83.5473 31.4125 85.5926 31.4125C88.4691 31.4125 88.3923 28.3065 88.3923 27.272C88.3923 23.7922 86.8598 23.2455 85.5926 23.2455ZM70.108 19.8718C65.5426 19.8718 63.1324 22.3609 63.1324 26.7844V27.6062C63.1324 33.3474 66.5171 34.8256 70.5523 34.8256C74.4745 34.8256 76.2499 33.7285 76.2499 33.7285L75.4399 30.807C75.4399 30.807 73.3516 31.6956 71.0713 31.6956C68.7074 31.6956 67.6907 31.0931 67.4302 28.8213H76.5959V26.4776C76.5959 21.6793 73.8909 19.8717 70.1079 19.8717L70.108 19.8718ZM70.218 22.7972C71.7983 22.7972 72.8223 23.7662 72.7661 26.0137H67.4381C67.5305 23.6483 68.6348 22.7972 70.218 22.7972ZM101.333 19.8521C96.6445 19.8521 94.1764 22.4941 94.1764 27.2287C94.1764 33.7248 98.4309 34.7705 101.341 34.7705C105.6 34.7705 108.434 32.4772 108.434 27.2877C108.434 21.8863 105.248 19.8521 101.333 19.8521ZM101.274 23.2573C103.335 23.2573 104.152 24.8002 104.152 26.5564V28.0663C104.152 30.1938 103.009 31.4244 101.266 31.4244C99.6357 31.4244 98.4899 30.2733 98.4899 28.0663V26.5564C98.4899 24.2026 99.8533 23.2573 101.274 23.2573ZM117.057 19.8521C112.369 19.8521 109.901 22.4941 109.901 27.2287C109.901 33.7248 114.156 34.7705 117.065 34.7705C121.325 34.7705 124.159 32.4772 124.159 27.2877C124.159 21.8863 120.972 19.8521 117.057 19.8521ZM116.998 23.2573C119.06 23.2573 119.877 24.8002 119.877 26.5564V28.0663C119.877 30.1938 118.734 31.4244 116.991 31.4244C115.36 31.4244 114.215 30.2733 114.215 28.0663V26.5564C114.215 24.2026 115.578 23.2573 116.998 23.2573ZM125.795 34.4819V12.9653L130.136 12.5878V27.0096L134.442 20.1376H139.027L134.534 27.255L139.2 34.4819H134.602L130.136 27.4646V34.4819H125.795Z" fill="#C5ABF8"/>
</g>
<defs>
<clipPath id="clip0_21793_11648">
<rect width="115.2" height="22.3949" fill="white" transform="translate(24 12.4805)"/>
</clipPath>
</defs>
</svg>
