<svg width="164" height="48" viewBox="0 0 164 48" fill="none" xmlns="http://www.w3.org/2000/svg">
<g opacity="0.5">
<g clip-path="url(#clip0_22333_12542)">
<path d="M31.2979 34.482H26.9571V23.6608H24V20.1377H26.957V17.6307C26.957 14.6599 28.2648 12.5293 32.5939 12.5293C33.5095 12.5293 34.947 12.7138 34.947 12.7138V15.9853H33.4372C31.8988 15.9853 31.2982 16.4532 31.2982 17.7469V20.1377H34.8894L34.5696 23.6608H31.298L31.2979 34.482ZM41.2581 19.8561C41.1949 19.8561 41.1298 19.8584 41.0654 19.86C37.0403 19.86 35.1987 22.8877 35.1987 27.1856C35.1987 32.5998 37.5875 34.7667 41.0968 34.7667C43.1047 34.7667 44.4238 33.9216 45.2256 32.3445V34.4835H49.3544V20.1392H45.2256V22.3451C44.5709 20.9259 43.2149 19.873 41.2581 19.8561ZM42.3079 23.2457C43.9985 23.2457 45.0132 24.4248 45.0132 26.4306L45.0171 28.4792C45.0171 29.8311 44.179 31.4127 42.3079 31.4127C39.4314 31.4127 39.5082 28.3066 39.5082 27.2721C39.5082 23.7923 41.0408 23.2457 42.3079 23.2457ZM51.0218 27.3121C51.0218 25.569 50.9384 19.8655 58.3692 19.8655C61.3521 19.8655 62.5976 20.8139 62.5976 20.8139L61.5966 23.9189C61.5966 23.9189 60.3526 23.2339 58.7318 23.2339C56.6557 23.2339 55.3311 24.4374 55.3311 26.5549L55.3334 28.0732C55.3334 30.1079 56.6115 31.4661 58.736 31.4661C60.2127 31.4661 61.5736 30.7747 61.5736 30.7747L62.5722 33.8148C62.5722 33.8148 61.4333 34.7692 58.3901 34.7692C51.3147 34.7692 51.0219 29.652 51.0219 27.3121H51.0218ZM86.8061 19.86C90.8313 19.86 92.7019 22.8877 92.7019 27.1856C92.7019 32.5998 90.313 34.7667 86.8037 34.7667C84.7959 34.7667 83.3116 33.9217 82.5098 32.3445V34.4835L78.433 34.4819V12.9654L82.7616 12.5879V22.1508C83.3863 20.4778 85.4393 19.86 86.8061 19.86ZM85.5926 23.2457C83.902 23.2457 82.7616 24.4248 82.7616 26.4306L82.7575 28.4792C82.755 29.8311 83.5473 31.4127 85.5926 31.4127C88.4691 31.4127 88.3923 28.3066 88.3923 27.2721C88.3923 23.7923 86.8598 23.2457 85.5926 23.2457ZM70.108 19.8719C65.5426 19.8719 63.1324 22.361 63.1324 26.7845V27.6063C63.1324 33.3475 66.5171 34.8257 70.5523 34.8257C74.4745 34.8257 76.2499 33.7286 76.2499 33.7286L75.4399 30.8072C75.4399 30.8072 73.3516 31.6957 71.0713 31.6957C68.7074 31.6957 67.6907 31.0932 67.4302 28.8215H76.5959V26.4777C76.5959 21.6794 73.8909 19.8718 70.1079 19.8718L70.108 19.8719ZM70.218 22.7973C71.7983 22.7973 72.8223 23.7664 72.7661 26.0138H67.4381C67.5305 23.6484 68.6348 22.7973 70.218 22.7973ZM101.333 19.8522C96.6445 19.8522 94.1764 22.4942 94.1764 27.2288C94.1764 33.7249 98.4309 34.7706 101.341 34.7706C105.6 34.7706 108.434 32.4773 108.434 27.2878C108.434 21.8864 105.248 19.8522 101.333 19.8522ZM101.274 23.2574C103.335 23.2574 104.152 24.8003 104.152 26.5565V28.0664C104.152 30.1939 103.009 31.4245 101.266 31.4245C99.6357 31.4245 98.4899 30.2734 98.4899 28.0664V26.5565C98.4899 24.2027 99.8533 23.2574 101.274 23.2574ZM117.057 19.8522C112.369 19.8522 109.901 22.4942 109.901 27.2288C109.901 33.7249 114.156 34.7706 117.065 34.7706C121.325 34.7706 124.159 32.4773 124.159 27.2878C124.159 21.8864 120.972 19.8522 117.057 19.8522ZM116.998 23.2574C119.06 23.2574 119.877 24.8003 119.877 26.5565V28.0664C119.877 30.1939 118.734 31.4245 116.991 31.4245C115.36 31.4245 114.215 30.2734 114.215 28.0664V26.5565C114.215 24.2027 115.578 23.2574 116.998 23.2574ZM125.795 34.482V12.9654L130.136 12.5879V27.0097L134.442 20.1377H139.027L134.534 27.2551L139.2 34.482H134.602L130.136 27.4647V34.482H125.795Z" fill="#6C7275"/>
</g>
</g>
<defs>
<clipPath id="clip0_22333_12542">
<rect width="115.2" height="22.3949" fill="white" transform="translate(24 12.4805)"/>
</clipPath>
</defs>
</svg>
