<svg width="164" height="48" viewBox="0 0 164 48" fill="none" xmlns="http://www.w3.org/2000/svg">
<g opacity="0.5">
<path fill-rule="evenodd" clip-rule="evenodd" d="M37.4434 29.2384C40.3354 29.2384 42.6798 26.8939 42.6798 24.002C42.6798 21.11 40.3354 18.7656 37.4434 18.7656C34.5514 18.7656 32.207 21.11 32.207 24.002C32.207 26.8939 34.5514 29.2384 37.4434 29.2384ZM37.4434 27.4929C39.3713 27.4929 40.9343 25.9299 40.9343 24.002C40.9343 22.074 39.3713 20.5111 37.4434 20.5111C35.5154 20.5111 33.9525 22.074 33.9525 24.002C33.9525 25.9299 35.5154 27.4929 37.4434 27.4929Z" fill="#6C7275"/>
<path d="M42.6774 17.8906C42.1954 17.8906 41.8047 18.2814 41.8047 18.7634C41.8047 19.2453 42.1954 19.6361 42.6774 19.6361C43.1594 19.6361 43.5501 19.2453 43.5501 18.7634C43.5501 18.2814 43.1594 17.8906 42.6774 17.8906Z" fill="#6C7275"/>
<path fill-rule="evenodd" clip-rule="evenodd" d="M28.4106 17.2595C27.8398 18.3796 27.8398 19.8459 27.8398 22.7786V25.2222C27.8398 28.1548 27.8398 29.6212 28.4106 30.7412C28.9126 31.7266 29.7137 32.5276 30.699 33.0296C31.8191 33.6004 33.2854 33.6004 36.218 33.6004H38.6617C41.5943 33.6004 43.0606 33.6004 44.1807 33.0296C45.166 32.5276 45.9671 31.7266 46.4691 30.7412C47.0398 29.6212 47.0398 28.1548 47.0398 25.2222V22.7786C47.0398 19.8459 47.0398 18.3796 46.4691 17.2595C45.9671 16.2742 45.166 15.4731 44.1807 14.9711C43.0606 14.4004 41.5943 14.4004 38.6617 14.4004H36.218C33.2854 14.4004 31.8191 14.4004 30.699 14.9711C29.7137 15.4731 28.9126 16.2742 28.4106 17.2595ZM38.6617 16.1458H36.218C34.7229 16.1458 33.7065 16.1472 32.9209 16.2114C32.1557 16.2739 31.7644 16.3872 31.4914 16.5263C30.8345 16.861 30.3005 17.3951 29.9658 18.0519C29.8267 18.3249 29.7134 18.7162 29.6508 19.4815C29.5867 20.2671 29.5853 21.2835 29.5853 22.7786V25.2222C29.5853 26.7174 29.5867 27.7337 29.6508 28.5193C29.7134 29.2846 29.8267 29.6759 29.9658 29.9489C30.3005 30.6057 30.8345 31.1397 31.4914 31.4744C31.7644 31.6135 32.1557 31.7269 32.9209 31.7894C33.7065 31.8535 34.7229 31.8549 36.218 31.8549H38.6617C40.1568 31.8549 41.1731 31.8535 41.9587 31.7894C42.724 31.7269 43.1154 31.6135 43.3884 31.4744C44.0452 31.1397 44.5792 30.6057 44.9139 29.9489C45.053 29.6759 45.1664 29.2846 45.2289 28.5193C45.293 27.7337 45.2944 26.7174 45.2944 25.2222V22.7786C45.2944 21.2835 45.293 20.2671 45.2289 19.4815C45.1664 18.7162 45.053 18.3249 44.9139 18.0519C44.5792 17.3951 44.0452 16.861 43.3884 16.5263C43.1154 16.3872 42.724 16.2739 41.9587 16.2114C41.1731 16.1472 40.1568 16.1458 38.6617 16.1458Z" fill="#6C7275"/>
<path fill-rule="evenodd" clip-rule="evenodd" d="M61.0959 12.5078C61.3352 12.4526 61.5745 12.4894 61.8139 12.5446C62.1637 12.6183 62.5135 12.7287 62.808 12.9496C62.9553 13.0601 63.0842 13.2258 63.0658 13.4283C63.0658 16.7667 63.0658 20.1112 63.0658 23.4618C63.0658 24.5664 63.121 25.671 62.9185 26.7572C62.7712 27.6225 62.4398 28.5062 61.7955 29.1506C61.593 29.3899 61.3536 29.6108 61.0775 29.7581C60.8565 29.887 60.5988 29.9974 60.3227 29.979C60.2674 29.9054 60.2122 29.8317 60.2306 29.7213C60.249 29.4635 60.3411 29.2242 60.4147 28.9849C60.6724 28.138 60.7461 27.2727 60.7829 26.4074C60.8013 22.3204 60.8013 18.2518 60.8381 14.1647C60.8381 14.0665 60.8259 13.9622 60.8013 13.8517C60.654 13.8701 60.5436 13.999 60.4515 14.0911C59.9544 14.5697 59.5494 15.1404 59.2549 15.7664C58.8867 16.558 58.6841 17.4233 58.6105 18.2886C58.5369 18.8593 58.5921 19.4484 58.721 20.0007C58.8314 20.4242 59.0155 20.8476 59.2917 21.1974C59.4021 21.3262 59.439 21.5472 59.3469 21.7129C59.1996 21.8601 58.9603 21.7865 58.7946 21.7313C58.2055 21.5104 57.7084 21.1053 57.3218 20.6267C56.8431 20.0375 56.659 19.2827 56.6406 18.5463C56.6774 17.902 56.8615 17.2576 57.1009 16.6501C57.4323 15.7664 57.9477 14.9195 58.5921 14.2199C59.0155 13.7781 59.4942 13.3731 59.9913 13.0233C60.3411 12.8208 60.6909 12.6183 61.0959 12.5078ZM83.188 12.6735C83.3906 12.5078 83.6483 12.5262 83.8876 12.563C84.3111 12.6367 84.7161 12.7287 85.1027 12.8944C85.2316 12.9496 85.342 13.0233 85.4341 13.1153C85.3973 14.0358 85.3604 14.9379 85.3052 15.8584C86.2257 15.8953 87.1462 15.9443 88.0667 16.0057C88.214 16.0057 88.4349 16.0609 88.4534 16.245C88.4902 16.5212 88.4534 16.8342 88.3245 17.0919C88.2508 17.2208 88.1404 17.3865 87.9563 17.3681C87.0726 17.3865 86.1705 17.4049 85.2868 17.4233C85.2316 18.712 85.1948 19.9823 85.1579 21.271C85.1395 22.4309 85.0291 23.6091 85.1579 24.7689C85.2132 25.2292 85.2684 25.7079 85.4893 26.1129C85.5814 26.2786 85.7471 26.4443 85.9496 26.4627C86.2073 26.4811 86.4651 26.3706 86.6676 26.2049C86.9805 25.9288 87.2015 25.579 87.3856 25.2108C87.6065 24.7874 87.7538 24.3455 87.901 23.8853C87.9563 23.7012 87.901 23.4802 87.9379 23.2777C87.9379 22.2099 88.1036 21.1421 88.4718 20.1296C88.7479 19.3932 89.1529 18.6752 89.7605 18.1781C90.4416 17.6074 91.4358 17.4233 92.2458 17.7731C92.7797 17.9756 93.2032 18.399 93.4609 18.8961C93.4977 18.6568 93.4425 18.399 93.553 18.1781C93.7002 17.9388 94.0132 17.9388 94.271 17.9572C94.6023 17.994 94.9337 18.0677 95.2467 18.2333C95.4124 18.3438 95.5965 18.5095 95.6149 18.7304C95.5413 20.6819 95.4676 22.6518 95.5228 24.6033C95.5474 25.0328 95.6088 25.4563 95.7069 25.8736C95.7806 26.1681 95.8726 26.4811 96.1304 26.6836C96.3513 26.8677 96.7011 26.8125 96.922 26.6468C97.2718 26.3522 97.4743 25.9472 97.6584 25.5422C97.7137 25.4133 97.7689 25.3028 97.7505 25.174C97.6216 23.9957 97.5848 22.7991 97.7873 21.6392C97.9162 20.8476 98.1555 20.0744 98.5605 19.3932C98.9655 18.6752 99.5547 18.0677 100.309 17.7179C100.457 17.6626 100.586 17.589 100.751 17.5706C101.488 17.5706 102.243 17.8099 102.758 18.3438C102.887 18.4911 103.016 18.6568 103.108 18.8225C103.163 18.6015 103.108 18.3622 103.181 18.1597C103.31 17.902 103.623 17.8836 103.863 17.9204C104.249 17.994 104.673 18.0677 105.022 18.2702C105.243 18.399 105.243 18.6752 105.225 18.9145C105.207 21.1053 105.17 23.3145 105.151 25.5238C105.667 24.8058 106.109 24.0694 106.514 23.2961C106.992 22.3756 107.397 21.3815 107.6 20.3505C107.324 20.0928 107.084 19.7982 106.992 19.43C106.919 19.1354 106.992 18.8225 107.084 18.5279C107.213 18.0861 107.526 17.681 107.987 17.5522C108.336 17.4601 108.723 17.4417 109.054 17.6258C109.294 17.7547 109.423 18.0308 109.478 18.2886C109.515 18.5647 109.478 18.8409 109.423 19.0986C110.012 19.0066 110.601 18.9145 111.19 18.7672C111.576 18.6752 112 18.6015 112.405 18.7304C112.681 18.8041 112.902 19.0618 112.957 19.3564C113.031 19.6509 113.068 19.9823 112.939 20.2769C112.792 20.6635 112.755 21.0869 112.663 21.4919C112.479 22.5781 112.239 23.6827 112.423 24.7874C112.479 25.266 112.589 25.7631 112.773 26.2233C112.884 26.4627 113.049 26.7204 113.325 26.8125C113.583 26.8861 113.859 26.7388 114.08 26.5731C114.412 26.2786 114.651 25.8367 114.743 25.3949C114.522 24.2351 114.467 23.0384 114.651 21.8786C114.78 21.0133 115.038 20.148 115.461 19.3564C115.792 18.7672 116.253 18.2333 116.86 17.9388C117.56 17.589 118.407 17.589 119.069 17.9756C119.493 18.1965 119.806 18.5463 120.045 18.9513C120.082 18.712 120.027 18.4543 120.156 18.2333C120.34 17.994 120.671 18.0124 120.947 18.0492C121.352 18.1229 121.794 18.2149 122.07 18.5279C122.236 18.7304 122.162 19.0066 122.162 19.2643C122.126 20.5346 122.07 21.8233 122.07 23.112C122.089 24.0878 122.052 25.1003 122.31 26.0392C122.383 26.297 122.475 26.5547 122.696 26.702C122.936 26.8861 123.267 26.8493 123.506 26.6652C123.819 26.4443 124.022 26.0945 124.206 25.7631C124.353 25.4501 124.519 25.1556 124.592 24.8242C124.611 22.6518 124.611 20.4978 124.629 18.3438C124.611 18.1597 124.666 17.9388 124.85 17.8651C124.979 17.7731 125.145 17.8467 125.292 17.8651C125.66 17.9204 126.065 17.9388 126.415 18.1229C126.562 18.1781 126.691 18.307 126.691 18.4727C126.673 19.5405 126.691 20.6083 126.691 21.676C126.679 21.7988 126.679 21.9215 126.691 22.0442C127.004 21.0685 127.336 20.0928 127.722 19.1354C127.869 18.7856 128.017 18.4359 128.219 18.1045C128.348 17.8467 128.698 17.7915 128.974 17.8099C129.545 17.8651 130.171 18.1045 130.465 18.62C130.576 18.8225 130.631 19.0434 130.631 19.2643C130.613 20.3689 130.686 21.4735 130.76 22.5781C130.797 22.9279 130.797 23.2777 130.852 23.6091C130.889 23.5846 130.907 23.5539 130.907 23.5171C131.036 22.6886 131.239 21.897 131.459 21.0869C131.717 20.2216 132.012 19.338 132.38 18.4911C132.472 18.2886 132.564 18.0492 132.785 17.9388C133.08 17.7731 133.466 17.8099 133.779 17.9204C134.147 18.0492 134.534 18.1781 134.829 18.4359C135.049 18.62 135.215 18.8777 135.234 19.1723C135.141 20.8844 135.049 22.615 135.178 24.3271C135.215 24.8058 135.27 25.2844 135.399 25.7447C135.473 26.0024 135.546 26.2602 135.712 26.4811C135.878 26.6836 136.172 26.7941 136.412 26.702C136.633 26.61 136.78 26.4075 136.89 26.2049C137.148 25.7447 137.222 25.1924 137.369 24.6769C137.406 24.5112 137.48 24.3455 137.645 24.2903C137.756 24.2166 137.885 24.3087 137.977 24.3823C138.106 24.4928 138.069 24.6769 138.069 24.8242C138.032 25.6526 137.903 26.5179 137.406 27.2175C137.019 27.7882 136.32 28.1564 135.62 28.0828C134.994 28.046 134.387 27.6777 134.055 27.1439C133.613 26.4811 133.429 25.6895 133.319 24.9162C133.116 23.3698 133.172 21.8049 133.208 20.2585C133.135 20.2953 133.098 20.3505 133.061 20.4242C132.638 21.2894 132.343 22.2283 132.104 23.1673C131.809 24.3823 131.625 25.6342 131.57 26.8861C131.588 27.0518 131.459 27.1623 131.312 27.1991C130.962 27.3464 130.557 27.3648 130.208 27.1991C129.858 27.0518 129.618 26.7204 129.453 26.389C129.287 26.0392 129.213 25.6342 129.158 25.2476C128.956 23.6643 128.882 22.0442 128.808 20.4426C128.827 20.3321 128.698 20.4057 128.624 20.4057C127.851 21.7681 127.446 23.3145 127.244 24.861C127.115 25.7631 127.078 26.6836 127.078 27.5857C127.059 27.7514 126.986 27.8987 126.839 27.9907C126.562 28.138 126.249 28.138 125.936 28.1012C125.587 28.0644 125.218 28.046 124.905 27.825C124.777 27.7514 124.703 27.6041 124.703 27.4568C124.666 27.1623 124.666 26.8677 124.648 26.5731C124.482 26.8125 124.353 27.0702 124.151 27.2727C123.838 27.6409 123.433 27.9539 122.972 28.0644C122.291 28.2116 121.555 27.9907 121.095 27.4936C120.708 27.0702 120.505 26.5363 120.413 26.0024C120.064 26.7204 119.53 27.3832 118.812 27.7514C118.443 27.9539 118.057 28.046 117.67 28.1012C117.228 28.138 116.768 28.0828 116.382 27.8987C115.811 27.6041 115.369 27.0702 115.111 26.4811C114.798 27.1807 114.283 27.8434 113.528 28.0275C112.773 28.2485 111.982 27.9355 111.448 27.4016C110.766 26.7388 110.398 25.7999 110.288 24.861C110.233 24.4192 110.251 23.9589 110.288 23.4986C110.361 22.4861 110.472 21.4735 110.73 20.4794C110.73 20.4303 110.73 20.3751 110.73 20.3137C110.177 20.2953 109.643 20.3137 109.091 20.3321C108.833 21.2526 108.428 22.1363 107.987 22.9832C107.213 24.4376 106.256 25.7999 105.188 27.0518C105.207 28.2485 105.243 29.4635 105.188 30.6786C105.133 31.6359 104.986 32.5933 104.581 33.4769C104.286 34.1397 103.807 34.7288 103.163 35.0786C102.684 35.3364 102.132 35.4836 101.58 35.5205C100.899 35.4652 100.199 35.2995 99.6651 34.8393C99.2785 34.5447 99.0392 34.1029 98.9287 33.6242C98.8551 33.2008 98.8367 32.7774 98.9839 32.3723C99.2233 31.6175 99.7019 30.9732 100.217 30.384C100.751 29.7949 101.359 29.261 101.93 28.7271C102.396 28.2853 102.862 27.8557 103.329 27.4384C103.329 27.0886 103.274 26.7572 103.274 26.4259C103.053 26.702 102.868 26.9966 102.592 27.2359C101.93 27.8803 100.972 28.2116 100.052 28.1012C99.4074 27.9723 98.8735 27.5305 98.5053 27.0334C98.358 26.8493 98.223 26.6529 98.1003 26.4443C97.7689 27.1254 97.2718 27.8066 96.5354 28.046C95.7806 28.2485 94.9337 27.9539 94.4367 27.3648C94.1237 26.9598 93.9028 26.4627 93.8475 25.9656C93.5161 26.6468 93.0375 27.2543 92.3931 27.6409C91.9881 27.8987 91.5094 28.046 91.0308 28.0828C90.4969 28.1564 89.963 28.0275 89.5211 27.733C88.7295 27.1807 88.3429 26.2418 88.122 25.3397C87.9931 25.7447 87.7906 26.1129 87.5881 26.4811C87.3856 26.7941 87.1646 27.1254 86.8885 27.3832C86.5571 27.7146 86.1521 27.9723 85.6734 28.0275C85.1579 28.1012 84.5872 27.9355 84.1822 27.5857C83.8508 27.3095 83.6115 26.9413 83.4274 26.5363C83.096 25.8183 82.9671 25.0267 82.8935 24.2351C82.4885 25.1556 81.9914 26.0577 81.2734 26.7572C80.7027 27.328 80.0031 27.7698 79.2299 27.9539C78.6223 28.1012 77.978 28.1012 77.352 28.0275C76.8181 27.9907 76.2658 27.8803 75.7872 27.6041C75.5663 27.4752 75.3269 27.2911 75.2533 27.015C75.2165 26.7204 75.3821 26.4443 75.5478 26.2233C75.7135 26.0024 75.8792 25.7815 76.137 25.6895C76.3947 25.5974 76.5972 25.7999 76.7813 25.9288C77.0759 26.1681 77.4073 26.4074 77.7939 26.4995C78.1621 26.5916 78.6223 26.4627 78.8433 26.1313C79.0458 25.8183 79.101 25.4501 79.1194 25.0819C79.1194 24.4007 78.6776 23.8116 78.2173 23.3514C77.7755 22.9279 77.3336 22.5413 76.8734 22.1363C76.2474 23.2225 75.5663 24.2903 74.9219 25.3581C74.5353 26.0577 74.0566 26.7204 73.4675 27.2543C73.0441 27.6225 72.5286 27.9539 71.9579 28.0275C71.5712 28.0828 71.1846 27.8987 70.9453 27.5857C70.6323 27.1991 70.5035 26.702 70.4298 26.2233C70.3194 25.3581 70.3562 24.4744 70.3746 23.5907C70.3746 22.4861 70.4482 21.3631 70.485 20.2585C70.485 20.0191 70.5219 19.7798 70.485 19.5405C70.4114 19.5589 70.3194 19.5589 70.2825 19.6325C69.2148 20.8292 68.552 22.3204 68.0365 23.83C67.5947 25.1371 67.2817 26.4995 67.0792 27.8619C66.9135 28.0091 66.6742 28.046 66.4716 28.0091C66.1955 27.9723 65.9377 28.0091 65.68 27.9539C65.4591 27.8803 65.2934 27.6962 65.2013 27.4752C65.0172 27.0334 64.9804 26.5547 64.9988 26.0945C65.0111 23.468 65.0295 20.8353 65.0541 18.1965C65.0541 18.0677 65.0725 17.9204 65.2198 17.8651C65.4959 17.7915 65.7721 17.8651 66.0482 17.9204C66.3612 17.994 66.6926 18.0677 66.9135 18.307C67.0239 18.4174 66.9871 18.5831 66.9871 18.7304C66.9871 20.1848 66.9687 21.6576 66.9687 23.112C67.4474 21.8233 67.926 20.4978 68.6624 19.338C68.8281 19.0986 68.9938 18.8409 69.1963 18.6384C69.5461 18.2149 70.0432 17.8651 70.5955 17.8467C71.0189 17.8283 71.424 18.0308 71.7922 18.1965C72.1236 18.3806 72.4733 18.6384 72.6022 19.0066C72.6943 19.2275 72.6574 19.4668 72.6574 19.6877C72.6206 20.9396 72.5838 22.1977 72.547 23.4618C72.5286 23.9773 72.4918 24.4744 72.5286 24.9899C72.5286 25.2292 72.5654 25.4869 72.639 25.7079C72.6943 25.8367 72.7679 25.984 72.9336 26.0208C73.0809 26.0392 73.1913 25.9288 73.3018 25.8367C73.5227 25.6342 73.7068 25.3765 73.8909 25.1371C74.4248 24.4007 74.8667 23.6091 75.3269 22.8359C75.5847 22.3572 75.8608 21.8786 76.1186 21.3815C76.0265 21.2342 75.8976 21.1237 75.824 20.9765C75.5294 20.4978 75.4374 19.9087 75.6031 19.3932C75.7319 18.8593 76.0633 18.399 76.4868 18.0861C76.7813 17.8651 77.1311 17.7363 77.4993 17.6626C77.8491 17.5706 78.2357 17.6258 78.5303 17.8099C78.7512 17.9388 78.8617 18.1781 78.8617 18.4174C78.8801 18.8777 78.7144 19.3195 78.4935 19.7062C78.291 20.0928 78.0332 20.4426 77.7387 20.7739C78.6407 21.4367 79.5797 22.0627 80.3529 22.8727C80.7579 23.2961 81.1077 23.83 81.1629 24.4192C81.2182 24.7321 81.1813 25.0451 81.1261 25.3581C81.973 24.6217 82.6357 23.6091 82.8014 22.4861C82.8198 20.7739 82.8198 19.0434 82.8383 17.3312C82.0466 17.3312 81.2734 17.3128 80.4818 17.2944C80.3345 17.2024 80.2977 17.0183 80.2977 16.8526C80.2977 16.4476 80.4081 16.0425 80.6659 15.748C80.7211 15.6743 80.7947 15.6927 80.85 15.6927C81.5495 15.705 82.2491 15.7173 82.9487 15.7296C82.9855 14.9195 83.0039 14.1279 83.0408 13.3362C83.0408 13.1153 83.0408 12.8576 83.188 12.6735ZM91.7488 19.2827C91.2885 19.3748 90.9387 19.7614 90.7362 20.148C90.4416 20.6819 90.3128 21.2894 90.2207 21.897C90.1103 22.6702 90.0919 23.4618 90.1287 24.2535C90.1655 24.8426 90.2575 25.4685 90.5337 26.0208C90.681 26.3154 90.9203 26.5916 91.2517 26.702C91.4542 26.7941 91.7119 26.7757 91.9145 26.6652C92.3195 26.4627 92.614 26.0577 92.8166 25.6526C93.1848 24.8978 93.3505 24.0694 93.4241 23.2409C93.4977 22.3756 93.5161 21.5104 93.3136 20.6635C93.2032 20.2585 93.0375 19.8534 92.7245 19.5773C92.4668 19.3195 92.0986 19.2091 91.7488 19.2827ZM101.506 19.3195C100.954 19.4668 100.586 19.9455 100.328 20.4426C99.9781 21.2158 99.8308 22.0442 99.7572 22.8911C99.7204 23.83 99.7204 24.7874 99.9965 25.7079C100.144 26.1313 100.402 26.5731 100.825 26.7572C101.083 26.8861 101.414 26.8677 101.672 26.702C101.874 26.5731 102.058 26.389 102.206 26.1865C102.556 25.7079 102.758 25.1556 102.887 24.6033C103.089 23.7748 103.163 22.9095 103.163 22.0627C103.145 21.4735 103.108 20.8844 102.924 20.3321C102.795 19.9823 102.611 19.6509 102.316 19.4484C102.077 19.2827 101.782 19.2459 101.506 19.3195ZM118.462 19.3932C117.983 19.4668 117.615 19.8534 117.394 20.2585C117.007 20.9949 116.879 21.8417 116.805 22.6702C116.75 23.5907 116.731 24.548 116.934 25.4501C117.044 25.892 117.228 26.3522 117.597 26.6468C117.836 26.8309 118.167 26.9413 118.462 26.8309C118.83 26.702 119.106 26.3706 119.327 26.0392C119.806 25.2292 119.99 24.2719 120.082 23.333C120.156 22.4861 120.174 21.6024 119.972 20.7739C119.861 20.3505 119.677 19.9455 119.364 19.6693C119.125 19.4484 118.775 19.338 118.462 19.3932ZM102.666 29.666C101.819 30.5129 101.027 31.4518 100.567 32.5564C100.383 32.9615 100.291 33.4033 100.42 33.8267C100.512 34.1581 100.77 34.4343 101.101 34.5263C101.506 34.6184 101.966 34.6184 102.335 34.3975C102.684 34.1765 102.887 33.8267 103.034 33.4401C103.274 32.7405 103.329 31.9673 103.366 31.2125C103.384 30.4945 103.402 29.7581 103.402 29.0217C103.126 29.2058 102.905 29.4451 102.666 29.666Z" fill="#6C7275"/>
</g>
</svg>
