<svg width="164" height="48" viewBox="0 0 164 48" fill="none" xmlns="http://www.w3.org/2000/svg">
<path fill-rule="evenodd" clip-rule="evenodd" d="M37.4414 29.2374C40.3334 29.2374 42.6778 26.893 42.6778 24.001C42.6778 21.109 40.3334 18.7646 37.4414 18.7646C34.5495 18.7646 32.2051 21.109 32.2051 24.001C32.2051 26.893 34.5495 29.2374 37.4414 29.2374ZM37.4414 27.4919C39.3694 27.4919 40.9324 25.929 40.9324 24.001C40.9324 22.073 39.3694 20.5101 37.4414 20.5101C35.5135 20.5101 33.9505 22.073 33.9505 24.001C33.9505 25.929 35.5135 27.4919 37.4414 27.4919Z" fill="#C5ABF8"/>
<path d="M42.6774 17.8916C42.1954 17.8916 41.8047 18.2823 41.8047 18.7643C41.8047 19.2463 42.1954 19.6371 42.6774 19.6371C43.1594 19.6371 43.5501 19.2463 43.5501 18.7643C43.5501 18.2823 43.1594 17.8916 42.6774 17.8916Z" fill="#C5ABF8"/>
<path fill-rule="evenodd" clip-rule="evenodd" d="M28.4106 17.2595C27.8398 18.3796 27.8398 19.8459 27.8398 22.7786V25.2222C27.8398 28.1548 27.8398 29.6212 28.4106 30.7412C28.9126 31.7266 29.7137 32.5276 30.699 33.0296C31.8191 33.6004 33.2854 33.6004 36.218 33.6004H38.6617C41.5943 33.6004 43.0606 33.6004 44.1807 33.0296C45.166 32.5276 45.9671 31.7266 46.4691 30.7412C47.0398 29.6212 47.0398 28.1548 47.0398 25.2222V22.7786C47.0398 19.8459 47.0398 18.3796 46.4691 17.2595C45.9671 16.2742 45.166 15.4731 44.1807 14.9711C43.0606 14.4004 41.5943 14.4004 38.6617 14.4004H36.218C33.2854 14.4004 31.8191 14.4004 30.699 14.9711C29.7137 15.4731 28.9126 16.2742 28.4106 17.2595ZM38.6617 16.1458H36.218C34.7229 16.1458 33.7065 16.1472 32.9209 16.2114C32.1557 16.2739 31.7644 16.3872 31.4914 16.5263C30.8345 16.861 30.3005 17.3951 29.9658 18.0519C29.8267 18.3249 29.7134 18.7162 29.6508 19.4815C29.5867 20.2671 29.5853 21.2835 29.5853 22.7786V25.2222C29.5853 26.7174 29.5867 27.7337 29.6508 28.5193C29.7134 29.2846 29.8267 29.6759 29.9658 29.9489C30.3005 30.6057 30.8345 31.1397 31.4914 31.4744C31.7644 31.6135 32.1557 31.7269 32.9209 31.7894C33.7065 31.8535 34.7229 31.8549 36.218 31.8549H38.6617C40.1568 31.8549 41.1731 31.8535 41.9587 31.7894C42.724 31.7269 43.1154 31.6135 43.3884 31.4744C44.0452 31.1397 44.5792 30.6057 44.9139 29.9489C45.053 29.6759 45.1664 29.2846 45.2289 28.5193C45.293 27.7337 45.2944 26.7174 45.2944 25.2222V22.7786C45.2944 21.2835 45.293 20.2671 45.2289 19.4815C45.1664 18.7162 45.053 18.3249 44.9139 18.0519C44.5792 17.3951 44.0452 16.861 43.3884 16.5263C43.1154 16.3872 42.724 16.2739 41.9587 16.2114C41.1731 16.1472 40.1568 16.1458 38.6617 16.1458Z" fill="#C5ABF8"/>
<path fill-rule="evenodd" clip-rule="evenodd" d="M61.0949 12.5078C61.3342 12.4526 61.5736 12.4894 61.8129 12.5446C62.1627 12.6183 62.5125 12.7287 62.807 12.9496C62.9543 13.0601 63.0832 13.2258 63.0648 13.4283C63.0648 16.7667 63.0648 20.1112 63.0648 23.4618C63.0648 24.5664 63.12 25.671 62.9175 26.7572C62.7702 27.6225 62.4388 28.5062 61.7945 29.1506C61.592 29.3899 61.3526 29.6108 61.0765 29.7581C60.8556 29.887 60.5978 29.9974 60.3217 29.979C60.2664 29.9054 60.2112 29.8317 60.2296 29.7213C60.248 29.4635 60.3401 29.2242 60.4137 28.9849C60.6715 28.138 60.7451 27.2727 60.7819 26.4074C60.8003 22.3204 60.8003 18.2518 60.8372 14.1647C60.8372 14.0665 60.8249 13.9622 60.8003 13.8517C60.6531 13.8701 60.5426 13.999 60.4505 14.0911C59.9535 14.5697 59.5484 15.1404 59.2539 15.7664C58.8857 16.558 58.6832 17.4233 58.6095 18.2886C58.5359 18.8593 58.5911 19.4484 58.72 20.0007C58.8305 20.4242 59.0146 20.8476 59.2907 21.1974C59.4012 21.3262 59.438 21.5472 59.3459 21.7129C59.1987 21.8601 58.9593 21.7865 58.7936 21.7313C58.2045 21.5104 57.7074 21.1053 57.3208 20.6267C56.8422 20.0375 56.6581 19.2827 56.6396 18.5463C56.6765 17.902 56.8606 17.2576 57.0999 16.6501C57.4313 15.7664 57.9468 14.9195 58.5911 14.2199C59.0146 13.7781 59.4932 13.3731 59.9903 13.0233C60.3401 12.8208 60.6899 12.6183 61.0949 12.5078ZM83.1871 12.6735C83.3896 12.5078 83.6473 12.5262 83.8867 12.563C84.3101 12.6367 84.7151 12.7287 85.1017 12.8944C85.2306 12.9496 85.3411 13.0233 85.4331 13.1153C85.3963 14.0358 85.3595 14.9379 85.3042 15.8584C86.2247 15.8953 87.1453 15.9443 88.0658 16.0057C88.213 16.0057 88.434 16.0609 88.4524 16.245C88.4892 16.5212 88.4524 16.8342 88.3235 17.0919C88.2499 17.2208 88.1394 17.3865 87.9553 17.3681C87.0716 17.3865 86.1695 17.4049 85.2858 17.4233C85.2306 18.712 85.1938 19.9823 85.157 21.271C85.1385 22.4309 85.0281 23.6091 85.157 24.7689C85.2122 25.2292 85.2674 25.7079 85.4883 26.1129C85.5804 26.2786 85.7461 26.4443 85.9486 26.4627C86.2063 26.4811 86.4641 26.3706 86.6666 26.2049C86.9796 25.9288 87.2005 25.579 87.3846 25.2108C87.6055 24.7874 87.7528 24.3455 87.9001 23.8853C87.9553 23.7012 87.9001 23.4802 87.9369 23.2777C87.9369 22.2099 88.1026 21.1421 88.4708 20.1296C88.7469 19.3932 89.152 18.6752 89.7595 18.1781C90.4407 17.6074 91.4348 17.4233 92.2449 17.7731C92.7788 17.9756 93.2022 18.399 93.4599 18.8961C93.4967 18.6568 93.4415 18.399 93.552 18.1781C93.6993 17.9388 94.0122 17.9388 94.27 17.9572C94.6014 17.994 94.9327 18.0677 95.2457 18.2333C95.4114 18.3438 95.5955 18.5095 95.6139 18.7304C95.5403 20.6819 95.4666 22.6518 95.5219 24.6033C95.5464 25.0328 95.6078 25.4563 95.706 25.8736C95.7796 26.1681 95.8717 26.4811 96.1294 26.6836C96.3503 26.8677 96.7001 26.8125 96.921 26.6468C97.2708 26.3522 97.4733 25.9472 97.6575 25.5422C97.7127 25.4133 97.7679 25.3028 97.7495 25.174C97.6206 23.9957 97.5838 22.7991 97.7863 21.6392C97.9152 20.8476 98.1545 20.0744 98.5595 19.3932C98.9646 18.6752 99.5537 18.0677 100.309 17.7179C100.456 17.6626 100.585 17.589 100.75 17.5706C101.487 17.5706 102.242 17.8099 102.757 18.3438C102.886 18.4911 103.015 18.6568 103.107 18.8225C103.162 18.6015 103.107 18.3622 103.18 18.1597C103.309 17.902 103.622 17.8836 103.862 17.9204C104.248 17.994 104.672 18.0677 105.022 18.2702C105.242 18.399 105.242 18.6752 105.224 18.9145C105.206 21.1053 105.169 23.3145 105.15 25.5238C105.666 24.8058 106.108 24.0694 106.513 23.2961C106.991 22.3756 107.396 21.3815 107.599 20.3505C107.323 20.0928 107.083 19.7982 106.991 19.43C106.918 19.1354 106.991 18.8225 107.083 18.5279C107.212 18.0861 107.525 17.681 107.986 17.5522C108.335 17.4601 108.722 17.4417 109.053 17.6258C109.293 17.7547 109.422 18.0308 109.477 18.2886C109.514 18.5647 109.477 18.8409 109.422 19.0986C110.011 19.0066 110.6 18.9145 111.189 18.7672C111.576 18.6752 111.999 18.6015 112.404 18.7304C112.68 18.8041 112.901 19.0618 112.956 19.3564C113.03 19.6509 113.067 19.9823 112.938 20.2769C112.791 20.6635 112.754 21.0869 112.662 21.4919C112.478 22.5781 112.238 23.6827 112.422 24.7874C112.478 25.266 112.588 25.7631 112.772 26.2233C112.883 26.4627 113.048 26.7204 113.324 26.8125C113.582 26.8861 113.858 26.7388 114.079 26.5731C114.411 26.2786 114.65 25.8367 114.742 25.3949C114.521 24.2351 114.466 23.0384 114.65 21.8786C114.779 21.0133 115.037 20.148 115.46 19.3564C115.791 18.7672 116.252 18.2333 116.859 17.9388C117.559 17.589 118.406 17.589 119.068 17.9756C119.492 18.1965 119.805 18.5463 120.044 18.9513C120.081 18.712 120.026 18.4543 120.155 18.2333C120.339 17.994 120.67 18.0124 120.946 18.0492C121.351 18.1229 121.793 18.2149 122.069 18.5279C122.235 18.7304 122.161 19.0066 122.161 19.2643C122.125 20.5346 122.069 21.8233 122.069 23.112C122.088 24.0878 122.051 25.1003 122.309 26.0392C122.382 26.297 122.474 26.5547 122.695 26.702C122.935 26.8861 123.266 26.8493 123.505 26.6652C123.818 26.4443 124.021 26.0945 124.205 25.7631C124.352 25.4501 124.518 25.1556 124.591 24.8242C124.61 22.6518 124.61 20.4978 124.628 18.3438C124.61 18.1597 124.665 17.9388 124.849 17.8651C124.978 17.7731 125.144 17.8467 125.291 17.8651C125.659 17.9204 126.064 17.9388 126.414 18.1229C126.561 18.1781 126.69 18.307 126.69 18.4727C126.672 19.5405 126.69 20.6083 126.69 21.676C126.678 21.7988 126.678 21.9215 126.69 22.0442C127.003 21.0685 127.335 20.0928 127.721 19.1354C127.868 18.7856 128.016 18.4359 128.218 18.1045C128.347 17.8467 128.697 17.7915 128.973 17.8099C129.544 17.8651 130.17 18.1045 130.464 18.62C130.575 18.8225 130.63 19.0434 130.63 19.2643C130.612 20.3689 130.685 21.4735 130.759 22.5781C130.796 22.9279 130.796 23.2777 130.851 23.6091C130.888 23.5846 130.906 23.5539 130.906 23.5171C131.035 22.6886 131.238 21.897 131.458 21.0869C131.716 20.2216 132.011 19.338 132.379 18.4911C132.471 18.2886 132.563 18.0492 132.784 17.9388C133.079 17.7731 133.465 17.8099 133.778 17.9204C134.146 18.0492 134.533 18.1781 134.828 18.4359C135.048 18.62 135.214 18.8777 135.233 19.1723C135.14 20.8844 135.048 22.615 135.177 24.3271C135.214 24.8058 135.269 25.2844 135.398 25.7447C135.472 26.0024 135.546 26.2602 135.711 26.4811C135.877 26.6836 136.171 26.7941 136.411 26.702C136.632 26.61 136.779 26.4075 136.889 26.2049C137.147 25.7447 137.221 25.1924 137.368 24.6769C137.405 24.5112 137.479 24.3455 137.644 24.2903C137.755 24.2166 137.884 24.3087 137.976 24.3823C138.105 24.4928 138.068 24.6769 138.068 24.8242C138.031 25.6526 137.902 26.5179 137.405 27.2175C137.018 27.7882 136.319 28.1564 135.619 28.0828C134.993 28.046 134.386 27.6777 134.054 27.1439C133.612 26.4811 133.428 25.6895 133.318 24.9162C133.115 23.3698 133.171 21.8049 133.207 20.2585C133.134 20.2953 133.097 20.3505 133.06 20.4242C132.637 21.2894 132.342 22.2283 132.103 23.1673C131.808 24.3823 131.624 25.6342 131.569 26.8861C131.587 27.0518 131.458 27.1623 131.311 27.1991C130.961 27.3464 130.556 27.3648 130.207 27.1991C129.857 27.0518 129.617 26.7204 129.452 26.389C129.286 26.0392 129.212 25.6342 129.157 25.2476C128.955 23.6643 128.881 22.0442 128.807 20.4426C128.826 20.3321 128.697 20.4057 128.623 20.4057C127.85 21.7681 127.445 23.3145 127.243 24.861C127.114 25.7631 127.077 26.6836 127.077 27.5857C127.058 27.7514 126.985 27.8987 126.838 27.9907C126.561 28.138 126.248 28.138 125.935 28.1012C125.586 28.0644 125.217 28.046 124.904 27.825C124.776 27.7514 124.702 27.6041 124.702 27.4568C124.665 27.1623 124.665 26.8677 124.647 26.5731C124.481 26.8125 124.352 27.0702 124.15 27.2727C123.837 27.6409 123.432 27.9539 122.971 28.0644C122.29 28.2116 121.554 27.9907 121.094 27.4936C120.707 27.0702 120.504 26.5363 120.412 26.0024C120.063 26.7204 119.529 27.3832 118.811 27.7514C118.442 27.9539 118.056 28.046 117.669 28.1012C117.227 28.138 116.767 28.0828 116.381 27.8987C115.81 27.6041 115.368 27.0702 115.11 26.4811C114.797 27.1807 114.282 27.8434 113.527 28.0275C112.772 28.2485 111.981 27.9355 111.447 27.4016C110.765 26.7388 110.397 25.7999 110.287 24.861C110.232 24.4192 110.25 23.9589 110.287 23.4986C110.36 22.4861 110.471 21.4735 110.729 20.4794C110.729 20.4303 110.729 20.3751 110.729 20.3137C110.176 20.2953 109.642 20.3137 109.09 20.3321C108.832 21.2526 108.427 22.1363 107.986 22.9832C107.212 24.4376 106.255 25.7999 105.187 27.0518C105.206 28.2485 105.242 29.4635 105.187 30.6786C105.132 31.6359 104.985 32.5933 104.58 33.4769C104.285 34.1397 103.806 34.7288 103.162 35.0786C102.683 35.3364 102.131 35.4836 101.579 35.5205C100.898 35.4652 100.198 35.2995 99.6641 34.8393C99.2775 34.5447 99.0382 34.1029 98.9277 33.6242C98.8541 33.2008 98.8357 32.7774 98.983 32.3723C99.2223 31.6175 99.701 30.9732 100.216 30.384C100.75 29.7949 101.358 29.261 101.929 28.7271C102.395 28.2853 102.861 27.8557 103.328 27.4384C103.328 27.0886 103.273 26.7572 103.273 26.4259C103.052 26.702 102.868 26.9966 102.591 27.2359C101.929 27.8803 100.971 28.2116 100.051 28.1012C99.4064 27.9723 98.8725 27.5305 98.5043 27.0334C98.357 26.8493 98.222 26.6529 98.0993 26.4443C97.7679 27.1254 97.2708 27.8066 96.5344 28.046C95.7796 28.2485 94.9327 27.9539 94.4357 27.3648C94.1227 26.9598 93.9018 26.4627 93.8465 25.9656C93.5152 26.6468 93.0365 27.2543 92.3921 27.6409C91.9871 27.8987 91.5085 28.046 91.0298 28.0828C90.4959 28.1564 89.962 28.0275 89.5202 27.733C88.7285 27.1807 88.3419 26.2418 88.121 25.3397C87.9921 25.7447 87.7896 26.1129 87.5871 26.4811C87.3846 26.7941 87.1637 27.1254 86.8875 27.3832C86.5561 27.7146 86.1511 27.9723 85.6724 28.0275C85.157 28.1012 84.5862 27.9355 84.1812 27.5857C83.8498 27.3095 83.6105 26.9413 83.4264 26.5363C83.095 25.8183 82.9662 25.0267 82.8925 24.2351C82.4875 25.1556 81.9904 26.0577 81.2724 26.7572C80.7017 27.328 80.0021 27.7698 79.2289 27.9539C78.6214 28.1012 77.977 28.1012 77.3511 28.0275C76.8172 27.9907 76.2649 27.8803 75.7862 27.6041C75.5653 27.4752 75.3259 27.2911 75.2523 27.015C75.2155 26.7204 75.3812 26.4443 75.5469 26.2233C75.7126 26.0024 75.8782 25.7815 76.136 25.6895C76.3937 25.5974 76.5962 25.7999 76.7803 25.9288C77.0749 26.1681 77.4063 26.4074 77.7929 26.4995C78.1611 26.5916 78.6214 26.4627 78.8423 26.1313C79.0448 25.8183 79.1 25.4501 79.1184 25.0819C79.1184 24.4007 78.6766 23.8116 78.2163 23.3514C77.7745 22.9279 77.3326 22.5413 76.8724 22.1363C76.2464 23.2225 75.5653 24.2903 74.9209 25.3581C74.5343 26.0577 74.0556 26.7204 73.4665 27.2543C73.0431 27.6225 72.5276 27.9539 71.9569 28.0275C71.5703 28.0828 71.1837 27.8987 70.9443 27.5857C70.6314 27.1991 70.5025 26.702 70.4288 26.2233C70.3184 25.3581 70.3552 24.4744 70.3736 23.5907C70.3736 22.4861 70.4473 21.3631 70.4841 20.2585C70.4841 20.0191 70.5209 19.7798 70.4841 19.5405C70.4104 19.5589 70.3184 19.5589 70.2816 19.6325C69.2138 20.8292 68.551 22.3204 68.0355 23.83C67.5937 25.1371 67.2807 26.4995 67.0782 27.8619C66.9125 28.0091 66.6732 28.046 66.4707 28.0091C66.1945 27.9723 65.9368 28.0091 65.679 27.9539C65.4581 27.8803 65.2924 27.6962 65.2004 27.4752C65.0163 27.0334 64.9794 26.5547 64.9979 26.0945C65.0101 23.468 65.0285 20.8353 65.0531 18.1965C65.0531 18.0677 65.0715 17.9204 65.2188 17.8651C65.4949 17.7915 65.7711 17.8651 66.0472 17.9204C66.3602 17.994 66.6916 18.0677 66.9125 18.307C67.023 18.4174 66.9861 18.5831 66.9861 18.7304C66.9861 20.1848 66.9677 21.6576 66.9677 23.112C67.4464 21.8233 67.9251 20.4978 68.6615 19.338C68.8272 19.0986 68.9929 18.8409 69.1954 18.6384C69.5452 18.2149 70.0422 17.8651 70.5945 17.8467C71.018 17.8283 71.423 18.0308 71.7912 18.1965C72.1226 18.3806 72.4724 18.6384 72.6012 19.0066C72.6933 19.2275 72.6565 19.4668 72.6565 19.6877C72.6197 20.9396 72.5828 22.1977 72.546 23.4618C72.5276 23.9773 72.4908 24.4744 72.5276 24.9899C72.5276 25.2292 72.5644 25.4869 72.6381 25.7079C72.6933 25.8367 72.7669 25.984 72.9326 26.0208C73.0799 26.0392 73.1904 25.9288 73.3008 25.8367C73.5217 25.6342 73.7058 25.3765 73.8899 25.1371C74.4238 24.4007 74.8657 23.6091 75.3259 22.8359C75.5837 22.3572 75.8598 21.8786 76.1176 21.3815C76.0255 21.2342 75.8967 21.1237 75.823 20.9765C75.5285 20.4978 75.4364 19.9087 75.6021 19.3932C75.731 18.8593 76.0623 18.399 76.4858 18.0861C76.7803 17.8651 77.1301 17.7363 77.4983 17.6626C77.8481 17.5706 78.2347 17.6258 78.5293 17.8099C78.7502 17.9388 78.8607 18.1781 78.8607 18.4174C78.8791 18.8777 78.7134 19.3195 78.4925 19.7062C78.29 20.0928 78.0322 20.4426 77.7377 20.7739C78.6398 21.4367 79.5787 22.0627 80.3519 22.8727C80.7569 23.2961 81.1067 23.83 81.162 24.4192C81.2172 24.7321 81.1804 25.0451 81.1251 25.3581C81.972 24.6217 82.6348 23.6091 82.8005 22.4861C82.8189 20.7739 82.8189 19.0434 82.8373 17.3312C82.0456 17.3312 81.2724 17.3128 80.4808 17.2944C80.3335 17.2024 80.2967 17.0183 80.2967 16.8526C80.2967 16.4476 80.4071 16.0425 80.6649 15.748C80.7201 15.6743 80.7938 15.6927 80.849 15.6927C81.5486 15.705 82.2482 15.7173 82.9477 15.7296C82.9846 14.9195 83.003 14.1279 83.0398 13.3362C83.0398 13.1153 83.0398 12.8576 83.1871 12.6735ZM91.7478 19.2827C91.2875 19.3748 90.9377 19.7614 90.7352 20.148C90.4407 20.6819 90.3118 21.2894 90.2197 21.897C90.1093 22.6702 90.0909 23.4618 90.1277 24.2535C90.1645 24.8426 90.2566 25.4685 90.5327 26.0208C90.68 26.3154 90.9193 26.5916 91.2507 26.702C91.4532 26.7941 91.711 26.7757 91.9135 26.6652C92.3185 26.4627 92.6131 26.0577 92.8156 25.6526C93.1838 24.8978 93.3495 24.0694 93.4231 23.2409C93.4968 22.3756 93.5152 21.5104 93.3127 20.6635C93.2022 20.2585 93.0365 19.8534 92.7235 19.5773C92.4658 19.3195 92.0976 19.2091 91.7478 19.2827ZM101.505 19.3195C100.953 19.4668 100.585 19.9455 100.327 20.4426C99.9771 21.2158 99.8298 22.0442 99.7562 22.8911C99.7194 23.83 99.7194 24.7874 99.9955 25.7079C100.143 26.1313 100.401 26.5731 100.824 26.7572C101.082 26.8861 101.413 26.8677 101.671 26.702C101.873 26.5731 102.057 26.389 102.205 26.1865C102.555 25.7079 102.757 25.1556 102.886 24.6033C103.088 23.7748 103.162 22.9095 103.162 22.0627C103.144 21.4735 103.107 20.8844 102.923 20.3321C102.794 19.9823 102.61 19.6509 102.315 19.4484C102.076 19.2827 101.781 19.2459 101.505 19.3195ZM118.461 19.3932C117.982 19.4668 117.614 19.8534 117.393 20.2585C117.007 20.9949 116.878 21.8417 116.804 22.6702C116.749 23.5907 116.73 24.548 116.933 25.4501C117.043 25.892 117.227 26.3522 117.596 26.6468C117.835 26.8309 118.166 26.9413 118.461 26.8309C118.829 26.702 119.105 26.3706 119.326 26.0392C119.805 25.2292 119.989 24.2719 120.081 23.333C120.155 22.4861 120.173 21.6024 119.971 20.7739C119.86 20.3505 119.676 19.9455 119.363 19.6693C119.124 19.4484 118.774 19.338 118.461 19.3932ZM102.665 29.666C101.818 30.5129 101.027 31.4518 100.566 32.5564C100.382 32.9615 100.29 33.4033 100.419 33.8267C100.511 34.1581 100.769 34.4343 101.1 34.5263C101.505 34.6184 101.965 34.6184 102.334 34.3975C102.683 34.1765 102.886 33.8267 103.033 33.4401C103.273 32.7405 103.328 31.9673 103.365 31.2125C103.383 30.4945 103.401 29.7581 103.401 29.0217C103.125 29.2058 102.904 29.4451 102.665 29.666Z" fill="#C5ABF8"/>
</svg>
