<svg width="512" height="512" viewBox="0 0 512 512" fill="none" xmlns="http://www.w3.org/2000/svg">
<rect width="512" height="512" rx="64" fill="white"/>
<path d="M112 375.986L190.45 199.477C201.925 173.672 220.675 151.843 244.45 136.69L354.625 66.1761C356.875 64.7508 359.5 64.0007 362.125 64.0007C369.775 63.9257 376 70.1519 376 77.8784V79.0786C376 81.029 375.625 82.9043 374.95 84.7047L330.1 196.626C328.675 200.152 328 203.903 328 207.653C328 211.779 328.9 215.905 330.55 219.731L400 375.986H244.675L253.525 349.431L283.825 339.304C288.7 337.654 292 333.078 292 327.902C292 322.726 288.7 318.15 283.825 316.5L253.525 306.373L243.4 276.067C241.75 271.266 237.175 267.965 232 267.965C226.825 267.965 222.25 271.266 220.6 276.142L210.475 306.448L180.175 316.575C175.3 318.225 172 322.801 172 327.977C172 333.153 175.3 337.729 180.175 339.379L210.475 349.506L219.325 375.986H112ZM273.7 170.071C272.875 167.596 270.625 165.945 268 165.945C265.375 165.945 263.125 167.596 262.3 170.071L257.275 185.224L242.125 190.25C239.65 191.075 238 193.326 238 195.951C238 198.577 239.65 200.827 242.125 201.652L257.275 206.678L262.3 221.831C263.125 224.307 265.375 225.957 268 225.957C270.625 225.957 272.875 224.307 273.7 221.831L278.725 206.678L293.875 201.652C296.35 200.827 298 198.577 298 195.951C298 193.326 296.35 191.075 293.875 190.25L278.725 185.224L273.7 170.071ZM88 399.991H424C437.275 399.991 448 410.718 448 423.995C448 437.273 437.275 448 424 448H88C74.725 448 64 437.273 64 423.995C64 410.718 74.725 399.991 88 399.991Z" fill="#4F3AF6"/>
</svg>
