<svg width="190" height="48" viewBox="0 0 190 48" fill="none" xmlns="http://www.w3.org/2000/svg">
<g clip-path="url(#clip0_22425_25989)">
<path d="M153.648 10.7628C152.343 10.7634 151.093 11.2794 150.17 12.1975C149.247 13.1156 148.727 14.3609 148.724 15.6603V19.8044L156.489 13.5255L150.123 21.1883H154.27C155.575 21.1883 156.827 20.6723 157.751 19.7536C158.674 18.8348 159.194 17.5885 159.196 16.2882V10.7628H153.648Z" fill="#6C7275" fill-opacity="0.4"/>
<path d="M166 31.001C166 28.8226 165.132 26.7334 163.586 25.1928C162.04 23.6521 159.943 22.7863 157.757 22.7856H150.494L166 39.3947V31.001Z" fill="#6C7275" fill-opacity="0.4"/>
<path d="M148.724 24.5488V31.7846C148.724 33.9635 149.593 36.0531 151.14 37.5938C152.686 39.1344 154.783 40 156.97 40H165.582L148.724 24.5488Z" fill="#6C7275" fill-opacity="0.4"/>
<path d="M140.077 21.1883H145.318L133.851 8.41693V14.9847C133.851 16.63 134.507 18.2079 135.675 19.3713C136.842 20.5347 138.426 21.1883 140.077 21.1883Z" fill="#6C7275" fill-opacity="0.4"/>
<path d="M147.088 14.2011C147.088 12.5565 146.432 10.9792 145.265 9.81626C144.098 8.65333 142.515 8 140.864 8H134.269L147.088 19.4252V14.2011Z" fill="#6C7275" fill-opacity="0.4"/>
<path d="M27.8192 23.1825C28.0528 23.149 28.2771 23.1239 28.4923 23.1071L29.1981 23.082L29.8535 23.1071L30.5619 23.1825L34.3433 35.238C33.8975 35.303 33.4476 35.3366 32.9971 35.3385C32.5808 35.3381 32.1652 35.3045 31.7543 35.238L31.0837 32.8219H27.078L26.3898 35.2355C26.0057 35.2998 25.6171 35.3334 25.2277 35.336C24.8164 35.3354 24.4059 35.3018 24 35.2355L27.8192 23.1825ZM30.5115 30.7926L29.1149 25.7317L27.6503 30.7926H30.5115ZM40.5296 22.9816C40.7274 22.949 40.9268 22.9272 41.127 22.9162L41.7068 22.8987L42.2942 22.9162C42.4978 22.9269 42.7006 22.9487 42.9017 22.9816V34.9492C42.3745 35.1061 41.8371 35.2269 41.2934 35.3109C40.6386 35.4014 39.978 35.4434 39.317 35.4365C38.7389 35.4354 38.1641 35.3508 37.6104 35.1853C37.0815 35.0319 36.591 34.7692 36.1709 34.4142C35.7407 34.0414 35.4041 33.5735 35.1878 33.048C34.7214 31.8113 34.7035 30.4511 35.1374 29.2027C35.3314 28.6589 35.6342 28.1599 36.0272 27.736C36.4239 27.3163 36.9026 26.9821 37.4339 26.7539C38.0132 26.5089 38.6373 26.3866 39.2666 26.3948L39.8968 26.4199C40.1108 26.4352 40.3227 26.4714 40.5296 26.5279V22.9816ZM40.5296 28.3639C40.3497 28.3159 40.167 28.279 39.9825 28.2533C39.8066 28.2357 39.6299 28.2274 39.4531 28.2282C39.1305 28.2187 38.8107 28.2898 38.5227 28.435C38.2347 28.5802 37.9878 28.7949 37.8045 29.0596C37.6165 29.327 37.4821 29.628 37.4087 29.9462C37.323 30.2946 37.2806 30.6523 37.2826 31.0111C37.2729 31.406 37.3292 31.7998 37.449 32.1764C37.5432 32.4599 37.7019 32.7178 37.9129 32.9299C38.1113 33.125 38.3544 33.269 38.6212 33.3493C38.9048 33.4347 39.1997 33.4771 39.496 33.4749C39.6703 33.476 39.8445 33.4676 40.0178 33.4498C40.1945 33.4284 40.3691 33.3923 40.5397 33.3418L40.5296 28.3639ZM43.9479 26.5857C44.1971 26.5332 44.4499 26.4996 44.7042 26.4852L45.3016 26.4676L45.9747 26.4852C46.1842 26.4956 46.3925 26.5233 46.5974 26.5681L48.4981 33.0228L50.3661 26.5681C50.5577 26.5346 50.7594 26.5095 50.9712 26.4927L51.6115 26.4676L52.1913 26.4852C52.4454 26.5014 52.6981 26.5349 52.9475 26.5857L49.6502 35.2355C49.4272 35.2698 49.2025 35.2916 48.9771 35.3008L48.3897 35.3184C48.2335 35.3184 48.0293 35.3184 47.8175 35.3008C47.6128 35.2922 47.4094 35.2644 47.21 35.218L43.9479 26.5857ZM55.5592 31.6314C55.6046 32.302 55.839 32.7867 56.2651 33.0906C56.7644 33.4125 57.3524 33.5706 57.9465 33.5427C58.339 33.5414 58.7305 33.5044 59.1162 33.4322C59.5034 33.3622 59.8838 33.2588 60.2531 33.1233C60.3889 33.3788 60.4963 33.6483 60.5733 33.927C60.6636 34.2547 60.7144 34.592 60.7245 34.9316C59.7766 35.279 58.7724 35.4493 57.7625 35.4339C57.0552 35.4501 56.351 35.336 55.6852 35.0974C55.1481 34.9006 54.6641 34.5825 54.271 34.1681C53.9017 33.7602 53.6263 33.2767 53.4643 32.7516C53.2886 32.1702 53.2036 31.5654 53.2122 30.9583C53.2073 30.3504 53.2974 29.7453 53.4795 29.1651C53.6461 28.6307 53.9177 28.1346 54.2786 27.7058C54.6397 27.2881 55.0879 26.9538 55.592 26.7263C56.1664 26.474 56.7895 26.3506 57.4171 26.3646C57.9724 26.3554 58.5232 26.4641 59.033 26.6836C59.4903 26.8877 59.8998 27.1845 60.2355 27.5551C60.576 27.9372 60.8334 28.3852 60.9918 28.8712C61.162 29.3995 61.2471 29.9514 61.2438 30.5062L61.2186 31.1341L61.1581 31.6364L55.5592 31.6314ZM58.975 29.9713C58.9779 29.5019 58.8235 29.0449 58.5364 28.6728C58.396 28.5065 58.219 28.3747 58.0193 28.2876C57.8195 28.2004 57.6022 28.1604 57.3843 28.1705C57.1497 28.1544 56.9143 28.188 56.6936 28.2689C56.4729 28.3499 56.2719 28.4764 56.1037 28.6401C55.7891 29.0123 55.6065 29.4776 55.5844 29.9637L58.975 29.9713ZM62.8219 26.5681L63.2933 26.4927C63.4667 26.4749 63.6409 26.4665 63.8152 26.4676C63.9835 26.4676 64.1518 26.476 64.3193 26.4927C64.4656 26.5112 64.6168 26.5363 64.7731 26.5681C64.8162 26.6469 64.8476 26.7315 64.8664 26.8192L64.942 27.1558L65 27.4999L65.0428 27.7837C65.1632 27.6055 65.2981 27.4375 65.4462 27.2814C65.6089 27.1085 65.7926 26.9566 65.9932 26.8293C66.2106 26.6898 66.4454 26.5792 66.6915 26.5003C66.9688 26.4139 67.2581 26.3716 67.5486 26.3747C68.5368 26.3747 69.2805 26.6434 69.7796 27.1809C70.2788 27.7184 70.5309 28.5614 70.5359 29.7101V35.2355C69.745 35.3694 68.937 35.3694 68.1461 35.2355V30.353C68.1723 29.8734 68.0769 29.3949 67.8688 28.9616C67.7693 28.7985 67.6258 28.6665 67.4546 28.5808C67.2834 28.495 67.0915 28.459 66.9007 28.4769C66.7021 28.4779 66.5045 28.5058 66.3134 28.5598C66.1053 28.6185 65.9165 28.7311 65.7663 28.8863C65.5848 29.0797 65.4495 29.3115 65.3706 29.5644C65.2586 29.9338 65.2075 30.3189 65.2193 30.7046V35.2481C64.4284 35.382 63.6204 35.382 62.8295 35.2481L62.8219 26.5681ZM72.6938 28.3789H71.6022L71.5165 28.0449L74.6626 24.0264H75.0508V26.5681H77.0852C77.1166 26.7182 77.1393 26.87 77.1533 27.0227L77.1709 27.4421L77.1533 27.8942C77.1394 28.0569 77.1167 28.2187 77.0852 28.3789H75.0508V31.7821C75.0439 32.0641 75.0719 32.3458 75.134 32.621C75.1789 32.8052 75.2651 32.977 75.3861 33.1233C75.4897 33.2447 75.6276 33.3322 75.7819 33.3745C75.9627 33.4226 76.1494 33.4454 76.3365 33.4423C76.5055 33.4421 76.6741 33.4278 76.8407 33.3996L77.2692 33.3242C77.348 33.539 77.4046 33.7611 77.4381 33.9873C77.4692 34.1893 77.486 34.3932 77.4885 34.5976V34.909C77.4885 34.9944 77.4759 35.0723 77.4633 35.1602C76.9398 35.2849 76.4033 35.3473 75.8651 35.346C74.845 35.346 74.066 35.1083 73.5282 34.6328C72.9904 34.1572 72.7207 33.3837 72.719 32.3121L72.6938 28.3789ZM79.3465 28.3789H78.2196C78.186 28.2272 78.1608 28.0738 78.144 27.9193C78.1272 27.7658 78.1188 27.6116 78.1188 27.4572C78.1182 27.158 78.152 26.8596 78.2196 26.5681H81.6859V35.2355C81.2968 35.3006 80.9031 35.3342 80.5086 35.336C80.1191 35.3334 79.7305 35.2998 79.3465 35.2355V28.3789ZM78.9935 25.1139C78.9267 24.7434 78.893 24.3677 78.8927 23.9912C78.8938 23.6148 78.9275 23.2392 78.9935 22.8685C79.197 22.832 79.4023 22.8069 79.6086 22.7932L80.2036 22.7681L80.8262 22.7932C81.0351 22.806 81.243 22.8312 81.4489 22.8685C81.4839 23.0535 81.5067 23.2406 81.517 23.4286L81.5346 23.9912L81.517 24.5438C81.5064 24.735 81.4837 24.9255 81.4489 25.1139C81.2461 25.1478 81.0416 25.1704 80.8363 25.1817L80.2212 25.1968C80.0296 25.1968 79.8405 25.1968 79.6162 25.1817C79.4075 25.17 79.1996 25.1465 78.9935 25.1114V25.1139ZM85.3437 31.4631C84.7927 31.3276 84.2858 31.0535 83.8715 30.667C83.5185 30.3154 83.3421 29.7879 83.3421 29.0847C83.3236 28.704 83.3963 28.3244 83.5541 27.9773C83.7119 27.6301 83.9503 27.3253 84.2496 27.088C84.863 26.6091 85.6958 26.3688 86.7478 26.3672C87.1824 26.3672 87.6161 26.4067 88.0436 26.4852C88.4843 26.5674 88.9176 26.685 89.3393 26.8368C89.3142 27.144 89.2576 27.4478 89.1704 27.7435C89.0924 28.0275 88.9851 28.3028 88.8503 28.5648C88.5614 28.445 88.2639 28.3467 87.9604 28.2709C87.6252 28.1854 87.2804 28.1432 86.9344 28.1454C86.6268 28.1286 86.32 28.1891 86.042 28.3212C85.9399 28.3742 85.8553 28.4555 85.7985 28.5554C85.7417 28.6552 85.7151 28.7692 85.7218 28.8838C85.7118 28.9822 85.7274 29.0815 85.7672 29.1721C85.8069 29.2627 85.8694 29.3416 85.9487 29.4011C86.1511 29.5246 86.3689 29.6208 86.5966 29.6875L87.557 29.9713C87.8497 30.0538 88.1341 30.1631 88.4066 30.2978C88.648 30.4204 88.867 30.5826 89.0545 30.7775C89.2414 30.9804 89.3839 31.2199 89.4729 31.4807C89.5815 31.8104 89.6327 32.1561 89.6242 32.5029C89.6299 32.9022 89.5436 33.2974 89.3721 33.6583C89.1939 34.0218 88.9353 34.3404 88.6158 34.5901C88.2551 34.8663 87.848 35.0764 87.4133 35.2104C86.8956 35.3679 86.3564 35.4442 85.8151 35.4365C85.5454 35.4365 85.2983 35.4365 85.0739 35.4113C84.8566 35.395 84.6402 35.3665 84.4261 35.326L83.811 35.1853C83.6093 35.13 83.3925 35.0572 83.1555 34.9668C83.1794 34.6576 83.2334 34.3514 83.3169 34.0526C83.4 33.7448 83.5096 33.4449 83.6446 33.1559C83.9856 33.2929 84.3371 33.4021 84.6958 33.4825C85.0353 33.5565 85.3819 33.5936 85.7294 33.593C85.8983 33.5908 86.0667 33.5765 86.2336 33.5503C86.4079 33.524 86.5777 33.4733 86.7377 33.3996C86.8876 33.3327 87.0223 33.2361 87.1335 33.1158C87.2496 32.9623 87.3053 32.7717 87.29 32.5801C87.2746 32.3885 87.1894 32.2092 87.0503 32.076C86.8407 31.9366 86.6101 31.8315 86.3672 31.7645L85.3437 31.4631ZM91.4418 28.3789H90.3502L90.2645 28.0449L93.4106 24.0264H93.7988V26.5681H95.8458C95.8771 26.7182 95.8999 26.87 95.9138 27.0227L95.9315 27.4421L95.9138 27.8942C95.8999 28.0569 95.8772 28.2187 95.8458 28.3789H93.8114V31.7821C93.8045 32.0641 93.8325 32.3458 93.8946 32.621C93.9395 32.8052 94.0257 32.977 94.1467 33.1233C94.2503 33.2447 94.3882 33.3322 94.5425 33.3745C94.7233 33.4226 94.9099 33.4454 95.0971 33.4423C95.266 33.4421 95.4347 33.4278 95.6012 33.3996L96.0298 33.3242C96.1086 33.539 96.1651 33.7611 96.1987 33.9873C96.2297 34.1893 96.2466 34.3932 96.2491 34.5976V34.909C96.2491 34.9944 96.2365 35.0723 96.2239 35.1602C95.7004 35.2849 95.1639 35.3473 94.6257 35.346C93.6038 35.346 92.8249 35.1083 92.2888 34.6328C91.7527 34.1572 91.4829 33.3837 91.4796 32.3121L91.4418 28.3789Z" fill="#6C7275" fill-opacity="0.4"/>
<path d="M99.2036 23.1598C99.6102 23.093 100.022 23.0594 100.434 23.0594C100.852 23.06 101.269 23.0936 101.682 23.1598V27.8967H105.743V23.1598C106.149 23.093 106.561 23.0594 106.973 23.0594C107.391 23.0596 107.808 23.0932 108.221 23.1598V35.2355C107.814 35.3003 107.403 35.3338 106.991 35.336C106.573 35.3347 106.156 35.3012 105.743 35.2355V30.0114H101.682V35.2355C101.275 35.3003 100.863 35.3338 100.451 35.336C100.034 35.3347 99.6163 35.3012 99.2036 35.2355V23.1598ZM112.156 31.6239C112.199 32.297 112.436 32.7817 112.862 33.0856C113.363 33.4076 113.953 33.5656 114.548 33.5377C115.337 33.5342 116.119 33.3922 116.858 33.1183C116.994 33.3744 117.101 33.6448 117.178 33.9245C117.271 34.2516 117.321 34.5892 117.329 34.9291C116.379 35.2776 115.373 35.4479 114.362 35.4314C113.654 35.4479 112.949 35.3338 112.282 35.0949C111.744 34.8981 111.259 34.5791 110.865 34.1631C110.494 33.7551 110.218 33.2706 110.056 32.744C109.702 31.572 109.702 30.322 110.056 29.15C110.224 28.6147 110.496 28.1179 110.858 27.6882C111.219 27.2693 111.668 26.9341 112.174 26.7062C112.75 26.456 113.373 26.3334 114.001 26.347C114.557 26.3366 115.109 26.4454 115.62 26.666C116.079 26.8685 116.489 27.1655 116.825 27.5375C117.166 27.9201 117.423 28.3691 117.581 28.8561C117.751 29.3853 117.836 29.938 117.833 30.4937L117.808 31.1241L117.747 31.6264L112.156 31.6239ZM115.577 29.9612C115.578 29.4901 115.421 29.0323 115.131 28.6602C114.99 28.4934 114.813 28.3613 114.613 28.2741C114.412 28.187 114.194 28.1472 113.976 28.1579C113.741 28.141 113.506 28.1742 113.285 28.2552C113.064 28.3362 112.863 28.4631 112.695 28.6276C112.378 28.9996 112.194 29.466 112.171 29.9537L115.577 29.9612ZM123.772 29.5242C123.782 29.2986 123.735 29.0742 123.636 28.8712C123.552 28.7076 123.423 28.5703 123.266 28.4743C123.086 28.3722 122.888 28.3064 122.683 28.281C122.433 28.2466 122.18 28.2299 121.927 28.2307C121.262 28.2427 120.603 28.3658 119.978 28.5949C119.834 28.3326 119.715 28.0567 119.625 27.7711C119.541 27.4704 119.501 27.159 119.507 26.8468C119.99 26.6836 120.486 26.5601 120.989 26.4776C121.447 26.403 121.91 26.3643 122.373 26.3621C123.54 26.3621 124.452 26.6417 125.111 27.201C125.77 27.7602 126.098 28.6527 126.097 29.8783V34.9165C125.626 35.0581 125.148 35.1754 124.665 35.2682C124.037 35.3857 123.4 35.442 122.761 35.4364C122.232 35.4407 121.703 35.3902 121.183 35.2857C120.744 35.2005 120.326 35.0298 119.953 34.7834C119.616 34.5534 119.343 34.2413 119.162 33.8767C118.964 33.4507 118.869 32.9846 118.884 32.5155C118.867 32.0414 118.987 31.5723 119.23 31.1642C119.453 30.806 119.759 30.5063 120.122 30.2902C120.501 30.0683 120.914 29.9097 121.345 29.8205C121.788 29.7256 122.24 29.6776 122.693 29.6774L123.772 29.7276V29.5242ZM123.772 31.2547L123.334 31.1969C123.194 31.1807 123.053 31.1723 122.913 31.1718C122.459 31.1492 122.008 31.2499 121.607 31.4631C121.448 31.5629 121.319 31.704 121.234 31.8713C121.149 32.0385 121.112 32.2256 121.125 32.4125C121.109 32.6515 121.175 32.8888 121.312 33.0856C121.429 33.2365 121.582 33.3549 121.758 33.4297C121.935 33.5037 122.122 33.5487 122.313 33.5628L122.817 33.5879C122.986 33.5881 123.154 33.5747 123.321 33.5477L123.76 33.4724L123.772 31.2547ZM127.912 22.9589C128.306 22.8922 128.706 22.8586 129.107 22.8585C129.502 22.859 129.897 22.8926 130.286 22.9589V31.7746C130.282 32.0562 130.302 32.3378 130.347 32.6159C130.371 32.7946 130.434 32.9659 130.531 33.1183C130.61 33.2357 130.726 33.3239 130.861 33.3694C131.025 33.418 131.195 33.4401 131.365 33.4347C131.456 33.4347 131.554 33.4297 131.66 33.4196C131.765 33.4083 131.87 33.3916 131.973 33.3694C132.094 33.8072 132.157 34.259 132.159 34.7131V34.9643C132.158 35.0491 132.146 35.1335 132.124 35.2154C131.913 35.2781 131.696 35.3177 131.476 35.3335L130.775 35.3686C130.016 35.4054 129.271 35.15 128.696 34.6553C128.171 34.1781 127.91 33.4029 127.912 32.3296V22.9589ZM133.248 28.3663H132.147L132.064 28.0298L135.215 24.0113H135.603V26.548H137.642C137.673 26.6973 137.695 26.8482 137.708 27C137.72 27.1395 137.726 27.2795 137.726 27.4195L137.708 27.8741C137.695 28.0376 137.673 28.2002 137.642 28.3613H135.603V31.7746C135.596 32.0573 135.624 32.3399 135.686 32.6159C135.731 32.8002 135.817 32.9719 135.938 33.1183C136.042 33.24 136.18 33.3276 136.334 33.3694C136.516 33.4178 136.703 33.4406 136.891 33.4372C137.06 33.4383 137.229 33.424 137.395 33.3945L137.826 33.3192C137.905 33.5338 137.961 33.756 137.993 33.9822C138.025 34.1849 138.042 34.3898 138.043 34.5951V34.9065C138.043 34.9894 138.028 35.0723 138.018 35.1576C137.494 35.2821 136.956 35.3445 136.417 35.3435C135.394 35.3435 134.613 35.1057 134.075 34.6302C133.537 34.1547 133.268 33.3795 133.266 32.3045L133.248 28.3663ZM139.256 22.9589C139.451 22.9253 139.648 22.9027 139.846 22.8911C140.047 22.8811 140.244 22.876 140.436 22.876C140.627 22.876 140.824 22.8811 141.025 22.8911C141.227 22.9045 141.429 22.9271 141.63 22.9589V27.5903C141.709 27.4898 141.814 27.3693 141.943 27.2286C142.088 27.076 142.249 26.9404 142.425 26.8242C142.639 26.685 142.871 26.5752 143.115 26.4977C143.414 26.4038 143.727 26.3588 144.04 26.3646C145.008 26.3646 145.742 26.6325 146.241 27.1683C146.74 27.7041 146.992 28.5497 146.997 29.705V35.2506C146.796 35.2854 146.594 35.3081 146.39 35.3184L145.8 35.336C145.608 35.336 145.412 35.336 145.21 35.3184C145.006 35.3081 144.804 35.2854 144.603 35.2506V30.3304C144.63 29.8488 144.531 29.3684 144.315 28.9365C144.214 28.7731 144.069 28.641 143.897 28.5549C143.725 28.4689 143.532 28.4323 143.34 28.4492C143.14 28.4511 142.942 28.4798 142.75 28.5346C142.541 28.5938 142.352 28.7064 142.2 28.8611C142.018 29.0566 141.881 29.2887 141.797 29.5418C141.677 29.9105 141.622 30.2972 141.635 30.6845V35.2506C141.435 35.2853 141.233 35.3079 141.03 35.3184L140.441 35.336C140.251 35.336 140.055 35.336 139.858 35.3184C139.658 35.3076 139.458 35.285 139.261 35.2506L139.256 22.9589Z" fill="#6C7275" fill-opacity="0.4"/>
</g>
<defs>
<clipPath id="clip0_22425_25989">
<rect width="142" height="32" fill="white" transform="translate(24 8)"/>
</clipPath>
</defs>
</svg>
