<svg width="145" height="48" viewBox="0 0 145 48" fill="none" xmlns="http://www.w3.org/2000/svg">
<g clip-path="url(#clip0_22425_25868)">
<path fill-rule="evenodd" clip-rule="evenodd" d="M24 17.4668L34.5254 12L45.173 17.4668L34.5254 22.9826L24 17.4668ZM87.2258 20.1389V20.0163C87.2258 18.2022 88.2759 17.6384 90.0587 17.761V14.4515C85.785 14.2063 83.7581 16.3391 83.7581 20.0163V20.1389H81.8288V23.4239H83.7581V33.4014H87.2014V23.4239H89.2528H90.0587H91.182V33.4014H94.6254V23.4239H97.4582V20.1389H94.6254V20.0163C94.6254 18.2022 95.6755 17.6384 97.4582 17.761V14.4515C93.1845 14.1818 91.1576 16.3391 91.1576 19.9918V20.1144H90.0342H89.2283H87.2258V20.1389ZM63.0735 23.7426C64.1725 22.8601 64.8318 21.6098 64.8318 20.0163C64.8318 16.903 62.3165 14.7947 59.1417 14.7947H51.7666V33.3769H59.7278C62.9758 33.3769 65.5889 31.1706 65.5889 27.9837C65.5644 26.0715 64.5876 24.6006 63.0735 23.7426ZM59.1662 18.2268C60.3628 18.2268 61.1687 19.1093 61.1687 20.286C61.1687 21.4627 60.3139 22.3453 59.1662 22.3453H55.4786V18.2268H59.1662ZM59.7278 29.9694H55.4786V25.6057H59.7278C60.9977 25.6057 61.9013 26.5373 61.9013 27.7875C61.9013 29.0378 60.9977 29.9694 59.7278 29.9694ZM76.3585 20.1144V27.2727C76.3585 29.5771 75.0886 30.5577 73.4036 30.5577C71.8406 30.5577 70.7417 29.6261 70.7417 27.8121V20.1144H67.2983V28.2778C67.2983 31.808 69.4962 33.7692 72.3779 33.7692C74.185 33.7692 75.577 33.1073 76.3585 31.906V33.4014H79.8019V20.1144H76.3585ZM111.818 28.1553H101.707C102.22 29.8958 103.661 30.6558 105.468 30.6558C106.811 30.6558 107.91 30.0919 108.472 29.332L111.256 30.9254C110.011 32.7395 108.008 33.7692 105.419 33.7692C100.926 33.7692 98.0931 30.7048 98.0931 26.7579C98.0931 22.7865 100.95 19.7467 105.175 19.7467C109.131 19.7467 111.964 22.8601 111.964 26.7579C111.94 27.2727 111.891 27.714 111.818 28.1553ZM105.151 22.8355C103.295 22.8355 102.025 23.8161 101.634 25.5077H108.472C108.057 23.5955 106.616 22.8355 105.151 22.8355ZM116.946 22.4188V20.1389H113.503V33.4259H116.946V27.0521C116.946 24.2574 119.217 23.4484 121.024 23.669V19.8693C119.315 19.8693 117.63 20.6047 116.946 22.4188ZM34.5254 32.3718L27.3457 28.4494L24 30.2635L34.5254 36L45.173 30.2635L41.7784 28.4494L34.5254 32.3718ZM27.3457 22.2962L34.5254 25.8509L41.8029 22.2962L45.1974 23.9632L34.5254 29.1359L24 23.9387L27.3457 22.2962Z" fill="#6C7275" fill-opacity="0.4"/>
</g>
<defs>
<clipPath id="clip0_22425_25868">
<rect width="97" height="24" fill="white" transform="translate(24 12)"/>
</clipPath>
</defs>
</svg>
