<svg width="122" height="48" viewBox="0 0 122 48" fill="none" xmlns="http://www.w3.org/2000/svg">
<g clip-path="url(#clip0_22425_26020)">
<path d="M59.9103 29.1725C59.5042 29.5602 59.033 29.8832 58.4967 30.1093C57.9767 30.3354 57.3916 30.4484 56.7742 30.4484C56.4492 30.4484 56.1405 30.4162 55.8481 30.3516C55.5556 30.2871 55.263 30.1901 54.9868 30.0771C54.7107 29.9479 54.4505 29.8025 54.2069 29.641C53.9631 29.4632 53.7355 29.2695 53.5407 29.0595L61.2264 26.1039L64.4925 24.8441C64.3139 23.7135 63.9076 22.6476 63.2902 21.7269C61.8927 19.6273 59.4879 18.2545 56.7742 18.2545C52.4681 18.2545 48.9585 21.7432 48.9585 26.0231C48.9585 26.4269 48.9908 26.8146 49.0559 27.2022C49.2347 28.3327 49.6408 29.3988 50.2584 30.3193C50.6157 30.8361 51.022 31.3206 51.4932 31.7406C51.9646 32.1606 52.4681 32.532 53.037 32.839C53.5893 33.1457 54.1907 33.3881 54.8243 33.5493C55.458 33.711 56.108 33.7918 56.7905 33.7918C57.8628 33.7918 58.9028 33.5818 59.8289 33.1782C60.7715 32.7904 61.6002 32.2089 62.315 31.5145C63.0303 30.8039 63.5989 29.9801 63.989 29.0434C64.1512 28.6557 64.2812 28.2357 64.3788 27.8159H60.8366C60.6253 28.3327 60.3164 28.7849 59.9103 29.1725ZM56.7905 21.5816C58.0578 21.5816 59.2115 22.1308 60.0242 22.9706L52.3382 25.9263C52.3868 23.5359 54.3694 21.5816 56.7905 21.5816Z" fill="#6C7275" fill-opacity="0.4"/>
<path d="M45.7669 27.3175L45.7506 10.2026H42.3511L42.3674 27.2362C42.3674 30.8316 44.7747 33.3859 48.288 33.6461V30.2947C46.808 30.0507 45.7669 28.8793 45.7669 27.3175Z" fill="#6C7275" fill-opacity="0.4"/>
<path d="M45.7298 27.3495L45.7135 10.2346H42.314L42.3303 27.2682C42.3303 30.8637 44.7376 33.4179 48.2509 33.6781V30.3267C46.7709 30.0827 45.7298 28.9114 45.7298 27.3495Z" fill="#6C7275" fill-opacity="0.4"/>
<path d="M81.7212 25.7478C81.556 21.6132 78.0751 18.2861 73.8021 18.2861C69.4303 18.2861 65.8667 21.7747 65.8667 26.0546C65.8667 30.3345 69.4303 33.8233 73.8021 33.8233C75.4849 33.8233 77.0523 33.3064 78.339 32.418V33.6778H81.754L81.7212 25.78V25.7478ZM73.8021 30.4963C71.311 30.4963 69.2816 28.5097 69.2816 26.0709C69.2816 23.6321 71.311 21.6455 73.8021 21.6455C76.2933 21.6455 78.3225 23.632 78.3225 26.0709C78.3225 28.5097 76.2933 30.4963 73.8021 30.4963Z" fill="#6C7275" fill-opacity="0.4"/>
<path d="M90.6269 18.1978C86.6002 18.1978 83.3359 21.4565 83.3359 25.4764V33.7183H86.8019V25.471C86.8019 23.3806 88.4994 21.6859 90.5933 21.6859H90.6604C92.7544 21.6859 94.452 23.3806 94.452 25.471V33.7183H97.9179V25.4764C97.9179 21.4565 94.6537 18.1978 90.6269 18.1978Z" fill="#6C7275" fill-opacity="0.4"/>
<path fill-rule="evenodd" clip-rule="evenodd" d="M35.2306 18.9335L37.4519 16.0953L40.1473 18.1976L37.9423 21.0151C39.0805 22.374 39.7656 24.1241 39.7656 26.034C39.7656 30.3575 36.2549 33.8623 31.9241 33.8623C27.5933 33.8623 24.0825 30.3574 24.0825 26.034C24.0825 21.7105 27.5933 18.2056 31.9241 18.2056C33.1055 18.2056 34.2259 18.4664 35.2306 18.9335ZM31.9241 30.5002C29.4533 30.5002 27.4503 28.5006 27.4503 26.034C27.4503 23.5674 29.4533 21.5677 31.9241 21.5677C34.3949 21.5677 36.3978 23.5674 36.3978 26.034C36.3978 28.5006 34.3949 30.5002 31.9241 30.5002ZM39.8569 32.731C39.6627 32.9607 39.458 33.1799 39.2444 33.3931C39.0307 33.6048 38.8081 33.8077 38.5766 34.0002C38.3465 34.1925 38.1075 34.3745 37.8595 34.546C37.613 34.7175 37.3575 34.8801 37.0961 35.0292C36.8361 35.1798 36.5687 35.3171 36.2953 35.4438C36.0234 35.5707 35.7455 35.6856 35.4617 35.7868C35.1793 35.8898 34.8925 35.9793 34.5996 36.0554C34.3113 36.1345 34.017 36.1985 33.7197 36.2493C33.4254 36.3015 33.1266 36.3402 32.8249 36.3655C32.5275 36.391 32.2273 36.4042 31.924 36.4042C31.6207 36.4042 31.3204 36.391 31.0232 36.3655C30.7214 36.3402 30.4226 36.3015 30.1283 36.2493C29.831 36.1985 29.5367 36.1345 29.2483 36.0554L28.3684 39.3335C28.7508 39.4365 29.1423 39.5229 29.5382 39.5916C29.9281 39.6601 30.3255 39.7123 30.7273 39.7452C31.1217 39.7795 31.5206 39.7974 31.924 39.7974C32.3274 39.7974 32.7262 39.7795 33.1207 39.7452C33.5225 39.7123 33.9184 39.6601 34.3098 39.5916C34.7057 39.5229 35.0956 39.4365 35.4796 39.3335C35.868 39.2321 36.2505 39.1128 36.624 38.9755C37.0019 38.8398 37.3709 38.6878 37.7325 38.5192C38.0955 38.3507 38.4511 38.1673 38.7962 37.9689C39.1428 37.769 39.4804 37.5543 39.8076 37.3246C40.1363 37.0965 40.4545 36.8547 40.7607 36.5981C41.0685 36.3418 41.3643 36.0731 41.6466 35.7913C41.9305 35.5094 42.2009 35.2172 42.4594 34.9114C42.7178 34.6072 42.9628 34.2895 43.1929 33.9628L40.4097 32.0165C40.2364 32.2626 40.0511 32.5013 39.8569 32.731Z" fill="#6C7275" fill-opacity="0.4"/>
</g>
<defs>
<clipPath id="clip0_22425_26020">
<rect width="74" height="30" fill="white" transform="translate(24 10)"/>
</clipPath>
</defs>
</svg>
