<svg width="193" height="48" viewBox="0 0 193 48" fill="none" xmlns="http://www.w3.org/2000/svg">
<g clip-path="url(#clip0_22425_25900)">
<path d="M66.2257 29.4757C65.4642 29.8707 64.6691 30.1592 63.8405 30.3354C63.0119 30.5115 62.1681 30.5996 61.309 30.5996C60.392 30.5996 59.5481 30.4569 58.7774 30.1714C58.0066 29.8858 57.3364 29.4758 56.7729 28.9412C56.2092 28.4066 55.7706 27.7597 55.4568 27.0004C55.143 26.241 54.9846 25.3935 54.9846 24.458C54.9846 23.5226 55.143 22.6751 55.4568 21.9158C55.7706 21.1564 56.2092 20.5095 56.7729 19.9749C57.3364 19.4403 58.0036 19.0302 58.7774 18.7447C59.5512 18.4592 60.395 18.3165 61.309 18.3165C62.2473 18.3165 63.1093 18.4289 63.9014 18.6536C64.6904 18.8784 65.3819 19.2672 65.979 19.8169L64.1573 21.7973C63.8039 21.4328 63.4079 21.1594 62.9661 20.9711C62.5245 20.7828 61.973 20.6917 61.3119 20.6917C60.7606 20.6917 60.261 20.7859 59.8132 20.9711C59.3654 21.1594 58.9815 21.4207 58.6616 21.7548C58.3417 22.0919 58.095 22.4898 57.9244 22.9515C57.7538 23.4132 57.6685 23.9143 57.6685 24.455C57.6685 25.0047 57.7538 25.509 57.9244 25.9646C58.095 26.4202 58.3417 26.8181 58.6616 27.1522C58.9815 27.4893 59.3654 27.7505 59.8132 27.9358C60.261 28.1241 60.7606 28.2152 61.3119 28.2152C61.8756 28.2152 62.3599 28.1515 62.7681 28.024C63.1763 27.8963 63.5024 27.7688 63.746 27.6352V25.7368H61.644V23.3585H66.2288V29.4757H66.2257Z" fill="#6C7275" fill-opacity="0.4"/>
<path d="M80.8606 25.7946C80.8606 26.4872 80.7539 27.125 80.5468 27.7082C80.3366 28.2913 80.0259 28.7986 79.6116 29.2269C79.1973 29.6551 78.6824 29.9923 78.064 30.2352C77.4456 30.4783 76.7328 30.5998 75.9285 30.5998C75.112 30.5998 74.3931 30.4783 73.7777 30.2352C73.1593 29.9923 72.6445 29.6582 72.2302 29.2269C71.8159 28.7986 71.5051 28.2913 71.2949 27.7082C71.0847 27.125 70.9812 26.4872 70.9812 25.7946V18.6143H73.5646V25.6944C73.5646 26.0589 73.6224 26.393 73.7381 26.7028C73.854 27.0096 74.0153 27.2769 74.2255 27.5046C74.4358 27.7295 74.6856 27.9056 74.9781 28.0332C75.2704 28.1607 75.5873 28.2245 75.9285 28.2245C76.2697 28.2245 76.5865 28.1607 76.8729 28.0332C77.1592 27.9056 77.4091 27.7295 77.6193 27.5046C77.8295 27.2799 77.991 27.0126 78.1067 26.7028C78.2224 26.396 78.2803 26.0589 78.2803 25.6944V18.6143H80.8636V25.7946H80.8606Z" fill="#6C7275" fill-opacity="0.4"/>
<path d="M85.6951 18.6143H88.2784V30.3021H85.6951V18.6143Z" fill="#6C7275" fill-opacity="0.4"/>
<path d="M96.9882 18.6143C97.9265 18.6143 98.8159 18.7175 99.6628 18.9271C100.507 19.1367 101.244 19.4738 101.872 19.9416C102.502 20.4094 102.999 21.0168 103.37 21.764C103.739 22.5113 103.925 23.4194 103.925 24.4886C103.925 25.4362 103.745 26.2685 103.386 26.9883C103.026 27.7082 102.545 28.3157 101.935 28.8046C101.329 29.2937 100.629 29.6673 99.8334 29.9194C99.0383 30.1715 98.2067 30.2991 97.3324 30.2991H93.1101V18.6143H96.9882ZM95.6964 27.9238H97.0369C97.634 27.9238 98.1884 27.8631 98.7002 27.7415C99.212 27.6201 99.6568 27.4196 100.031 27.1402C100.406 26.8607 100.702 26.4902 100.918 26.0346C101.134 25.579 101.241 25.0201 101.241 24.358C101.241 23.7869 101.134 23.2887 100.918 22.8635C100.702 22.4414 100.412 22.0921 100.05 21.8157C99.6842 21.5393 99.2577 21.3358 98.7672 21.196C98.2767 21.0593 97.7588 20.9895 97.2197 20.9895H95.6964V27.9238Z" fill="#6C7275" fill-opacity="0.4"/>
<path d="M108.26 18.6143H116.223V20.9925H110.843V23.1703H115.924V25.5486H110.843V27.9269H116.522V30.3051H108.26V18.6143Z" fill="#6C7275" fill-opacity="0.4"/>
<path d="M119.848 18.6143H122.663L124.534 26.1075H124.567L127.016 18.6143H129.417L131.851 26.308H131.885L133.855 18.6173H136.472L133.045 30.3051H130.745L128.162 22.2166H128.128L125.545 30.3051H123.327L119.848 18.6143Z" fill="#6C7275" fill-opacity="0.4"/>
<path d="M139.118 18.6143H141.701V30.3021H139.118V18.6143Z" fill="#6C7275" fill-opacity="0.4"/>
<path d="M146.536 18.6143H151.072C151.67 18.6143 152.233 18.672 152.769 18.7874C153.305 18.9028 153.774 19.0942 154.176 19.3645C154.578 19.6348 154.898 19.9963 155.136 20.4549C155.374 20.9105 155.492 21.4815 155.492 22.1619C155.492 22.9881 155.276 23.6897 154.846 24.2668C154.417 24.8439 153.786 25.2115 152.96 25.3633L155.94 30.2991H152.845L150.396 25.6276H149.122V30.2991H146.539V18.6143H146.536ZM149.12 23.4528H150.643C150.874 23.4528 151.121 23.4437 151.38 23.4285C151.639 23.4133 151.873 23.3617 152.084 23.2796C152.293 23.1977 152.467 23.0671 152.605 22.8908C152.741 22.7147 152.811 22.4687 152.811 22.1467C152.811 21.8491 152.751 21.6122 152.629 21.436C152.507 21.2598 152.352 21.1262 152.165 21.032C151.977 20.9379 151.764 20.8741 151.52 20.8407C151.276 20.8073 151.039 20.7921 150.807 20.7921H149.12V23.4528Z" fill="#6C7275" fill-opacity="0.4"/>
<path d="M159.845 18.6143H167.809V20.9925H162.429V23.1703H167.511V25.5486H162.429V27.9269H168.107V30.3051H159.845V18.6143Z" fill="#6C7275" fill-opacity="0.4"/>
<path d="M47.5729 17.0227V12.5H24.8926V35.1102H38.5008V30.5876H29.4286V17.0227H47.5729Z" fill="#6C7275" fill-opacity="0.4"/>
<path d="M47.5728 21.5453V35.1132H43.0367V26.068H33.9646V21.5453H47.5728Z" fill="#6C7275" fill-opacity="0.4"/>
</g>
<defs>
<clipPath id="clip0_22425_25900">
<rect width="145" height="23" fill="white" transform="translate(24 12.5)"/>
</clipPath>
</defs>
</svg>
