<svg width="167" height="48" viewBox="0 0 167 48" fill="none" xmlns="http://www.w3.org/2000/svg">
<path fill-rule="evenodd" clip-rule="evenodd" d="M45.5496 15.1343C45.1603 14.8094 44.7059 14.4846 44.2516 14.3544L43.4729 29.6269L47.2363 19.0991C47.6256 17.4734 46.7176 16.1089 45.5496 15.1343ZM39.3209 14.2241L41.5269 29.4316L43.7329 14.2241C42.4349 13.7697 40.7489 13.7046 39.3209 14.2241ZM37.5042 15.1343C36.2712 16.1096 35.4282 17.4741 35.7526 19.034L39.5159 29.5618L38.8023 14.3544C38.3479 14.4846 37.8286 14.8094 37.5042 15.1343ZM29.8489 16.564C32.3792 20.9831 34.9746 25.7916 37.4399 30.0155C36.5962 26.3118 35.6882 20.1381 34.3909 18.3829C32.8979 16.3035 29.8489 16.564 29.8489 16.564ZM25.3719 18.7735L35.6876 30.7961L29.3295 16.6291C27.6429 16.6935 26.2149 17.5392 25.3719 18.7735ZM46.9769 22.0228L45.2903 30.2752C47.4963 26.442 49.7023 22.6726 51.8433 18.7735C49.7666 18.9682 47.6906 19.7481 46.9769 22.0228ZM52.427 18.7735L46.9769 30.9908L56.5797 20.5281C55.4767 19.3582 54.0486 18.8387 52.427 18.7735ZM24.0095 24.2324C27.3835 26.8313 30.7569 29.4967 34.1309 32.0956L25.0475 19.2286C24.2039 20.6583 23.9445 22.3477 24.0095 24.2324ZM57.747 22.0228C57.5476 21.6155 57.2847 21.2426 56.9683 20.918L48.6636 32.2251C51.9168 29.802 55.1184 27.3101 58.2663 24.7513C58.3313 23.7767 58.2013 22.8028 57.747 22.0228ZM24.0738 29.4967L32.8329 33.5245C29.9132 30.6008 26.9935 27.8059 24.0738 24.9466V29.4967ZM58.2663 29.7564V25.597L49.9616 33.7212C52.8163 32.4197 55.4117 31.1203 58.2663 29.7564ZM24.0095 33.5245C26.6699 34.1098 29.5896 34.8253 31.9899 35.3448L24.0095 30.0806V33.5245ZM58.2663 33.7205V30.5364C55.801 32.1607 53.2056 33.7856 50.9346 35.4099L58.2663 33.7205ZM24.0095 37.4893H31.7949L24.0095 34.1749V37.4893ZM58.2663 37.4893V34.4347C55.736 35.5395 53.53 36.4496 51.1296 37.4893H58.2663Z" fill="#6C7275" fill-opacity="0.4"/>
<path fill-rule="evenodd" clip-rule="evenodd" d="M55.606 15.2742C55.7353 10.6604 48.8586 10.5953 48.9886 15.2742C48.9236 19.5632 55.801 19.7585 55.606 15.2742ZM33.4815 12.87C33.6765 8.19105 26.4742 8.38637 26.7342 12.87C26.4748 17.5489 33.9359 17.614 33.4815 12.87ZM41.5269 13.7795C44.2516 13.8446 45.2902 11.8947 45.3546 10.01C45.4846 7.15068 43.6679 5.98077 41.5269 5.98077C39.3859 5.98077 37.6992 7.21579 37.7635 10.01C37.8285 11.5706 38.4772 13.7144 41.5269 13.7795ZM80.5851 24.5677H82.0774V15.924H80.5851V24.5677ZM77.7304 22.0977L78.5741 24.5677H80.1307L77.146 15.924H75.265L72.7347 23.2676L70.2693 20.1478L73.5784 15.924H71.826L68.7763 20.0176V15.924H67.284V24.5677H68.7763V20.3431L71.9553 24.5677H73.707L74.5507 22.0977H77.7304ZM76.108 17.2885L77.3404 20.8633H74.94L76.108 17.2885ZM91.4194 35.615L89.9278 29.3111H87.2667V38.0192H88.7598V30.6105L90.6414 38.0192H92.1981L94.0798 30.6105V38.0192H95.5064V29.3111H92.9768L91.4194 35.615ZM99.2711 29.3111L96.2865 38.0192H97.7781L98.5568 35.4855H101.736L102.579 38.0192H104.136L101.151 29.3111H99.2711ZM98.9455 34.3156L100.113 30.6756L101.346 34.3156H98.9455ZM110.236 36.0043L106.797 29.3111H104.785V38.0192H106.212V31.4556L109.65 38.0192H111.662V29.3111H110.236V36.0043ZM138.653 36.7198H135.085V34.3156H137.679V33.0147H135.085V30.6105H138.329V29.3111H133.592V38.0192H138.653V36.7198ZM124.963 29.3111H124.703V36.0694L121.265 29.3111H119.253V36.7198H114.712V34.3156H117.372V33.0147H114.712V30.6105H117.956V29.3111H113.219V38.0192H120.68V31.3911L124.12 38.0192H126.13V30.6105H128.791V38.0192H130.283V30.6105H132.879L132.814 29.3111H124.963ZM85.1257 33.6652C85.5807 33.2108 85.9694 32.6255 85.9694 31.7804C85.9694 31.0005 85.5807 30.3514 85.1257 29.9615C84.6071 29.5057 83.8934 29.3111 82.5961 29.3111H80.1307V36.7198H75.5244V34.3156H78.1847V33.0147H75.5244V30.6105H78.7684V29.3111H74.032V38.0192H81.6231V34.3156H82.3367C83.0511 35.4204 84.5427 38.0192 84.5427 38.0192H86.2951L83.9584 34.1847C84.4777 34.1196 84.8021 33.9249 85.1257 33.6652ZM81.6231 33.0812V30.6105H82.8554C84.0248 30.6105 84.4777 31.0663 84.4777 31.7804C84.4777 32.6255 84.0241 33.0812 82.8554 33.0812H81.6231ZM97.1945 20.9278H97.9718C98.6211 21.9675 100.113 24.5677 100.113 24.5677H101.865L99.5298 20.7975C100.048 20.668 100.438 20.4727 100.698 20.2129C101.151 19.823 101.541 19.1732 101.541 18.3933C101.541 17.5489 101.216 16.9636 100.698 16.5737C100.178 16.1186 99.4655 15.924 98.2325 15.924H95.7014V23.3327H91.0951V20.8633H93.7561V19.6283H91.0951V17.159H94.4041V15.9246H89.6684V24.5684H97.1945V20.9278ZM97.1945 19.5632V17.159H98.4918C99.5948 17.159 100.048 17.614 100.048 18.3933C100.048 19.2383 99.5948 19.6283 98.4918 19.6283H97.1945V19.5632ZM72.2804 29.9615C71.761 29.5057 71.0473 29.3111 69.8143 29.3111H67.284V38.0192H68.7763V34.4451H69.8143C71.0473 34.4451 71.761 34.2504 72.2804 33.7947C72.734 33.3403 73.1234 32.6899 73.1234 31.8448C73.1279 31.4884 73.0549 31.1353 72.9093 30.81C72.7637 30.4847 72.5491 30.1952 72.2804 29.9615ZM70.0093 33.1463H68.7763V30.6112H70.0093C71.1774 30.6112 71.6317 31.132 71.6317 31.8455C71.6317 32.6255 71.1124 33.1463 70.0093 33.1463ZM88.6954 22.0977C88.6954 20.8633 87.9168 20.0834 86.4244 19.4981C85.2564 19.1081 84.6721 18.7833 84.6721 18.0684C84.6721 17.5483 85.1921 16.9636 86.2944 16.9636C87.0074 16.9636 87.7861 17.2234 88.1104 17.4187V16.1837C87.7861 15.9891 87.0074 15.7937 86.2944 15.7937C84.4127 15.7937 83.1797 16.8334 83.1797 18.198C83.1797 19.4981 84.1534 20.2123 85.5801 20.7324C86.6831 21.1224 87.2017 21.5124 87.2017 22.2272C87.2017 22.942 86.5537 23.4622 85.5157 23.4622C84.7371 23.4622 83.6984 23.2018 83.1804 22.8118V24.1764C83.6341 24.4361 84.5427 24.6972 85.4514 24.6972C87.6574 24.6972 88.6954 23.4629 88.6954 22.0977ZM139.691 36.1989C139.691 35.3552 140.34 34.7048 141.183 34.7048C142.026 34.7048 142.676 35.3552 142.676 36.1989C142.679 36.3962 142.642 36.5921 142.569 36.775C142.495 36.9579 142.385 37.124 142.245 37.2635C142.106 37.403 141.94 37.5131 141.758 37.5871C141.575 37.6611 141.38 37.6976 141.183 37.6944C140.34 37.6951 139.691 37.0447 139.691 36.1989ZM141.183 38.0192C142.156 38.0192 143 37.2393 143 36.1989C143 35.1586 142.156 34.38 141.183 34.38C140.209 34.38 139.367 35.1586 139.367 36.1989C139.367 37.2393 140.21 38.0192 141.183 38.0192ZM140.794 36.3291H141.183L141.703 37.2393H142.091L141.442 36.3291C141.767 36.264 142.026 36.1345 142.026 35.7452C142.026 35.3559 141.767 35.1599 141.248 35.1599H140.47V37.2393H140.795L140.794 36.3291ZM140.794 36.0694V35.4203H141.248C141.442 35.4203 141.703 35.4855 141.703 35.7452C141.703 36.0701 141.442 36.0701 141.183 36.0701L140.794 36.0694Z" fill="#6C7275" fill-opacity="0.4"/>
</svg>
