<svg width="160" height="48" viewBox="0 0 160 48" fill="none" xmlns="http://www.w3.org/2000/svg">
<path d="M26.6895 25.4003V15.8878H31.4414V25.3042C31.4414 27.7494 32.6775 28.9094 34.5698 28.9094C36.4621 28.9094 37.7228 27.7963 37.7228 25.4249V15.8878H42.4748V25.2796C42.4748 30.7265 39.3464 33.1449 34.5205 33.1449C29.6947 33.1449 26.6895 30.6997 26.6895 25.4003Z" fill="#6C7275" fill-opacity="0.4"/>
<path d="M44.4993 24.4079V24.3587C44.4993 19.4214 48.2816 15.548 53.4232 15.548C56.8897 15.548 59.1224 17.0008 60.625 19.0571L57.0845 21.7928C56.1149 20.606 54.9997 19.8081 53.3739 19.8081C50.9979 19.8081 49.3251 21.842 49.3251 24.3095V24.3587C49.3251 26.9 50.9979 28.8848 53.3739 28.8848C55.1452 28.8848 56.1866 28.0622 57.2055 26.8285L60.7459 29.3452C59.1448 31.5468 56.9883 33.1694 53.253 33.1694C48.4025 33.1694 44.4993 29.4659 44.4993 24.4079Z" fill="#6C7275" fill-opacity="0.4"/>
<path d="M70.3639 15.8878H65.6589V32.8297H70.3639V15.8878Z" fill="#6C7275" fill-opacity="0.4"/>
<path d="M73.114 19.7365H77.7204V22.3739C78.4728 20.5836 79.6843 19.4214 81.8677 19.5175V24.3587H81.4803C79.0797 24.3587 77.7204 25.7378 77.7204 28.7395V32.8297H73.114V19.7365Z" fill="#6C7275" fill-opacity="0.4"/>
<path d="M92.4599 19.7366L89.9138 27.3851L87.39 19.7366H82.5417L87.7796 32.9281H91.974L97.2119 19.7366H92.4599Z" fill="#6C7275" fill-opacity="0.4"/>
<path d="M98.3473 32.8297H102.931V19.7365H98.3473V32.8319V32.8297ZM98.251 18.5497H103.028V15.1613H98.251V18.5497Z" fill="#6C7275" fill-opacity="0.4"/>
<path d="M105.381 19.7365H109.987V21.576C110.836 20.4875 112.05 19.446 113.915 19.446C116.703 19.446 118.378 21.2855 118.378 24.2626V32.8297H113.794V25.7378C113.794 24.285 113.042 23.5116 111.927 23.5116C110.812 23.5116 109.987 24.2872 109.987 25.7378V32.8297H105.381V19.7365Z" fill="#6C7275" fill-opacity="0.4"/>
<path d="M129.027 25.2059C128.856 23.753 127.983 22.8344 126.722 22.8344C125.462 22.8344 124.685 23.7553 124.443 25.2059H129.027ZM120.103 26.3435V26.2943C120.103 22.4701 122.844 19.4438 126.722 19.4438C131.232 19.4438 133.32 22.7607 133.32 26.6073C133.32 26.8978 133.32 27.2375 133.295 27.5527H124.517C124.879 28.9809 125.923 29.7073 127.354 29.7073C128.469 29.7073 129.318 29.2961 130.265 28.3774L132.811 30.4829C131.55 32.081 129.732 33.1449 127.137 33.1449C123.014 33.1449 120.103 30.3868 120.103 26.3435Z" fill="#6C7275" fill-opacity="0.4"/>
</svg>
