<svg width="169" height="48" viewBox="0 0 169 48" fill="none" xmlns="http://www.w3.org/2000/svg">
<path d="M73.2566 10C75.962 10 78.1506 12.1804 78.1946 14.8642L78.1953 14.9465V31.2426C78.2109 33.9365 76.0342 36.1284 73.3703 36.1879L73.2886 36.1891H67.9826L69.7246 42L61.0304 36.1891H28.9384C26.2331 36.1891 24.0446 34.0087 24.0007 31.3249L24 31.2426V14.9465C24 12.2368 26.1769 10.0447 28.8563 10.0007L28.9384 10H73.2566ZM139.246 18.7084C140.605 18.7084 141.772 19.2366 142.747 20.2771L142.89 19.2686C142.906 19.1086 142.954 18.9965 143.018 18.9325C143.082 18.8684 143.178 18.8364 143.306 18.8364H144.68C144.888 18.8364 145 18.9645 145 19.2046V27.6088C144.952 28.9055 144.712 29.962 144.249 30.8264C143.769 31.6908 143.13 32.3472 142.299 32.7954C141.468 33.2436 140.509 33.4517 139.438 33.4517C138.719 33.4517 138.016 33.3237 137.329 33.0835C136.625 32.8434 136.034 32.5073 135.539 32.091C135.443 32.011 135.395 31.931 135.395 31.8349C135.395 31.7709 135.427 31.6908 135.507 31.5788L136.226 30.5383C136.306 30.4262 136.402 30.3622 136.53 30.3622C136.625 30.3622 136.721 30.3942 136.833 30.4742C137.584 31.0025 138.511 31.2586 139.646 31.2586C140.221 31.2586 140.733 31.1306 141.18 30.8744C141.628 30.6343 141.995 30.2661 142.235 29.8179C142.491 29.3697 142.619 28.8574 142.619 28.2811V28.2491C142.139 28.7614 141.628 29.1456 141.1 29.4017C140.573 29.6578 139.95 29.7859 139.246 29.7859C138.304 29.7859 137.409 29.5618 136.593 29.0815C135.762 28.6173 135.107 27.961 134.612 27.1286C134.116 26.2961 133.861 25.3517 133.877 24.2951C133.877 23.3027 134.116 22.3742 134.612 21.5258C135.107 20.6773 135.762 19.989 136.593 19.4767C137.425 18.9645 138.304 18.7084 139.246 18.7084ZM57.9458 18.7884C56.907 18.7884 55.9641 19.0285 55.117 19.5408C54.27 20.053 53.6147 20.7254 53.1353 21.5898C52.6558 22.4382 52.4161 23.3827 52.4161 24.4072C52.4161 25.4157 52.6718 26.3442 53.1832 27.2086C53.6946 28.073 54.3819 28.7454 55.2449 29.2576C56.1079 29.7539 57.0349 30.01 58.0098 30.01C58.729 30.01 59.4162 29.8819 60.0395 29.6418C60.6788 29.3857 61.3021 28.9855 61.9414 28.4252C62.0213 28.3452 62.0692 28.2651 62.0692 28.1691C62.0692 28.099 62.0325 28.029 61.9805 27.9483L61.9573 27.913L61.0783 26.8404C61.0304 26.7604 60.9665 26.7284 60.8706 26.7284C60.8146 26.7284 60.7464 26.7406 60.6767 26.7866L60.6468 26.8084L60.3911 27.0005C60.1993 27.1606 59.9915 27.3047 59.7678 27.4327C59.576 27.5448 59.3363 27.6408 59.0486 27.7209C58.7449 27.8009 58.4093 27.8489 58.0098 27.8489C57.4984 27.8489 57.0189 27.7369 56.5714 27.5288C56.1239 27.3207 55.7403 27.0165 55.4367 26.6323C55.1533 26.2737 54.9394 25.8594 54.8212 25.3892L54.7974 25.2876H62.4688C62.6925 25.3037 62.8683 25.2876 62.9802 25.2556C63.0761 25.2396 63.172 25.1596 63.2359 25.0315C63.2998 24.9035 63.3318 24.6953 63.3318 24.4232C63.3318 23.1906 63.0601 22.1501 62.5167 21.3017C61.9733 20.4532 61.2861 19.8289 60.455 19.4127C59.624 18.9965 58.7929 18.7884 57.9458 18.7884ZM96.063 18.7884C96.9101 18.7884 97.7571 18.9965 98.5722 19.4127C99.4032 19.8289 100.09 20.4532 100.634 21.3017C101.177 22.1501 101.449 23.1906 101.449 24.4232C101.449 24.6953 101.417 24.9035 101.353 25.0315C101.289 25.1596 101.193 25.2396 101.097 25.2556C100.985 25.2876 100.81 25.3037 100.586 25.3037H92.9305C93.0424 25.8159 93.2661 26.2641 93.5698 26.6483C93.8735 27.0325 94.257 27.3367 94.7045 27.5448C95.152 27.7529 95.6315 27.8649 96.1589 27.8649C96.5584 27.8649 96.8941 27.8169 97.1977 27.7369C97.4854 27.6568 97.7251 27.5608 97.9169 27.4487C98.1407 27.3207 98.3484 27.1766 98.5402 27.0165L98.7959 26.8244C98.8279 26.7444 98.9078 26.7284 98.9877 26.7284C99.0836 26.7284 99.1475 26.7604 99.1955 26.8404L100.074 27.913C100.138 28.009 100.186 28.089 100.186 28.1691C100.186 28.2651 100.138 28.3452 100.059 28.4252C99.4192 28.9855 98.7959 29.3857 98.1566 29.6418C97.5174 29.8979 96.8461 30.01 96.1269 30.01C95.152 30.01 94.2251 29.7539 93.362 29.2576C92.499 28.7454 91.8118 28.073 91.3004 27.2086C90.7889 26.3442 90.5332 25.4157 90.5332 24.4072C90.5332 23.3827 90.7729 22.4382 91.2524 21.5898C91.7319 20.7254 92.3871 20.053 93.2342 19.5408C94.0812 19.0285 95.0242 18.7884 96.063 18.7884ZM32.6463 17.0915H30.7764C30.7284 17.0915 30.6805 17.1076 30.6485 17.1236C30.6166 17.1396 30.5846 17.1716 30.5526 17.2036C30.4967 17.2596 30.4652 17.3279 30.4582 17.4085L30.4567 17.4437V24.7274C30.4567 25.8959 30.6965 26.8724 31.1759 27.6568C31.6554 28.4412 32.2947 29.0335 33.1098 29.4177C33.9248 29.8019 34.8198 29.994 35.8107 29.994C36.8016 29.994 37.7126 29.8179 38.5117 29.4337C39.3108 29.0655 39.9501 28.4732 40.4295 27.6888C40.8912 26.9181 41.1306 25.984 41.1477 24.8724L41.1487 24.7434V17.4437C41.1647 17.3957 41.1487 17.3477 41.1327 17.2996C41.1168 17.2676 41.0848 17.2196 41.0528 17.1876C40.9969 17.1316 40.9165 17.1 40.8223 17.093L40.7811 17.0915H39.0071C38.8953 17.0915 38.8153 17.1236 38.7514 17.1876C38.6955 17.2436 38.664 17.3119 38.657 17.4032L38.6555 17.4437V24.7594C38.6555 25.3517 38.5277 25.8639 38.272 26.3282C38.0322 26.7764 37.6806 27.1286 37.2491 27.3847C36.8176 27.6248 36.3381 27.7529 35.8107 27.7529C35.2833 27.7529 34.8198 27.6408 34.3883 27.4007C33.9568 27.1766 33.6212 26.8244 33.3655 26.3762C33.1248 25.9543 32.9974 25.4474 32.9832 24.8687L32.9819 24.7594V17.4437C32.9819 17.3317 32.9499 17.2516 32.902 17.1876C32.854 17.1236 32.7582 17.0915 32.6463 17.0915ZM46.9342 18.7244C46.1831 18.7244 45.5278 18.8684 44.9525 19.1726C44.3771 19.4767 43.9456 19.8609 43.6259 20.3412C43.3223 20.8214 43.1625 21.3017 43.1625 21.7979C43.1625 22.4062 43.2743 22.9345 43.5141 23.3667C43.7538 23.7989 44.1054 24.1671 44.5849 24.4712C45.0643 24.7754 45.6876 25.0475 46.4707 25.2876C46.7669 25.3724 46.9635 25.4322 47.0386 25.4561L47.0621 25.4637C47.4456 25.5758 47.7333 25.6718 47.9091 25.7519C48.1009 25.8319 48.2447 25.928 48.3406 26.072C48.4525 26.2161 48.5005 26.4082 48.5005 26.6643C48.5005 26.9045 48.4046 27.1286 48.2288 27.3207C48.037 27.5128 47.8132 27.6568 47.5256 27.7689C47.2539 27.8649 46.9502 27.929 46.6625 27.929C46.1831 27.929 45.7835 27.8169 45.4639 27.5928C45.1442 27.3687 44.8406 27.0645 44.5689 26.6803C44.473 26.5523 44.3771 26.4882 44.2652 26.4882C44.2013 26.4882 44.1374 26.5203 44.0734 26.5523L42.9707 27.3367C42.8748 27.4327 42.8268 27.5288 42.8268 27.6408C42.8268 27.6888 42.8428 27.7529 42.8588 27.8009C42.8908 27.8649 42.9227 27.929 42.9547 27.993C43.3542 28.6173 43.8976 29.1136 44.5689 29.4657C45.2401 29.8179 46.0073 29.994 46.8543 29.994C47.5256 29.994 48.1808 29.8659 48.8041 29.6258C49.4274 29.3697 49.9229 29.0015 50.3224 28.4892C50.706 27.993 50.8978 27.3847 50.8978 26.6643C50.8978 25.912 50.658 25.2236 50.1786 24.6313C49.6991 24.023 48.9799 23.5908 48.005 23.2866C47.8772 23.2386 47.7653 23.2066 47.6534 23.1746C47.5415 23.1426 47.4456 23.1106 47.3657 23.0945C46.8863 22.9665 46.5347 22.8544 46.3109 22.7584C46.0872 22.6623 45.8954 22.5503 45.7675 22.4222C45.6237 22.2781 45.5598 22.1021 45.5598 21.8619C45.5598 21.5578 45.6876 21.3177 45.9433 21.1256C46.199 20.9335 46.5507 20.8374 46.9982 20.8374C47.4297 20.8374 47.7813 20.9175 48.0689 21.0615C48.3566 21.2056 48.6283 21.4457 48.9 21.7499C48.9959 21.8619 49.0758 21.926 49.1717 21.926C49.2356 21.926 49.3155 21.8939 49.3955 21.8139L50.4023 20.9815C50.5142 20.8854 50.5781 20.8054 50.5781 20.7254C50.5781 20.6613 50.5302 20.5653 50.4503 20.4372C50.0667 19.957 49.5872 19.5408 49.0119 19.2206C48.4365 18.8844 47.7493 18.7244 46.9342 18.7244ZM106.244 18.6763C107.043 18.6763 107.746 18.8364 108.321 19.1726C108.897 19.5088 109.376 19.909 109.76 20.3892C109.856 20.5013 109.887 20.5973 109.887 20.6773C109.887 20.7574 109.824 20.8534 109.712 20.9335L108.705 21.7659C108.609 21.8299 108.545 21.8779 108.481 21.8779C108.401 21.8779 108.305 21.8139 108.209 21.7019C107.954 21.3977 107.666 21.1736 107.378 21.0135C107.091 20.8694 106.723 20.7894 106.307 20.7894C105.86 20.7894 105.508 20.8854 105.253 21.0775C104.997 21.2696 104.869 21.5098 104.869 21.8139C104.869 22.054 104.933 22.2301 105.077 22.3742C105.221 22.5183 105.397 22.6303 105.62 22.7104C105.844 22.8064 106.212 22.9025 106.675 23.0465C106.771 23.0625 106.867 23.0945 106.963 23.1266C107.075 23.1586 107.186 23.1906 107.314 23.2386C108.289 23.5268 109.008 23.975 109.488 24.5833C109.967 25.1916 110.207 25.8639 110.207 26.6163C110.207 27.3207 110.015 27.929 109.632 28.4412C109.248 28.9375 108.737 29.3217 108.113 29.5778C107.49 29.8339 106.835 29.962 106.164 29.946C105.317 29.946 104.549 29.7699 103.878 29.4177C103.207 29.0655 102.68 28.5693 102.264 27.945C102.248 27.929 102.216 27.8649 102.184 27.8009C102.168 27.7529 102.152 27.6888 102.152 27.6408C102.152 27.5288 102.2 27.4327 102.296 27.3367L103.383 26.5043C103.431 26.4562 103.495 26.4242 103.575 26.4402C103.686 26.4402 103.798 26.5043 103.878 26.6323C104.15 27.0165 104.454 27.3207 104.773 27.5448C105.093 27.7689 105.492 27.8809 105.972 27.8809C106.276 27.8809 106.563 27.8329 106.835 27.7209C107.123 27.6088 107.362 27.4647 107.538 27.2726C107.714 27.0805 107.81 26.8564 107.81 26.6163C107.81 26.3602 107.762 26.1681 107.65 26.024C107.538 25.8799 107.394 25.7839 107.218 25.7039C107.043 25.6238 106.755 25.5278 106.371 25.4157C106.307 25.3997 106.116 25.3517 105.78 25.2396C104.997 24.9995 104.374 24.7274 103.894 24.4232C103.415 24.1191 103.063 23.7509 102.823 23.3187C102.584 22.8864 102.472 22.3582 102.472 21.7499C102.472 21.2536 102.632 20.7734 102.935 20.2931C103.239 19.8129 103.686 19.4287 104.262 19.1246C104.837 18.8204 105.492 18.6763 106.244 18.6763ZM114.538 16.2111C114.57 16.2111 114.618 16.2271 114.65 16.2431C114.682 16.2591 114.714 16.2911 114.73 16.3232C114.778 16.3872 114.794 16.4832 114.794 16.5953V18.9325L116.073 18.9485C116.312 18.9485 116.44 19.0765 116.44 19.3167V20.7254C116.44 20.8374 116.408 20.9335 116.328 20.9975C116.248 21.0615 116.152 21.0935 116.041 21.0935H114.81V26.4242C114.81 26.8084 114.874 27.1126 115.018 27.3527C115.162 27.5768 115.401 27.7049 115.737 27.7209L116.009 27.7369C116.2 27.7529 116.328 27.8009 116.376 27.8969C116.424 27.993 116.456 28.1051 116.44 28.2171V29.4337C116.44 29.7219 116.216 29.8659 115.785 29.8659C115.114 29.8659 114.522 29.7379 114.011 29.4817C113.483 29.2256 113.084 28.8574 112.796 28.3772C112.509 27.8969 112.365 27.3367 112.365 26.6963V21.1096H111.374C111.278 21.1096 111.182 21.0775 111.118 21.0135C111.038 20.9495 111.006 20.8534 111.006 20.7414V19.3487C111.006 19.2206 111.038 19.1246 111.118 19.0445C111.182 18.9805 111.278 18.9485 111.374 18.9485H112.365V17.1556C112.365 17.0275 112.381 16.9475 112.429 16.8834C112.477 16.8194 112.572 16.7874 112.7 16.7394L114.442 16.2271C114.474 16.2111 114.506 16.2111 114.538 16.2111ZM70.1721 18.7564C69.6287 18.7564 69.1333 18.8844 68.6858 19.1406C68.2383 19.3967 67.8707 19.7489 67.583 20.2131L67.4072 19.2686C67.3752 19.0925 67.3273 18.9805 67.2314 18.9325C67.1515 18.8844 67.0396 18.8684 66.8798 18.8684H65.6492C65.4254 18.8684 65.3136 18.9965 65.3136 19.2366V29.4497C65.3136 29.6898 65.4254 29.8019 65.6492 29.8019H67.4072C67.6469 29.8019 67.7588 29.6898 67.7588 29.4497V23.4627C67.7588 22.9185 67.8547 22.4702 68.0625 22.1021C68.2702 21.7339 68.526 21.4617 68.8616 21.2856C69.1812 21.1096 69.5328 21.0135 69.9004 21.0135C70.268 21.0135 70.6036 21.0775 70.9233 21.2056C71.2429 21.3497 71.5466 21.5098 71.8342 21.7019C71.9301 21.7659 72.026 21.8139 72.1059 21.8139C72.2018 21.8139 72.2658 21.7659 72.3457 21.6698L73.1448 20.5333C73.2087 20.4532 73.2407 20.3732 73.2407 20.2931C73.2407 20.1811 73.1767 20.069 73.0489 19.941C72.7292 19.6688 72.3137 19.3967 71.8023 19.1406C71.3068 18.8844 70.7634 18.7564 70.1721 18.7564ZM90.4853 17.0915C90.709 17.0915 90.8209 17.2036 90.8209 17.4277V19.0445C90.8209 19.2686 90.709 19.3967 90.4853 19.3967H87.1131V29.4657C87.1131 29.6898 87.0012 29.8019 86.7774 29.8019H84.9395C84.7158 29.8019 84.6039 29.6898 84.6039 29.4657V19.3807H81.3276C81.1038 19.3807 80.9919 19.2686 80.9919 19.0285V17.4277C81.0079 17.2036 81.1198 17.0915 81.3435 17.0915H90.4853ZM120.468 18.8684C120.563 18.8684 120.643 18.9004 120.707 18.9645C120.771 19.0285 120.803 19.1086 120.803 19.2206V29.4497C120.803 29.6738 120.691 29.8019 120.468 29.8019H118.662C118.438 29.8019 118.326 29.6898 118.326 29.4497V19.2206C118.326 19.1086 118.358 19.0285 118.422 18.9645C118.486 18.9004 118.566 18.8684 118.662 18.8684H120.468ZM128.315 18.7724C128.97 18.7724 129.609 18.9325 130.233 19.2686C130.856 19.6048 131.367 20.1171 131.783 20.8054C132.182 21.4937 132.39 22.3582 132.39 23.3827V29.4177C132.39 29.6578 132.278 29.7699 132.055 29.7699H130.344C130.105 29.7699 129.977 29.6578 129.977 29.4177V23.4627C129.977 23.0465 129.881 22.6623 129.673 22.2941C129.465 21.926 129.178 21.6218 128.826 21.3977C128.459 21.1736 128.059 21.0615 127.612 21.0615C127.228 21.0615 126.844 21.1576 126.477 21.3657C126.093 21.5738 125.79 21.8619 125.55 22.2461C125.31 22.6303 125.182 23.0785 125.182 23.5748V29.4017C125.166 29.5458 125.118 29.6258 125.022 29.7059C124.927 29.7699 124.799 29.8019 124.687 29.8019H123.121C122.881 29.8019 122.753 29.6738 122.753 29.4337V19.2206C122.753 18.9805 122.881 18.8524 123.121 18.8524H124.271C124.383 18.8524 124.511 18.9005 124.591 18.9805C124.687 19.0605 124.751 19.1726 124.783 19.2846L124.927 20.5173C125.342 19.925 125.838 19.4927 126.429 19.2046C127.02 18.9165 127.659 18.7724 128.315 18.7724ZM139.406 20.9495C138.767 20.9495 138.208 21.1096 137.712 21.4137C137.217 21.7179 136.849 22.1341 136.561 22.6623C136.29 23.1906 136.146 23.7509 136.146 24.3752C136.146 25.0315 136.29 25.6078 136.577 26.1201C136.865 26.6323 137.265 27.0325 137.76 27.3207C138.256 27.6088 138.815 27.7529 139.422 27.7529C140.03 27.7529 140.573 27.6088 141.052 27.3047C141.532 27.0005 141.915 26.5843 142.203 26.072C142.475 25.5438 142.619 24.9835 142.619 24.3752C142.651 23.7349 142.507 23.1586 142.235 22.6463C141.947 22.1341 141.564 21.7179 141.068 21.4137C140.573 21.1096 140.03 20.9495 139.406 20.9495ZM57.9458 20.8694C58.6331 20.8694 59.2564 21.0775 59.7838 21.5098C60.3112 21.942 60.7107 22.5183 60.9665 23.2226H54.8773C55.0371 22.7744 55.2609 22.3742 55.5645 22.022C55.8682 21.6698 56.2198 21.3817 56.6353 21.1736C57.0509 20.9655 57.4984 20.8534 57.9458 20.8694ZM94.7365 21.1736C94.321 21.3817 93.9694 21.6698 93.6657 22.022C93.362 22.3742 93.1383 22.7744 92.9785 23.2226H99.0836C98.8279 22.5183 98.4283 21.942 97.9009 21.5098C97.3735 21.0775 96.7502 20.8694 96.047 20.8694C95.5995 20.8534 95.136 20.9655 94.7365 21.1736ZM120.26 14.9625C120.579 14.9625 120.739 15.1386 120.739 15.5068V17.0115C120.739 17.1876 120.707 17.3157 120.627 17.3797C120.547 17.4437 120.42 17.4917 120.26 17.4917H118.773C118.422 17.4917 118.246 17.3317 118.246 17.0115V15.5068C118.246 15.1386 118.422 14.9625 118.773 14.9625H120.26Z" fill="#6C7275" fill-opacity="0.4"/>
</svg>
