<svg width="144" height="48" viewBox="0 0 144 48" fill="none" xmlns="http://www.w3.org/2000/svg">
<g clip-path="url(#clip0_22425_25872)">
<path d="M46.6217 28.8244L46.608 28.7817L55.1165 20.9797V17.2206H41.4661V20.9797H49.6198L49.6331 21.0157L41.2075 28.8244V32.5834H55.2536V28.8247L46.6217 28.8244ZM63.634 16.863C62.0596 16.863 60.7763 17.1004 59.7846 17.5765C58.8607 17.9911 58.0824 18.6741 57.5508 19.5371C57.0422 20.4056 56.7228 21.3721 56.6135 22.373L60.7552 22.9563C60.9052 22.0721 61.2049 21.4458 61.6543 21.0766C62.1653 20.6905 62.7949 20.4954 63.4343 20.5252C64.2749 20.5252 64.8846 20.75 65.2636 21.2005C65.6392 21.6506 65.83 22.2739 65.83 23.0958V23.5054H61.8477C59.8205 23.5054 58.3643 23.9555 57.4785 24.856C56.5932 25.7562 56.1512 26.945 56.1527 28.4218C56.1527 29.9342 56.5946 31.0599 57.4789 31.7983C58.3628 32.5363 59.4745 32.9033 60.8137 32.8988C62.4752 32.8988 63.7536 32.3263 64.6479 31.1809C65.1761 30.4773 65.5533 29.672 65.7559 28.8155H65.9063L66.4772 32.5745H70.2303V23.055C70.2303 21.0877 69.7127 19.5638 68.6773 18.4837C67.6423 17.4028 65.9608 16.8626 63.634 16.8626V16.863ZM64.9469 28.5969C64.3512 29.0945 63.5714 29.342 62.6004 29.342C61.8002 29.342 61.2446 29.2017 60.933 28.9212C60.7812 28.7885 60.6604 28.6239 60.5792 28.4392C60.498 28.2544 60.4584 28.054 60.4633 27.8522C60.4544 27.6619 60.4844 27.4717 60.5512 27.2933C60.6181 27.1149 60.7205 26.9519 60.8523 26.8144C60.9946 26.6806 61.1626 26.5771 61.346 26.5101C61.5295 26.4432 61.7246 26.4141 61.9195 26.4248H65.8367V26.6838C65.8446 27.0497 65.7685 27.4126 65.6142 27.7443C65.4599 28.0761 65.2316 28.3676 64.9469 28.5969ZM92.9242 17.2206H88.4902V32.5857H92.9242V17.2206ZM119.104 17.2206C117.851 17.2206 116.864 17.6633 116.142 18.549C115.624 19.185 115.23 20.1252 114.96 21.3689H114.829L114.25 17.2206H110.463V32.5834H114.897V24.705C114.897 23.7117 115.129 22.95 115.594 22.4205C116.058 21.8906 116.915 21.6257 118.165 21.6257H119.848V17.2206H119.104ZM106.062 17.7227C105.027 17.106 103.721 16.7984 102.145 16.7999C99.6642 16.7999 97.7223 17.5071 96.3201 18.9223C94.9176 20.3374 94.2167 22.2884 94.2167 24.7751C94.1809 26.2784 94.5085 27.7681 95.1717 29.1171C95.7787 30.3193 96.724 31.3171 97.8908 31.9872C99.0656 32.6669 100.463 33.0076 102.083 33.009C103.483 33.009 104.653 32.7931 105.593 32.3608C106.476 31.9726 107.245 31.3642 107.827 30.5935C108.38 29.8371 108.792 28.9859 109.04 28.0815L105.22 27.0103C105.059 27.5983 104.749 28.1348 104.321 28.568C103.889 28.9999 103.166 29.2162 102.152 29.2162C100.946 29.2162 100.047 28.8704 99.4553 28.1784C99.0255 27.6786 98.7562 26.9651 98.6373 26.04H109.099C109.141 25.6078 109.164 25.2453 109.164 24.9529V23.996C109.189 22.7108 108.924 21.4366 108.389 20.2684C107.887 19.2044 107.076 18.317 106.062 17.7227ZM102.017 20.4621C103.815 20.4621 104.834 21.3482 105.076 23.1207H98.7158C98.8167 22.5292 99.0613 21.9717 99.4282 21.4973C100.011 20.8057 100.874 20.4606 102.017 20.4621ZM90.7556 11.0283C90.422 11.0168 90.0895 11.0727 89.7779 11.1925C89.4664 11.3123 89.182 11.4937 88.9418 11.7258C88.7053 11.9604 88.5198 12.2416 88.3972 12.5516C88.2746 12.8616 88.2175 13.1937 88.2294 13.5269C88.2174 13.8623 88.2745 14.1965 88.3973 14.5088C88.52 14.821 88.7058 15.1046 88.9429 15.3417C89.1799 15.5789 89.4632 15.7647 89.775 15.8874C90.0869 16.01 90.4207 16.0669 90.7556 16.0544C91.0883 16.067 91.4199 16.01 91.7294 15.8872C92.0389 15.7643 92.3195 15.5783 92.5534 15.3409C92.7855 15.1011 92.9667 14.8168 93.086 14.5049C93.2054 14.1931 93.2605 13.8603 93.248 13.5265C93.2635 13.1949 93.2096 12.8636 93.09 12.554C92.9703 12.2444 92.7874 11.9632 92.553 11.7284C92.3187 11.4935 92.038 11.31 91.7289 11.1899C91.4197 11.0697 91.089 11.0154 90.7578 11.0305L90.7556 11.0283ZM81.5954 16.7999C80.085 16.7999 78.8714 17.2748 77.9546 18.2247C77.2755 18.9282 76.7776 19.979 76.4602 21.376H76.3186L75.7385 17.2277H71.9518V37H76.3857V28.8559H76.5476C76.6828 29.399 76.8725 29.927 77.114 30.4317C77.4891 31.254 78.1043 31.9431 78.8785 32.4079C79.6808 32.8467 80.5848 33.0649 81.4987 33.0406C83.355 33.0406 84.7683 32.3163 85.7393 30.8685C86.7102 29.4203 87.1959 27.3996 87.1959 24.8063C87.1959 22.3018 86.7258 20.3411 85.7867 18.9245C84.8472 17.5082 83.4502 16.7999 81.5954 16.7999ZM82.0447 27.9331C81.5276 28.6834 80.7189 29.0585 79.6175 29.0585C79.1635 29.0795 78.711 28.9918 78.2976 28.8027C77.8841 28.6137 77.5216 28.3287 77.24 27.9713C76.6658 27.2497 76.3798 26.2612 76.3816 25.0067V24.7143C76.3816 23.4401 76.6676 22.4646 77.24 21.7879C77.8119 21.1111 78.6051 20.7764 79.6175 20.7838C80.7385 20.7838 81.5524 21.14 82.0607 21.8532C82.5686 22.5659 82.8223 23.56 82.8223 24.8356C82.8256 26.1547 82.5678 27.1873 82.0492 27.9331H82.0447Z" fill="#6C7275" fill-opacity="0.4"/>
<path d="M39.4928 28.8243H24.1523V32.5882H39.4928V28.8243Z" fill="#6C7275" fill-opacity="0.4"/>
</g>
<defs>
<clipPath id="clip0_22425_25872">
<rect width="96" height="26" fill="white" transform="translate(24 11)"/>
</clipPath>
</defs>
</svg>
