<svg width="48" height="48" viewBox="0 0 48 48" fill="none" xmlns="http://www.w3.org/2000/svg">
<rect width="48" height="48" fill="#F1E7FF"/>
<path d="M31.5 18.166C31.5 19.5467 28.1421 20.666 24 20.666C19.8579 20.666 16.5 19.5467 16.5 18.166M31.5 18.166C31.5 16.7853 28.1421 15.666 24 15.666C19.8579 15.666 16.5 16.7853 16.5 18.166M31.5 18.166V29.8327C31.5 30.4957 30.7098 31.1316 29.3033 31.6005C27.8968 32.0693 25.9891 32.3327 24 32.3327C22.0109 32.3327 20.1032 32.0693 18.6967 31.6005C17.2902 31.1316 16.5 30.4957 16.5 29.8327V18.166M16.5 23.9993C16.5 24.6624 17.2902 25.2983 18.6967 25.7671C20.1032 26.236 22.0109 26.4993 24 26.4993C25.9891 26.4993 27.8968 26.236 29.3033 25.7671C30.7098 25.2983 31.5 24.6624 31.5 23.9993" stroke="#A46AFF" stroke-width="2" stroke-linecap="round" stroke-linejoin="round"/>
</svg>
