<svg width="32" height="32" viewBox="0 0 32 32" fill="none" xmlns="http://www.w3.org/2000/svg">
<path d="M21.3327 10.6673L2.66602 29.334M23.3327 20.0007H11.9993M16.8927 25.334C17.2435 25.334 17.5908 25.2647 17.9148 25.1301C18.2388 24.9956 18.533 24.7985 18.7807 24.55L26.986 16.3207C28.4871 14.8196 29.3305 12.7836 29.3305 10.6607C29.3305 8.53779 28.4871 6.50182 26.986 5.0007C25.4849 3.49957 23.4489 2.65625 21.326 2.65625C19.2031 2.65625 17.1671 3.49957 15.666 5.0007L7.44735 13.2194C6.94722 13.7193 6.66617 14.3975 6.66602 15.1047V24.0007C6.66602 24.3543 6.80649 24.6935 7.05654 24.9435C7.30659 25.1936 7.64573 25.334 7.99935 25.334H16.8927Z" stroke="#5284FF" stroke-width="2" stroke-linecap="round" stroke-linejoin="round"/>
</svg>
