<svg width="48" height="48" viewBox="0 0 48 48" fill="none" xmlns="http://www.w3.org/2000/svg">
<rect width="48" height="48" fill="#E0E9FF"/>
<path d="M25.6663 15.666V18.9993C25.6663 19.4414 25.8419 19.8653 26.1545 20.1779C26.4671 20.4904 26.891 20.666 27.333 20.666H30.6663M22.333 21.4993H20.6663M27.333 24.8327H20.6663M27.333 28.166H20.6663M26.4997 15.666H18.9997C18.5576 15.666 18.1337 15.8416 17.8212 16.1542C17.5086 16.4667 17.333 16.8907 17.333 17.3327V30.666C17.333 31.108 17.5086 31.532 17.8212 31.8445C18.1337 32.1571 18.5576 32.3327 18.9997 32.3327H28.9997C29.4417 32.3327 29.8656 32.1571 30.1782 31.8445C30.4907 31.532 30.6663 31.108 30.6663 30.666V19.8327L26.4997 15.666Z" stroke="#5284FF" stroke-width="2" stroke-linecap="round" stroke-linejoin="round"/>
</svg>
