<svg width="48" height="48" viewBox="0 0 48 48" fill="none" xmlns="http://www.w3.org/2000/svg">
<rect width="48" height="48" fill="#E4F4FD"/>
<g clip-path="url(#clip0_21894_10351)">
<path d="M26.1854 28.9132L17.2854 26.4857M21.5004 20.6658C19.9971 22.9241 18.1921 23.5491 16.0146 23.9558C15.9424 23.969 15.8748 24.0008 15.8186 24.048C15.7624 24.0953 15.7195 24.1564 15.6941 24.2253C15.6687 24.2942 15.6616 24.3685 15.6737 24.4409C15.6858 24.5134 15.7165 24.5814 15.7629 24.6383L21.8629 32.0408C21.9868 32.1724 22.1501 32.2601 22.3283 32.2908C22.5064 32.3215 22.6897 32.2934 22.8504 32.2108C24.6129 31.0033 27.3338 27.9925 27.3338 26.4991M29.3137 16.1841C29.478 16.0199 29.673 15.8896 29.8876 15.8007C30.1023 15.7118 30.3323 15.666 30.5646 15.666C30.7969 15.666 31.0269 15.7118 31.2415 15.8007C31.4561 15.8896 31.6512 16.0199 31.8154 16.1841C31.9797 16.3484 32.11 16.5434 32.1989 16.758C32.2878 16.9726 32.3335 17.2027 32.3335 17.435C32.3335 17.6673 32.2878 17.8973 32.1989 18.1119C32.11 18.3265 31.9797 18.5215 31.8154 18.6858L28.4671 22.035C28.389 22.1131 28.3451 22.2191 28.3451 22.3295C28.3451 22.44 28.389 22.546 28.4671 22.6241L29.2538 23.4108C29.6303 23.7874 29.8419 24.2982 29.8419 24.8308C29.8419 25.3634 29.6303 25.8742 29.2538 26.2508L28.4671 27.0375C28.3889 27.1156 28.283 27.1595 28.1725 27.1595C28.062 27.1595 27.9561 27.1156 27.8779 27.0375L20.9621 20.1225C20.884 20.0443 20.8401 19.9384 20.8401 19.8279C20.8401 19.7174 20.884 19.6114 20.9621 19.5333L21.7487 18.7466C22.1254 18.3701 22.6362 18.1585 23.1687 18.1585C23.7013 18.1585 24.2121 18.3701 24.5887 18.7466L25.3754 19.5333C25.4536 19.6114 25.5595 19.6553 25.67 19.6553C25.7805 19.6553 25.8864 19.6114 25.9646 19.5333L29.3137 16.1841Z" stroke="#43B3F2" stroke-width="2" stroke-linecap="round" stroke-linejoin="round"/>
</g>
<defs>
<clipPath id="clip0_21894_10351">
<rect width="20" height="20" fill="white" transform="translate(14 14)"/>
</clipPath>
</defs>
</svg>
