<svg width="48" height="48" viewBox="0 0 48 48" fill="none" xmlns="http://www.w3.org/2000/svg">
<rect width="48" height="48" fill="#E4F4FD"/>
<path d="M23.9997 26.4996L21.4997 23.9996M23.9997 26.4996C25.1637 26.0568 26.2804 25.4985 27.333 24.8329M23.9997 26.4996V30.6662C23.9997 30.6662 26.5247 30.2079 27.333 28.9996C28.233 27.6496 27.333 24.8329 27.333 24.8329M21.4997 23.9996C21.9431 22.8491 22.5015 21.7463 23.1663 20.7079C24.1373 19.1554 25.4894 17.8771 27.0938 16.9946C28.6983 16.1122 30.5019 15.6549 32.333 15.6662C32.333 17.9329 31.683 21.9162 27.333 24.8329M21.4997 23.9996L17.333 23.9996C17.333 23.9996 17.7913 21.4746 18.9997 20.6662C20.3497 19.7662 23.1663 20.6662 23.1663 20.6662M17.7497 27.7496C16.4997 28.7996 16.083 31.9163 16.083 31.9163C16.083 31.9163 19.1997 31.4996 20.2497 30.2496C20.8413 29.5496 20.833 28.4746 20.1747 27.8246C19.8508 27.5155 19.4241 27.3368 18.9765 27.323C18.529 27.3091 18.0921 27.4611 17.7497 27.7496Z" stroke="#43B3F2" stroke-width="2" stroke-linecap="round" stroke-linejoin="round"/>
</svg>
