<svg width="48" height="48" viewBox="0 0 48 48" fill="none" xmlns="http://www.w3.org/2000/svg">
<rect width="48" height="48" fill="#FDEEFF"/>
<g clip-path="url(#clip0_21831_10156)">
<path d="M30.6667 16.4996V19.8329M32.3334 18.1662H29.0001M17.3334 28.1662V29.8329M18.1667 28.9996H16.5001M22.2809 26.9162C22.2065 26.6278 22.0561 26.3646 21.8455 26.154C21.6349 25.9434 21.3718 25.7931 21.0834 25.7187L15.9709 24.4004C15.8836 24.3756 15.8069 24.3231 15.7522 24.2508C15.6975 24.1784 15.668 24.0902 15.668 23.9996C15.668 23.9089 15.6975 23.8207 15.7522 23.7484C15.8069 23.676 15.8836 23.6235 15.9709 23.5987L21.0834 22.2796C21.3717 22.2052 21.6348 22.055 21.8454 21.8446C22.056 21.6341 22.2063 21.3711 22.2809 21.0829L23.5992 15.9704C23.6237 15.8828 23.6762 15.8057 23.7486 15.7507C23.8211 15.6958 23.9095 15.666 24.0004 15.666C24.0914 15.666 24.1798 15.6958 24.2523 15.7507C24.3247 15.8057 24.3772 15.8828 24.4017 15.9704L25.7192 21.0829C25.7936 21.3713 25.9439 21.6345 26.1545 21.8451C26.3651 22.0557 26.6283 22.206 26.9167 22.2804L32.0292 23.5979C32.1171 23.6221 32.1946 23.6746 32.2499 23.7471C32.3052 23.8197 32.3351 23.9084 32.3351 23.9996C32.3351 24.0908 32.3052 24.1794 32.2499 24.252C32.1946 24.3245 32.1171 24.377 32.0292 24.4012L26.9167 25.7187C26.6283 25.7931 26.3651 25.9434 26.1545 26.154C25.9439 26.3646 25.7936 26.6278 25.7192 26.9162L24.4009 32.0287C24.3764 32.1163 24.3239 32.1934 24.2514 32.2484C24.179 32.3033 24.0905 32.3331 23.9996 32.3331C23.9087 32.3331 23.8202 32.3033 23.7478 32.2484C23.6754 32.1934 23.6229 32.1163 23.5984 32.0287L22.2809 26.9162Z" stroke="#EC88F9" stroke-width="2" stroke-linecap="round" stroke-linejoin="round"/>
</g>
<defs>
<clipPath id="clip0_21831_10156">
<rect width="20" height="20" fill="white" transform="translate(14 14)"/>
</clipPath>
</defs>
</svg>
